<?xml version="1.0" standalone="no"?>
<!DOCTYPE svg PUBLIC "-//W3C//DTD SVG 1.1//EN" "http://www.w3.org/Graphics/SVG/1.1/DTD/svg11.dtd" >
<svg xmlns="http://www.w3.org/2000/svg" xmlns:xlink="http://www.w3.org/1999/xlink" version="1.1">
<metadata>
Created by FontForge 20170731 at Thu Dec 13 16:42:17 2018
 By Aleksey,,,
Copyright \(c\) 2018 by Radim Pesko. All rights reserved.
</metadata>
<defs>
<font id="Bower-Bold" horiz-adv-x="400" >
  <font-face 
    font-family="Bower Bold"
    font-weight="700"
    font-stretch="normal"
    units-per-em="1050"
    panose-1="2 0 0 0 0 0 0 0 0 0"
    ascent="840"
    descent="-210"
    x-height="479"
    cap-height="728"
    bbox="-191.353 -262 1054 1134"
    underline-thickness="50"
    underline-position="-200"
    unicode-range="U+0020-FB04"
  />
<missing-glyph horiz-adv-x="310" 
 />
    <glyph glyph-name="f_f" unicode="ff" horiz-adv-x="665" 
d="M534 91q0 -12 22.5 -33.5t32.5 -21.5h30v-36h-288v36h20q11 0 33 21.5t22 33.5v335h-179v-335q0 -12 22.5 -33.5t32.5 -21.5h20v-36h-279v36h20q11 0 33 21.5t22 33.5v335h-78v53h78v95q0 92 57 144.5t151 52.5q90 0 146 -43q43 43 118 43q38 0 61.5 -20t23.5 -51
q0 -28 -17.5 -45.5t-48.5 -17.5q-35 0 -54 24t-17 60q-23 -4 -38 -25t-15 -46q0 -36 33.5 -85t33.5 -75v-11h114v-53h-112v-335zM406 479v125q-40 0 -60 28t-12 73q-18 23 -54 23q-47 0 -72.5 -22.5t-25.5 -64.5q0 -30 21.5 -74.5t21.5 -76.5v-11h181z" />
    <glyph glyph-name="f_i" unicode="fi" horiz-adv-x="621" 
d="M412 762q42 -9 67.5 -31.5t25.5 -57.5q0 -33 -18.5 -51t-53.5 -18q-40 0 -60.5 27.5t-12.5 72.5q-27 24 -71 24q-51 0 -79 -24t-28 -66q0 -30 21.5 -73t21.5 -75v-11h309v-388q0 -12 22.5 -33.5t32.5 -21.5h20v-36h-278v36h20q11 0 33 21.5t22 33.5v280q0 11 -22 33
t-33 22h-124v-335q0 -12 22.5 -33.5t32.5 -21.5h20v-36h-279v36h20q11 0 33 21.5t22 33.5v335h-78v53h78v75q0 217 228 217q40 0 86 -9z" />
    <glyph glyph-name="f_l" unicode="fl" horiz-adv-x="618" 
d="M302 770q71 0 121 -28l110 29v-680q0 -12 22.5 -33.5t32.5 -21.5h20l1 -36h-278v36h20q11 0 33 21.5t22 33.5v335h-179v-335q0 -12 22.5 -33.5t32.5 -21.5h20v-36h-279v36h20q11 0 33 21.5t22 33.5v335h-78v53h78v75q0 106 53.5 161t150.5 55zM406 479v126
q-40 0 -59.5 27t-11.5 72q-28 25 -65 25q-45 0 -67 -24.5t-22 -65.5q0 -30 22 -73.5t22 -75.5v-11h181z" />
    <glyph glyph-name="f_f_i" unicode="ffi" horiz-adv-x="929" 
d="M842 91q0 -12 22.5 -33.5t32.5 -21.5h20v-36h-278v36h20q11 0 33 21.5t22 33.5v280q0 11 -22 33t-33 22h-124v-335q0 -12 22.5 -33.5t32.5 -21.5h20v-36h-279v36h20q11 0 33 21.5t22 33.5v335h-179v-335q0 -12 22.5 -33.5t32.5 -21.5h20v-36h-279v36h20q11 0 33 21.5
t22 33.5v335h-78v53h78v95q0 92 57 144.5t151 52.5q54 0 88.5 -11.5t69.5 -40.5l-1 -1q58 53 171 53q45 0 86 -8q42 -9 67.5 -32t25.5 -58q0 -33 -19 -51t-54 -18q-40 0 -60 27.5t-12 72.5q-26 23 -71 23q-51 0 -79 -23.5t-28 -65.5q0 -30 21.5 -73t21.5 -75v-11h309v-388z
M225 479h181v75q0 26 3 50h-3q-40 0 -60 28t-12 73q-18 23 -54 23q-47 0 -72.5 -22.5t-25.5 -64.5q0 -30 21.5 -74.5t21.5 -76.5v-11z" />
    <glyph glyph-name="f_f_l" unicode="ffl" horiz-adv-x="926" 
d="M597 770q70 0 133 -28q30 7 57.5 14t40.5 11l13 4v-680q0 -12 22.5 -33.5t32.5 -21.5h20v-36h-276v36h20q11 0 32.5 21.5t21.5 33.5v335h-180v-335q0 -12 22.5 -33.5t32.5 -21.5h20v-36h-278v36h20q11 0 33 21.5t22 33.5v335h-179v-335q0 -12 22.5 -33.5t32.5 -21.5h20
v-36h-279v36h20q11 0 33 21.5t22 33.5v335h-78v53h78v95q0 92 56.5 144t150.5 52q81 0 149 -45q50 45 143 45zM714 605q-40 0 -60 27t-12 72q-28 25 -65 25q-45 0 -67 -24.5t-22 -65.5q0 -30 22 -73.5t22 -75.5v-11h182v126zM225 479h181v127q-40 0 -59 27t-11 72
q-8 10 -25.5 16.5t-30.5 6.5q-47 0 -72.5 -22.5t-25.5 -64.5q0 -30 21.5 -74.5t21.5 -76.5v-11z" />
    <glyph glyph-name=".notdef" horiz-adv-x="310" 
 />
    <glyph glyph-name=".null" horiz-adv-x="0" 
 />
    <glyph glyph-name="nonmarkingreturn" horiz-adv-x="350" 
 />
    <glyph glyph-name="space" unicode=" " horiz-adv-x="310" 
 />
    <glyph glyph-name="exclam" unicode="!" horiz-adv-x="292" 
d="M65 666q0 35 23 55t58 20t58 -20t23 -55l-64 -440h-34zM68 75q0 -32 21.5 -53.5t55.5 -21.5t55.5 21.5t21.5 53.5t-21.5 53.5t-55.5 21.5t-55.5 -21.5t-21.5 -53.5z" />
    <glyph glyph-name="quotedbl" unicode="&#x22;" horiz-adv-x="420" 
d="M65 664q0 29 17.5 48t49.5 19t49.5 -19t17.5 -48l-52 -220h-29zM221 664q0 29 17.5 48t49.5 19t49.5 -19t17.5 -48l-53 -220h-29z" />
    <glyph glyph-name="numbersign" unicode="#" horiz-adv-x="660" 
d="M145 250l50 229h-104v64h118l40 185h72l-40 -185h168l40 185h72l-40 -185h109v-64h-123l-50 -229h112v-65h-126l-40 -185h-72l40 185h-168l-40 -185h-72l40 185h-101v65h115zM217 250h168l50 229h-168z" />
    <glyph glyph-name="dollar" unicode="$" horiz-adv-x="621" 
d="M279 821h48v-91q7 -2 31 -8.5t39.5 -9t29.5 -2.5q29 0 49 18h35v-207h-38q0 31 -43 86.5t-103 74.5v-241q35 -17 69 -30q79 -33 122 -80t43 -127q0 -89 -60.5 -150t-173.5 -61v-93h-48v99q-10 2 -46.5 12t-57.5 10q-41 0 -66 -21h-36v229h40q0 -38 49 -99.5t117 -81.5
v245q-35 18 -87 46q-132 69 -132 194q0 87 54 145.5t165 58.5v84zM164 593q0 -65 83 -112q17 -10 32 -17v225q-52 -1 -83.5 -25.5t-31.5 -70.5zM327 42q58 0 93.5 24t35.5 75q0 15 -3.5 28t-8.5 22.5t-14.5 19t-16.5 15.5t-20.5 13.5t-21 11t-23 10t-21.5 9.5v-228z" />
    <glyph glyph-name="percent" unicode="%" horiz-adv-x="780" 
d="M40 567q0 71 48 118.5t111 47.5t111 -47.5t48 -118.5t-48 -118.5t-111 -47.5t-111 47.5t-48 118.5zM673 728l-492 -728h-75l493 728h74zM266 523q5 44 0 88q-5 80 -67 80t-68 -80q-3 -44 0 -88q6 -80 68 -80t67 80zM422 161q0 71 48 118.5t111 47.5t111 -47.5t48 -118.5
t-48 -118.5t-111 -47.5t-111 47.5t-48 118.5zM648 117q5 44 0 88q-5 80 -67 80t-68 -80q-3 -44 0 -88q6 -80 68 -80t67 80z" />
    <glyph glyph-name="ampersand" unicode="&#x26;" horiz-adv-x="833" 
d="M290 700q-56 0 -86.5 -25.5t-30.5 -74.5q0 -83 106 -121q122 -126 305 -285q31 61 31 139q0 50 -30 78.5t-80 30.5v37h272v-37h-28q-11 0 -40 -31.5t-29 -47.5q-1 -108 -65 -197q67 -60 164 -130h41v-36h-129q-88 0 -166 64q-93 -83 -234 -83q-101 0 -173 61t-72 155
q0 70 32 128t83 96q-29 37 -42.5 71t-13.5 81q0 77 49.5 123.5t134.5 46.5q38 0 85.5 -15t58.5 -15q24 0 34 15h38v-193h-38q0 38 -56.5 101.5t-120.5 63.5zM184 393q-46 -49 -46 -144q0 -77 66.5 -137t145.5 -60q83 0 143 38q-172 142 -309 303z" />
    <glyph glyph-name="quotesingle" unicode="'" horiz-adv-x="250" 
d="M54 661q0 30 19 50t52 20t52 -20t19 -50l-56 -217h-30z" />
    <glyph glyph-name="parenleft" unicode="(" horiz-adv-x="380" 
d="M184 282q0 -87 9 -154.5t22 -110t38.5 -81t46 -59.5t57.5 -54l-24 -30q-33 23 -58 43t-67 66t-69 94.5t-48 124.5t-21 161t21 161t48 124.5t69 94.5t67 66t58 43l24 -30q-37 -33 -57.5 -54t-46 -59.5t-38.5 -81t-22 -110t-9 -154.5z" />
    <glyph glyph-name="parenright" unicode=")" horiz-adv-x="380" 
d="M196 282q0 87 -9 154.5t-22 110t-38.5 81t-46 59.5t-57.5 54l24 30q33 -23 58 -43t67 -66t69 -94.5t48 -124.5t21 -161t-21 -161t-48 -124.5t-69 -94.5t-67 -66t-58 -43l-24 30q37 33 57.5 54t46 59.5t38.5 81t22 110t9 154.5z" />
    <glyph glyph-name="asterisk" unicode="*" horiz-adv-x="470" 
d="M440 561l-36 -36l-155 30l133 -89v-50h-56l-86 132l34 -154l-39 -40l-41 40l34 154l-84 -132h-56v50l132 89l-154 -30l-36 36l36 36l154 -30l-132 89v50h56l84 -132l-34 154l41 40l39 -40l-34 -154l86 132h56v-50l-133 -89l155 30z" />
    <glyph glyph-name="plus" unicode="+" horiz-adv-x="640" 
d="M360 328h232v-77h-232v-237h-80v237h-232v77h232v231h80v-231z" />
    <glyph glyph-name="comma" unicode="," horiz-adv-x="274" 
d="M212 73q4 -104 -40.5 -149t-130.5 -47l-11 46q50 -2 84 18.5t35 58.5h-32q-61 14 -61 74q0 34 21.5 55t56.5 21q34 0 55 -21.5t23 -55.5z" />
    <glyph glyph-name="hyphen" unicode="-" horiz-adv-x="340" 
d="M315 330v-93h-290v93h290z" />
    <glyph glyph-name="period" unicode="." horiz-adv-x="274" 
d="M60 75q0 32 21.5 53.5t55.5 21.5t55.5 -21.5t21.5 -53.5t-21.5 -53.5t-55.5 -21.5t-55.5 21.5t-21.5 53.5z" />
    <glyph glyph-name="slash" unicode="/" horiz-adv-x="521" 
d="M491 743l-405 -880l-61 29l404 879z" />
    <glyph glyph-name="zero" unicode="0" horiz-adv-x="600" 
d="M299 741q82 0 146.5 -54t97.5 -137.5t33 -177.5q0 -95 -32.5 -182t-97.5 -145t-146 -58t-146 57.5t-98 142t-33 175.5t32.5 176.5t97 144t146.5 58.5zM300 45q119 0 128 188q2 46 2 137.5t-2 138.5q-5 93 -34 135t-94 42q-122 0 -131 -181q-2 -46 -2 -137.5t2 -138.5
q5 -93 35.5 -138.5t95.5 -45.5z" />
    <glyph glyph-name="one" unicode="1" horiz-adv-x="391" 
d="M130 537q0 12 -18 30t-27 18h-45v35q106 35 226 112h5v-636q0 -12 22 -36t33 -24h35v-36h-321v36h35q11 0 33 24t22 36v441z" />
    <glyph glyph-name="two" unicode="2" horiz-adv-x="550" 
d="M505 109l-26 -109h-449v34q16 42 63.5 104t87 105.5t111.5 117.5q36 38 55.5 74t19.5 83q0 61 -35.5 95.5t-98.5 34.5q-55 0 -91 -26.5t-74 -76.5l-38 34q107 162 249 162q100 0 163 -55t63 -156q0 -42 -13 -77.5t-40.5 -66.5t-47.5 -49t-57 -46q-9 -7 -34.5 -27
t-38 -29.5t-35 -27.5t-35 -29.5t-28 -25t-25 -24.5t-14.5 -19h368z" />
    <glyph glyph-name="three" unicode="3" horiz-adv-x="556" 
d="M146 423l105 35q70 44 70 101q0 46 -28 70t-75 24q-76 0 -165 -73l-33 42q47 49 118.5 84t144.5 35t122.5 -35t49.5 -101q0 -105 -140 -161q47 1 90.5 -12.5t77 -52t33.5 -96.5q0 -61 -32.5 -114t-83 -87.5t-112.5 -59.5t-120 -36t-106 -11l-10 61q44 1 96 14t105 38
t88 71.5t35 104.5q0 78 -65 106.5t-165 5.5v47z" />
    <glyph glyph-name="four" unicode="4" horiz-adv-x="580" 
d="M449 96q0 -12 22 -36t33 -24h35v-36h-319v36h35q11 0 33 24t22 36v90h-292v52q72 96 148 206t116 172l39 63l128 55v-477h109v-71h-109v-90zM313 574q-1 -1 -12 -20t-30.5 -50t-43.5 -68.5t-56 -86t-64 -92.5h206v317z" />
    <glyph glyph-name="five" unicode="5" horiz-adv-x="549" 
d="M467 620h-327l-28 -186q96 80 193 80q92 0 148 -50.5t56 -142.5q0 -77 -45.5 -144t-114.5 -109.5t-145.5 -67t-143.5 -25.5l-10 62q68 4 142.5 34t132 88t57.5 126q0 135 -137 135q-68 0 -153 -61l-42 23l46 346h345z" />
    <glyph glyph-name="six" unicode="6" horiz-adv-x="580" 
d="M469 676q-24 2 -34 2q-118 0 -191.5 -83t-79.5 -195q61 86 167 86q98 0 158.5 -73t60.5 -168q0 -111 -62 -185t-169 -74q-71 0 -127.5 31.5t-90 83t-50.5 111t-17 121.5q0 170 106 287t271 117q30 0 45 -2zM173 261q0 -90 33 -149.5t104 -59.5q58 0 83.5 46.5t25.5 108.5
q0 81 -34 142t-101 61q-57 0 -84 -42.5t-27 -106.5z" />
    <glyph glyph-name="seven" unicode="7" horiz-adv-x="571" 
d="M105 0q19 56 41 110.5t45.5 102.5t46 90.5t48.5 82.5t44.5 69t42.5 60.5t35 46t29 36.5l18 22h-425l26 108h470l20 -34l-45 -79q-76 -133 -150.5 -322t-90.5 -293h-155z" />
    <glyph glyph-name="eight" unicode="8" horiz-adv-x="580" 
d="M194 364q-140 85 -140 194q0 82 62.5 132t162.5 50q93 0 163 -43.5t70 -123.5q0 -102 -131 -158q40 -22 64 -37.5t53 -42t43 -60t14 -75.5q-1 -94 -80 -153.5t-199 -59.5q-98 0 -175.5 49.5t-77.5 139.5q0 116 171 188zM333 442q83 48 83 124q0 58 -43 90t-108 32
q-45 0 -72 -24t-27 -64q0 -45 45.5 -83.5t121.5 -74.5zM438 154q0 29 -19 56.5t-54 51t-61.5 37.5t-64.5 31q-36 -19 -56.5 -33t-40 -45t-19.5 -71q0 -61 47.5 -97.5t115.5 -36.5t110 26t42 81z" />
    <glyph glyph-name="nine" unicode="9" horiz-adv-x="580" 
d="M111 50q24 -2 34 -2q117 0 191 88t79 201q-54 -85 -166 -85q-98 0 -158.5 69.5t-60.5 163.5q0 111 62 183t169 72q73 0 130 -30.5t89.5 -81t49 -109t16.5 -120.5q0 -178 -105 -294t-272 -116q-30 0 -45 2zM407 480q0 89 -32.5 144.5t-104.5 55.5q-58 0 -83.5 -44.5
t-25.5 -106.5q0 -80 33.5 -136.5t100.5 -56.5q58 0 85 40.5t27 103.5z" />
    <glyph glyph-name="colon" unicode=":" horiz-adv-x="274" 
d="M60 404q0 32 21.5 53.5t55.5 21.5t55.5 -21.5t21.5 -53.5t-21.5 -53.5t-55.5 -21.5t-55.5 21.5t-21.5 53.5zM60 75q0 32 21.5 53.5t55.5 21.5t55.5 -21.5t21.5 -53.5t-21.5 -53.5t-55.5 -21.5t-55.5 21.5t-21.5 53.5z" />
    <glyph glyph-name="semicolon" unicode=";" horiz-adv-x="274" 
d="M60 404q0 32 21.5 53.5t55.5 21.5t55.5 -21.5t21.5 -53.5t-21.5 -53.5t-55.5 -21.5t-55.5 21.5t-21.5 53.5zM214 73q4 -104 -40.5 -149t-130.5 -47l-11 46q50 -2 84 18.5t35 58.5h-32q-61 14 -61 74q0 34 21.5 55t56.5 21q34 0 55 -21.5t23 -55.5z" />
    <glyph glyph-name="less" unicode="&#x3c;" horiz-adv-x="640" 
d="M592 86v-86l-544 272v55l544 271v-87l-435 -212z" />
    <glyph glyph-name="equal" unicode="=" horiz-adv-x="640" 
d="M592 414v-77h-544v77h544zM592 242v-77h-544v77h544z" />
    <glyph glyph-name="greater" unicode="&#x3e;" horiz-adv-x="640" 
d="M483 299l-435 212v87l544 -271v-55l-544 -272v86z" />
    <glyph glyph-name="question" unicode="?" horiz-adv-x="448" 
d="M298 586q0 42 -26 66.5t-66 24.5q-90 0 -111 -94l-50 10q42 148 189 148q74 0 126.5 -45t52.5 -128q0 -47 -20.5 -85t-49.5 -62.5t-58.5 -45.5t-50 -43.5t-20.5 -47.5v-56h-44v59q0 45 13 79.5t32 57t38 43.5t32 51t13 68zM120 75q0 -32 21.5 -53.5t55.5 -21.5t55.5 21.5
t21.5 53.5t-21.5 53.5t-55.5 21.5t-55.5 -21.5t-21.5 -53.5z" />
    <glyph glyph-name="at" unicode="@" horiz-adv-x="890" 
d="M528 92q-22 -35 -60 -62.5t-82 -27.5q-56 0 -92 35.5t-36 90.5q0 107 158 139l97 19v54q0 87 -98 87q-104 0 -72 -117h-35l-58 82q68 84 193 84q84 0 135 -36t51 -102v-241q0 -17 10 -27.5t27 -10.5q46 0 77.5 54.5t31.5 140.5q0 160 -84.5 248.5t-230.5 88.5
q-150 0 -244 -91.5t-94 -256.5t95 -259.5t260 -94.5q85 0 217 6l-6 -58q-101 -3 -212 -1q-196 5 -315 115.5t-119 291.5q0 177 121.5 286.5t298.5 109.5q173 0 280.5 -105.5t107.5 -278.5q0 -110 -63.5 -181.5t-150.5 -71.5q-81 0 -108 90zM513 247l-86 -23q-68 -19 -68 -83
q0 -30 16.5 -48t47.5 -18q25 0 50.5 19.5t39.5 44.5v108z" />
    <glyph glyph-name="A" unicode="A" horiz-adv-x="756" 
d="M446 225h-232l-48 -122q2 -14 20.5 -40t29.5 -26h34v-37h-240v37h13q10 1 40.5 26.5t39.5 39.5l245 603l60 35l249 -639q11 -15 38.5 -40t36.5 -25h14v-37h-345v37h35q11 1 32.5 26.5t21.5 38.5zM236 282h190l-89 255z" />
    <glyph glyph-name="B" unicode="B" horiz-adv-x="675" 
d="M333 728q121 0 198 -45.5t77 -134.5t-81 -130l-84 -23q90 -13 148.5 -57.5t58.5 -129.5q0 -98 -82 -153t-225 -55h-322v36h30q11 0 33 24t22 36v536q0 11 -23 35.5t-33 24.5h-30v36h313zM344 405q109 14 114 110q1 24 0 50q-1 53 -40 85t-86 32h-46q-9 0 -21 -12.5
t-12 -21.5v-243h91zM253 83q0 -8 12.5 -20.5t20.5 -12.5h58q65 0 107.5 34t45.5 95q1 28 0 57q-1 57 -44.5 89.5t-96.5 32.5h-103v-275z" />
    <glyph glyph-name="C" unicode="C" horiz-adv-x="713" 
d="M381 691q-88 0 -137 -53t-57 -176q-6 -98 2 -186q9 -96 69 -155.5t157 -59.5q162 0 227 136h61q-37 -93 -114.5 -151.5t-195.5 -58.5q-163 0 -263 109.5t-100 270.5q0 162 91 268t250 106q42 0 102 -16t86 -16q30 0 43 19h40v-249h-43q0 18 -15.5 51.5t-41.5 70
t-69.5 63.5t-91.5 27z" />
    <glyph glyph-name="D" unicode="D" horiz-adv-x="721" 
d="M21 0v36h30q11 0 33 24t22 36v536q0 11 -23 35.5t-33 24.5h-30v36h311q142 0 251 -103t109 -259q0 -158 -106.5 -262t-251.5 -104h-312zM299 682q-11 0 -29 -20t-18 -30v-536q0 -11 16.5 -29t27.5 -18h37q195 0 204 226q4 89 0 179q-9 228 -208 228h-30z" />
    <glyph glyph-name="E" unicode="E" horiz-adv-x="679" 
d="M21 0v36h30q11 0 33 24t22 36v536q0 11 -23 35.5t-33 24.5h-30v36h569v-206h-37q0 15 -55 86.5t-68 71.5h-158q-4 0 -11 -7t-7 -12v-259h126l107 98h4v-248h-4l-107 102h-126v-283q0 -5 6.5 -13t10.5 -8h158q26 0 108.5 82t82.5 101h40l-44 -233h-594z" />
    <glyph glyph-name="F" unicode="F" horiz-adv-x="624" 
d="M253 96q0 -12 22 -36t33 -24h30v-36h-317v36h30q11 0 33 24t22 36v536q0 11 -23 35.5t-33 24.5h-30v36h584v-211h-37q0 15 -55.5 89t-67.5 74h-173q-4 0 -11 -7t-7 -12v-264h146l107 98h4v-249h-4l-107 102h-146v-252z" />
    <glyph glyph-name="G" unicode="G" horiz-adv-x="790" 
d="M188 276q9 -106 67 -167t149 -61q62 0 98 24.5t36 62.5v92q0 10 -24 34.5t-31 24.5h-78v41h365v-39h-34q-7 0 -29 -24t-22 -34v-232h-5l-90 88q-58 -98 -202 -98q-111 0 -193.5 52.5t-123.5 137.5t-41 189q0 158 95.5 266t254.5 108q42 0 102.5 -16t86.5 -16q30 0 43 19
h40v-249h-43q0 16 -15.5 49t-41.5 70t-69.5 64.5t-91.5 27.5q-92 0 -144 -53t-60 -175q-6 -96 1 -186z" />
    <glyph glyph-name="H" unicode="H" horiz-adv-x="820" 
d="M484 36h30q11 0 33 24t22 36v251h-317v-251q0 -12 22 -36t33 -24h30v-36h-316v36h30q11 0 33 24t22 36v536q0 11 -23 35.5t-33 24.5h-30v36h318v-36h-30q-10 0 -33 -24.5t-23 -35.5v-223h317v223q0 11 -22.5 35.5t-33.5 24.5h-30v36h317v-36h-30q-10 0 -33 -24.5
t-23 -35.5v-536q0 -12 22 -36t33 -24h30v-36h-315v36z" />
    <glyph glyph-name="I" unicode="I" horiz-adv-x="359" 
d="M21 36h30q11 0 33 24t22 36v536q0 11 -23 35.5t-33 24.5h-30v36h319v-36h-30q-11 0 -33.5 -24.5t-22.5 -35.5v-536q0 -12 22 -36t33 -24h30v-36h-317v36z" />
    <glyph glyph-name="J" unicode="J" horiz-adv-x="431" 
d="M183 632q0 11 -22.5 35.5t-33.5 24.5h-30v36h319v-36h-30q-10 0 -33 -24.5t-23 -35.5v-529q0 -102 -50 -167t-135 -65q-130 0 -130 121v44h53v-44q0 -56 58 -56q59 0 59 66q0 15 -1 41t-1 43v546z" />
    <glyph glyph-name="K" unicode="K" horiz-adv-x="755" 
d="M21 0v36h30q11 0 33 24t22 36v536q0 11 -23 35.5t-33 24.5h-30v36h318v-36h-29q-11 0 -34 -24.5t-23 -35.5v-273l237 263q8 9 -13 39.5t-32 30.5h-31v36h281v-36h-18q-10 0 -57.5 -32.5t-54.5 -41.5l-174 -184l250 -332q9 -13 43.5 -39t44.5 -26h22v-37h-226l-227 335
l-45 -48v-191q0 -12 21.5 -36t32.5 -24h29v-36h-314z" />
    <glyph glyph-name="L" unicode="L" horiz-adv-x="679" 
d="M339 728v-36h-30q-11 0 -33.5 -24.5t-22.5 -35.5v-561q0 -5 6.5 -13t10.5 -8h158q26 0 108.5 82t82.5 101h40l-44 -233h-594v36h30q11 0 33 24t22 36v536q0 11 -23 35.5t-33 24.5h-30v36h319z" />
    <glyph glyph-name="M" unicode="M" horiz-adv-x="960" 
d="M167 592v-496q0 -10 23 -35t32 -25h36v-36h-238v36h32q8 0 31.5 25t23.5 35v535q0 11 -24 35.5t-33 24.5h-30v37h242l218 -498h6l219 498h235v-37h-30q-9 0 -33 -25t-24 -35v-535q0 -10 23 -35t32 -25h30v-36h-321v36h36q9 0 31.5 25t22.5 35v496l-269 -612z" />
    <glyph glyph-name="N" unicode="N" horiz-adv-x="824" 
d="M718 -11h-5l-546 608v-496q0 -12 24.5 -38.5t35.5 -26.5h40v-36h-246v36h30q11 0 33 24t22 36v536q0 11 -23 35.5t-33 24.5h-30v36h233l406 -456v355q0 11 -25 38t-36 27h-40v36h246v-36h-30q-10 0 -33 -24.5t-23 -35.5v-643z" />
    <glyph glyph-name="O" unicode="O" horiz-adv-x="816" 
d="M411 -13q-162 0 -271.5 107.5t-109.5 267.5q0 162 105 270.5t270 108.5t273 -109t108 -269t-107 -268t-268 -108zM189 241q10 -91 72 -143t157 -52q94 0 147 51.5t64 143.5q14 117 0 249q-10 91 -72 144.5t-157 53.5q-94 0 -147.5 -53t-63.5 -145q-5 -49 -5 -125t5 -124z
" />
    <glyph glyph-name="P" unicode="P" horiz-adv-x="637" 
d="M329 728q80 0 142.5 -20t104 -68.5t41.5 -120.5q0 -111 -83 -163t-208 -42l-73 6v-224q0 -12 22 -36t33 -24h30v-36h-317v36h30q11 0 33 24t22 36v536q0 11 -23 35.5t-33 24.5h-30v36h309zM286 682q-9 0 -21 -12.5t-12 -21.5v-278h65q64 0 103.5 30t43.5 85q3 36 0 72
q-4 58 -42.5 91.5t-94.5 33.5h-42z" />
    <glyph glyph-name="Q" unicode="Q" horiz-adv-x="826" 
d="M413 -10q-163 0 -273 106.5t-110 265.5q0 162 105 270.5t270 108.5t273 -109t108 -269q0 -131 -76 -229.5t-198 -130.5l100 -3q7 -10 20 -26t53.5 -55.5t82.5 -66.5v-35h-165l-124 146q-22 27 -66 27zM189 244q10 -91 72 -144.5t157 -53.5q94 0 147 51.5t64 143.5
q14 117 0 249q-10 91 -72 144.5t-157 53.5q-94 0 -147.5 -52t-63.5 -143q-5 -49 -5 -125t5 -124z" />
    <glyph glyph-name="R" unicode="R" horiz-adv-x="766" 
d="M761 0h-209q-140 227 -223 336h-76v-240q0 -12 22 -36t33 -24h30v-36h-317v36h30q11 0 33 24t22 36v536q0 11 -23 35.5t-33 24.5h-30v36h307q126 0 205.5 -43t79.5 -140q0 -143 -196 -180l80 -18q66 -103 171 -245q11 -15 39.5 -40t37.5 -25h17v-37zM286 682
q-9 0 -21 -12.5t-12 -21.5v-261h62q65 0 104 28.5t43 83.5q3 36 0 71q-5 56 -42 84t-95 28h-39z" />
    <glyph glyph-name="S" unicode="S" horiz-adv-x="598" 
d="M509 503h-39q-1 21 -28.5 64t-77.5 83t-100 40q-55 0 -84 -24.5t-29 -69.5q0 -32 26 -60.5t60 -45.5q89 -45 178 -81q148 -60 148 -203q0 -97 -66.5 -157.5t-170.5 -60.5q-41 0 -99.5 18.5t-86.5 18.5q-37 0 -54 -25h-37v236h39q0 -15 21 -46.5t53 -64t77.5 -57
t87.5 -24.5q58 0 91.5 24.5t33.5 72.5q0 71 -96 111q-85 35 -179 86q-137 73 -137 198q0 90 61.5 147.5t160.5 57.5q35 0 85 -15.5t76 -15.5q38 0 50 18h36v-225z" />
    <glyph glyph-name="T" unicode="T" horiz-adv-x="751" 
d="M467 728l254 5l10 -243h-37q0 16 -55.5 102.5t-67.5 86.5h-104q-4 0 -11 -7t-7 -12v-559q0 -12 24.5 -38.5t35.5 -26.5h30v-36h-327v36h30q11 0 35.5 26.5t24.5 38.5v559q0 5 -7 12t-11 7h-104q-12 0 -67.5 -86.5t-55.5 -102.5h-37l11 243q16 -5 253 -5h183z" />
    <glyph glyph-name="U" unicode="U" horiz-adv-x="775" 
d="M248 244q0 -90 47 -139t140 -49q89 0 134.5 49.5t45.5 137.5v384q0 11 -25 38t-36 27h-40v36h246v-36h-30q-10 0 -33 -24.5t-23 -35.5v-388q0 -122 -72.5 -189t-202.5 -67q-131 0 -214.5 68t-83.5 188v388q0 11 -23 35.5t-33 24.5h-30v36h334v-36h-40q-11 0 -36 -27
t-25 -38v-383z" />
    <glyph glyph-name="V" unicode="V" horiz-adv-x="730" 
d="M419 194l148 431q-2 14 -21.5 40t-30.5 26h-34v37h244v-37h-13q-10 -1 -40.5 -26.5t-39.5 -39.5l-221 -601l-60 -35l-257 637q-11 15 -38.5 40t-36.5 25h-14v37h345v-37h-35q-11 -1 -32.5 -26.5t-21.5 -38.5z" />
    <glyph glyph-name="W" unicode="W" horiz-adv-x="1063" 
d="M782 29l-62 -41l-190 542l-174 -501l-61 -41l-196 638q-11 15 -38.5 40t-36.5 25h-14v37h340v-37h-35q-11 -1 -32.5 -26.5t-21.5 -38.5l103 -380l127 355l121 140l178 -496l105 380q-2 14 -21.5 40t-30.5 26h-34v37h244v-37h-13q-10 -1 -40.5 -26.5t-39.5 -39.5z" />
    <glyph glyph-name="X" unicode="X" horiz-adv-x="751" 
d="M113 626q-11 15 -39.5 40t-37.5 25h-19v37h357v-37h-35q-11 -1 -32.5 -26.5t-21.5 -38.5l115 -163l128 162q-2 14 -21.5 40t-30.5 26h-34v37h263v-37h-18q-10 -1 -44 -26.5t-44 -39.5l-167 -208l223 -315q11 -15 39.5 -40t37.5 -25h14v-37h-359v37h35q11 1 32.5 26.5
t21.5 38.5l-140 201l-150 -200q2 -14 21.5 -40t30.5 -26h34v-37h-267v37h13q10 1 42 26.5t43 39.5l202 246z" />
    <glyph glyph-name="Y" unicode="Y" horiz-adv-x="695" 
d="M277 351l-181 275q-11 15 -39.5 40t-37.5 25h-14v37h348v-37h-35q-11 -1 -32.5 -26.5t-21.5 -38.5l133 -220l133 219q-2 14 -21.5 40t-30.5 26h-34v37h246v-37h-13q-10 -1 -40.5 -26.5t-39.5 -39.5l-173 -273v-251q0 -12 24.5 -38.5t35.5 -26.5h30v-36h-327v36h30
q11 0 35.5 26.5t24.5 38.5v250z" />
    <glyph glyph-name="Z" unicode="Z" horiz-adv-x="644" 
d="M224 679q-14 0 -76 -74.5t-62 -88.5h-39l19 212h563l-437 -677h182q25 0 113.5 92t88.5 108h43l-31 -251h-557l-11 41l414 638h-210z" />
    <glyph glyph-name="bracketleft" unicode="[" horiz-adv-x="358" 
d="M348 813v-42h-91q-9 0 -26 -17.5t-17 -26.5v-847q0 -9 17 -26.5t26 -17.5h91v-42h-246v1019h246z" />
    <glyph glyph-name="backslash" unicode="\" horiz-adv-x="521" 
d="M92 771l404 -879l-61 -29l-405 880z" />
    <glyph glyph-name="bracketright" unicode="]" horiz-adv-x="358" 
d="M256 813v-1019h-246v42h91q9 0 26 17.5t17 26.5v847q0 9 -17 26.5t-26 17.5h-91v42h246z" />
    <glyph glyph-name="asciicircum" unicode="^" horiz-adv-x="640" 
d="M320 619l-212 -435h-87l271 544h55l272 -544h-86z" />
    <glyph glyph-name="underscore" unicode="_" horiz-adv-x="560" 
d="M560 0v-71h-560v71h560z" />
    <glyph glyph-name="grave" unicode="`" horiz-adv-x="500" 
d="M250 713l49 -176h-41l-158 176h150z" />
    <glyph glyph-name="a" unicode="a" horiz-adv-x="515" 
d="M314 77q-23 -30 -63 -58.5t-79 -28.5q-60 0 -99 37.5t-39 94.5q0 110 171 146l101 20l1 57q1 46 -25.5 69t-78.5 23q-54 0 -76 -31t-5 -92h-37l-60 86q73 90 208 90q89 0 144 -39t55 -108v-252q0 -12 21 -33.5t32 -21.5h20v-36h-183zM307 247l-90 -24q-77 -21 -77 -87
q0 -31 19.5 -50.5t52.5 -19.5q26 0 53 22.5t42 49.5v109z" />
    <glyph glyph-name="b" unicode="b" horiz-adv-x="588" 
d="M75 642q0 11 -21.5 30.5t-31.5 19.5h-22v36q46 8 96.5 18.5t78.5 17.5l28 7v-346q56 65 146 65q96 0 155 -64.5t59 -179.5q0 -116 -63.5 -186.5t-158.5 -70.5q-124 0 -166 94l-95 -88h-5v647zM322 433q-49 0 -78.5 -35.5t-41.5 -91.5v-127q0 -55 33 -90.5t83 -35.5
q49 0 78 32.5t34 88.5q6 68 0 135q-5 57 -33.5 90.5t-74.5 33.5z" />
    <glyph glyph-name="c" unicode="c" horiz-adv-x="485" 
d="M255 444q-57 0 -87 -51.5t-30 -136.5q0 -76 41 -124.5t111 -48.5q61 0 93.5 23.5t56.5 70.5h37q-51 -188 -224 -188q-99 0 -163.5 69.5t-64.5 169.5q0 118 68.5 190.5t173.5 71.5q94 -1 171 -72l-73 -114l-37 -3q26 143 -73 143z" />
    <glyph glyph-name="d" unicode="d" horiz-adv-x="601" 
d="M385 642q0 11 -21.5 30.5t-31.5 19.5h-22v36q46 8 96.5 18.5t78.5 17.5l28 7v-680q0 -12 21 -33.5t32 -21.5h20v-36h-184l-10 67q-51 -78 -145 -78q-95 0 -158.5 70t-63.5 186q0 114 64 179.5t159 65.5q86 0 137 -59v211zM266 433q-46 0 -74.5 -33.5t-33.5 -90.5
q-6 -67 0 -135q5 -56 34 -89t78 -33q51 0 83.5 34t32.5 88v130q0 55 -34 92t-86 37z" />
    <glyph glyph-name="e" unicode="e" horiz-adv-x="490" 
d="M149 254q2 -69 42 -120t106 -51q54 0 84.5 21t56.5 65h37q-59 -180 -216 -180q-111 0 -172.5 71.5t-61.5 177.5q0 108 66 180.5t168 71.5q87 -1 135 -54t54 -122l3 -36zM332 314q17 131 -76 131q-59 0 -85 -42.5t-24 -103.5z" />
    <glyph glyph-name="f" unicode="f" horiz-adv-x="357" 
d="M228 91q0 -12 22.5 -33.5t32.5 -21.5h30v-36h-290v36h20q11 0 33 21.5t22 33.5v335h-78v53h78v114q0 91 44.5 134.5t119.5 43.5q38 0 61.5 -20t23.5 -51q0 -28 -17.5 -45.5t-48.5 -17.5q-35 0 -54 24t-17 60q-23 -4 -38 -25t-15 -46q0 -36 34.5 -85t34.5 -75v-11h114v-53
h-112v-335z" />
    <glyph glyph-name="g" unicode="g" horiz-adv-x="580" 
d="M490 303q0 -85 -60 -133t-159 -48h-62q-55 -4 -55 -43q0 -37 50 -41q59 -4 188 -6q132 -2 132 -122q0 -72 -66 -106t-177 -34q-125 0 -193 24t-68 84q0 38 34.5 65t75.5 36q-88 19 -88 77q0 72 146 94q-51 10 -96.5 52t-45.5 109q0 78 64.5 128.5t157.5 50.5
q99 0 163 -56q1 3 3.5 9.5t11 23t18.5 31t28 31t38 26.5h35v-133h-122q47 -50 47 -119zM269 445q-85 0 -93 -96q-3 -42 0 -84q3 -43 26.5 -69.5t67.5 -26.5q85 0 93 97q3 42 0 84q-7 95 -94 95zM395 -74q-233 0 -233 31q-64 -28 -64 -74q0 -38 40 -56.5t142 -18.5
q175 0 175 67q0 24 -16 37.5t-44 13.5z" />
    <glyph glyph-name="h" unicode="h" horiz-adv-x="611" 
d="M90 642q0 11 -21.5 30.5t-31.5 19.5h-22v36q46 8 96.5 18.5t78.5 17.5l28 7v-389q30 34 47.5 51t54.5 37t76 20q57 0 96 -42.5t39 -99.5v-257q0 -12 20 -33.5t30 -21.5h20v-36h-271v36h20q11 0 32 21.5t21 33.5v245q0 30 -15 47t-42 17q-36 0 -82 -31t-46 -54v-224
q0 -12 20 -33.5t30 -21.5h20v-36h-271v36h20q11 0 32 21.5t21 33.5v551z" />
    <glyph glyph-name="i" unicode="i" horiz-adv-x="313" 
d="M81 650q0 33 21 53t54 20t53.5 -20t20.5 -53t-20.5 -53.5t-53.5 -20.5t-54 20.5t-21 53.5zM223 91q0 -12 22.5 -33.5t32.5 -21.5h20v-36h-278v36h20q11 0 33 21.5t22 33.5v297q0 11 -22 33t-33 22h-20v36h203v-388z" />
    <glyph glyph-name="j" unicode="j" horiz-adv-x="321" 
d="M93 650q0 33 21 53t54 20t53.5 -20t20.5 -53t-20.5 -53.5t-53.5 -20.5t-54 20.5t-21 53.5zM114 -134q0 22 -2 64t-2 70v388q0 11 -22 33t-33 22h-20v36h203v-506q0 -88 -44.5 -145t-118.5 -57q-48 0 -74 24.5t-26 70.5v56h44v-56q0 -47 46 -47q49 0 49 47z" />
    <glyph glyph-name="k" unicode="k" horiz-adv-x="593" 
d="M340 292l163 -187q58 -69 69 -69h21v-36h-176q-29 32 -166 214l-33 -30v-93q0 -12 20 -33.5t30 -21.5h15v-36h-268v36h20q11 0 33 21.5t22 33.5v551q0 11 -21.5 30.5t-31.5 19.5h-22v36q46 8 96.5 18.5t78.5 17.5l28 7v-535l137 134q10 11 -3 42.5t-26 31.5h-23v35h257
v-35h-21q-8 0 -53.5 -31.5t-59.5 -44.5z" />
    <glyph glyph-name="l" unicode="l" horiz-adv-x="303" 
d="M218 91q0 -12 22.5 -33.5t32.5 -21.5h20v-36h-278v36h20q11 0 33 21.5t22 33.5v551q0 11 -21.5 30.5t-31.5 19.5h-22v36q46 8 96.5 18.5t78.5 17.5l28 7v-680z" />
    <glyph glyph-name="m" unicode="m" horiz-adv-x="887" 
d="M15 479h181l17 -97q49 59 75 77q42 31 94 31q48 0 83.5 -29.5t45.5 -74.5q20 22 26.5 29.5t27 26t35 26t37 15t46.5 7.5q57 0 95 -42t38 -100v-257q0 -12 20 -33.5t30 -21.5h20v-36h-267v36h20q11 0 31 21.5t20 33.5v246q0 30 -15 47t-42 17q-35 0 -75.5 -29t-42.5 -54
v-227q0 -12 19 -33.5t29 -21.5h20v-36h-265v36h20q11 0 31 21.5t20 33.5v246q0 30 -15 47t-42 17q-36 0 -77 -30.5t-41 -54.5v-225q0 -12 19 -33.5t29 -21.5h20v-36h-267v36h20q11 0 32 21.5t21 33.5v297q0 12 -21 33.5t-32 21.5h-20v36z" />
    <glyph glyph-name="n" unicode="n" horiz-adv-x="609" 
d="M15 479h183l17 -97q30 33 47.5 50.5t55 37.5t76.5 20q57 0 96 -42.5t39 -99.5v-257q0 -12 20 -33.5t30 -21.5h20v-36h-271v36h20q11 0 32 21.5t21 33.5v245q0 30 -15 47t-42 17q-36 0 -82 -31t-46 -54v-224q0 -12 20 -33.5t30 -21.5h20v-36h-271v36h20q11 0 32 21.5
t21 33.5v297q0 12 -21 33.5t-32 21.5h-20v36z" />
    <glyph glyph-name="o" unicode="o" horiz-adv-x="553" 
d="M278 -12q-103 0 -178 69t-75 183t74.5 182.5t178.5 68.5q103 0 176.5 -68t73.5 -183t-73.5 -183.5t-176.5 -68.5zM279 43q105 0 118 120q9 78 0 158q-13 122 -118 122q-107 0 -120 -121q-9 -78 0 -158q13 -121 120 -121z" />
    <glyph glyph-name="p" unicode="p" horiz-adv-x="603" 
d="M90 388q0 12 -21 33.5t-32 21.5h-20v36h182l12 -83q49 94 162 94q89 0 147 -67t58 -177q0 -116 -63.5 -186.5t-158.5 -70.5q-89 0 -138 74v-201q0 -12 22.5 -33.5t32.5 -21.5h20v-36h-278v36h20q11 0 33 21.5t22 33.5v526zM339 429q-50 0 -81.5 -38t-40.5 -96v-121
q0 -54 32.5 -88t83.5 -34q49 0 78 33t34 89q6 67 0 133q-5 57 -32.5 89.5t-73.5 32.5z" />
    <glyph glyph-name="q" unicode="q" horiz-adv-x="588" 
d="M513 -138q0 -12 22 -33.5t33 -21.5h20v-36h-278v36h20q10 0 32.5 21.5t22.5 33.5v199q-47 -72 -138 -72q-95 0 -158.5 70.5t-63.5 186.5q0 110 59.5 177t149.5 67q119 0 166 -90l108 82h5v-620zM265 427q-46 0 -74 -31.5t-33 -88.5q-6 -66 0 -133q5 -56 34 -89t78 -33
q51 0 83.5 34t32.5 88v120q-10 58 -40.5 95.5t-80.5 37.5z" />
    <glyph glyph-name="r" unicode="r" horiz-adv-x="442" 
d="M90 388q0 12 -21 33.5t-32 21.5h-20v36h174l19 -106q32 60 64 88.5t80 28.5q38 0 68 -11v-125h-32q-21 37 -66 37q-33 0 -59 -16t-36.5 -31.5t-10.5 -24.5v-228q0 -12 22.5 -33.5t32.5 -21.5h20v-36h-278v36h20q11 0 33 21.5t22 33.5v297z" />
    <glyph glyph-name="s" unicode="s" horiz-adv-x="433" 
d="M69 166q0 -31 54 -79t120 -48q34 0 53.5 14t19.5 40q0 45 -71 71q-50 19 -105 45q-105 49 -105 139q0 66 43 104t115 38q29 0 70 -12t54 -12q19 0 27 13h30v-149h-32q0 28 -48 72t-106 44q-32 0 -49.5 -14.5t-17.5 -39.5q0 -16 12 -29.5t24 -20t36 -17.5q55 -24 102 -43
q48 -19 80.5 -57t32.5 -89q0 -68 -46 -107.5t-123 -39.5q-34 0 -81.5 14t-59.5 14q-18 0 -31 -17h-30v166h32z" />
    <glyph glyph-name="t" unicode="t" horiz-adv-x="371" 
d="M216 115q0 -21 12.5 -33t33.5 -12q40 0 77 28l22 -31q-24 -25 -68.5 -51.5t-86.5 -26.5q-52 0 -85 29.5t-33 81.5v326h-73v36q94 63 166 149h32v-132h132v-53h-129v-311z" />
    <glyph glyph-name="u" unicode="u" horiz-adv-x="609" 
d="M208 143q0 -30 15 -47t42 -17q36 0 82 33t46 57v219q0 12 -20 33.5t-30 21.5h-25v36h204l-1 -388q0 -12 21 -33.5t32 -21.5h20v-36h-183l-17 97q-30 -33 -47.5 -50.5t-55 -37.5t-76.5 -20q-57 0 -96 42.5t-39 99.5v257q0 12 -20 33.5t-30 21.5h-20v36h198v-336z" />
    <glyph glyph-name="v" unicode="v" horiz-adv-x="546" 
d="M309 20l-44 -31l-188 395q-8 14 -28.5 36.5t-28.5 22.5h-20v36h281v-36h-27q-9 0 -22 -22t-13 -35l100 -231l100 230q0 13 -13 35.5t-22 22.5h-29v36h191v-36h-20q-8 0 -27.5 -22t-27.5 -36z" />
    <glyph glyph-name="w" unicode="w" horiz-adv-x="774" 
d="M647 385q-1 13 -13 35.5t-21 22.5h-35v36h196v-36h-20q-8 0 -27.5 -22t-27.5 -36l-140 -363l-47 -33l-124 334l-122 -301l-47 -33l-145 395q-8 15 -27.5 37t-26.5 22h-20v36h276v-36h-32q-9 0 -21.5 -21.5t-13.5 -35.5l66 -206l87 218l87 81l124 -298z" />
    <glyph glyph-name="x" unicode="x" horiz-adv-x="571" 
d="M481 96q9 -12 36.5 -36t36.5 -24h12v-36h-279v36h20q10 0 18.5 26.5t1.5 34.5l-72 92l-74 -92q-8 -9 1 -35t19 -26h20v-36h-217v36h15q9 1 46 26.5t47 35.5l115 128l-122 158q-9 12 -36.5 36t-36.5 24h-15v35h267v-35h-21q-10 0 -16 -26.5t1 -35.5l60 -74l57 74
q7 10 1 36t-14 26h-21v35h201v-35h-13q-9 -1 -46.5 -27t-46.5 -36l-91 -106z" />
    <glyph glyph-name="y" unicode="y" horiz-adv-x="552" 
d="M78 384q-7 12 -31.5 35.5t-32.5 23.5h-14v36h288v-36h-25q-10 0 -26 -22t-16 -35l101 -221l100 221q1 14 -15.5 35.5t-26.5 21.5h-25v36h197v-36h-15q-8 0 -28.5 -21.5t-29.5 -35.5l-171 -364l-128 -265l-57 27l134 252z" />
    <glyph glyph-name="z" unicode="z" horiz-adv-x="473" 
d="M297 439h-139q-13 0 -49 -48t-36 -63h-31l15 151h399l-290 -434h128q22 0 69 56t48 72h31l-15 -173h-396l-11 36z" />
    <glyph glyph-name="braceleft" unicode="{" horiz-adv-x="349" 
d="M50 333q65 11 90 31.5t25 64.5q0 25 -19.5 97.5t-19.5 113.5q0 60 34.5 89.5t110.5 42.5l8 -39q-72 -7 -72 -64q0 -29 33 -106.5t33 -122.5q0 -25 -9 -44.5t-20.5 -31t-37 -22t-43 -15t-53.5 -13.5q36 -9 53.5 -13.5t43 -15t37 -22t20.5 -31t9 -44.5q0 -45 -33 -122.5
t-33 -106.5q0 -57 72 -64l-8 -39q-76 13 -110.5 42.5t-34.5 89.5q0 41 19.5 113.5t19.5 97.5q0 44 -25 64.5t-90 31.5v38z" />
    <glyph glyph-name="bar" unicode="|" horiz-adv-x="270" 
d="M100 771h70v-977h-70v977z" />
    <glyph glyph-name="braceright" unicode="}" horiz-adv-x="349" 
d="M299 295q-65 -11 -90 -31.5t-25 -64.5q0 -25 19.5 -97.5t19.5 -113.5q0 -60 -34.5 -89.5t-110.5 -42.5l-8 39q72 7 72 64q0 29 -33 106.5t-33 122.5q0 25 9 44.5t20.5 31t37 22t43 15t53.5 13.5q-36 9 -53.5 13.5t-43 15t-37 22t-20.5 31t-9 44.5q0 45 33 122.5t33 106.5
q0 57 -72 64l8 39q76 -13 110.5 -42.5t34.5 -89.5q0 -41 -19.5 -113.5t-19.5 -97.5q0 -44 25 -64.5t90 -31.5v-38z" />
    <glyph glyph-name="asciitilde" unicode="~" horiz-adv-x="640" 
d="M185 371q54 0 153.5 -34t130.5 -34q36 0 54 16t17 51l45 -8q2 -153 -130 -153q-41 0 -142 34t-142 34q-36 0 -54 -16t-17 -51l-45 8q-1 64 29 108.5t101 44.5z" />
    <glyph glyph-name="uni00A0" unicode="&#xa0;" horiz-adv-x="310" 
 />
    <glyph glyph-name="exclamdown" unicode="&#xa1;" horiz-adv-x="292" 
d="M68 404q0 32 21.5 53.5t55.5 21.5t55.5 -21.5t21.5 -53.5t-21.5 -53.5t-55.5 -21.5t-55.5 21.5t-21.5 53.5zM65 -187q0 -35 23 -55t58 -20t58 20t23 55l-64 440h-34z" />
    <glyph glyph-name="cent" unicode="&#xa2;" horiz-adv-x="560" 
d="M260 782h48v-145q50 -1 96.5 -24.5t72.5 -47.5l-73 -114l-37 -3q15 62 -1.5 99.5t-57.5 43.5v-362h17q57 0 91 24.5t57 71.5h37q-22 -86 -73.5 -136t-128.5 -56v-154h-48v155q-91 11 -150.5 78.5t-59.5 164.5q0 105 57.5 174t152.5 83v148zM162 405q0 -131 98 -166v350
q-45 -13 -71.5 -63t-26.5 -121z" />
    <glyph glyph-name="sterling" unicode="&#xa3;" horiz-adv-x="630" 
d="M177 560q0 85 47 133t131 48q78 0 119.5 -39t41.5 -110v-32h-53v31q0 80 -77 80q-37 0 -57.5 -20t-20.5 -58v-246h188v-47h-191q-25 -135 -158 -195h342q10 0 32.5 23t31.5 38h41l-56 -166h-506l-7 37q141 100 152 263h-79v47h79v213z" />
    <glyph glyph-name="currency" unicode="&#xa4;" horiz-adv-x="620" 
d="M76 307q0 73 46 137l-48 49l48 49l48 -49q63 47 140 47q76 0 139 -47l47 47l47 -47l-47 -47q48 -65 48 -139q0 -75 -48 -140l50 -49l-49 -48l-51 49q-59 -45 -136 -45q-78 0 -140 46l-47 -47l-47 47l47 47q-47 63 -47 140zM248 197l-34 -34q44 -28 96 -28t93 27l-33 35
l48 48l35 -35q29 43 29 97q0 53 -29 96l-35 -35l-47 47l35 35q-43 29 -96 29q-54 0 -97 -29l35 -35l-48 -48l-35 33q-27 -41 -27 -93t28 -96l35 34z" />
    <glyph glyph-name="yen" unicode="&#xa5;" horiz-adv-x="690" 
d="M423 254v-153q0 -12 24.5 -38.5t35.5 -26.5h30v-36h-325v36h30q11 0 35.5 26.5t24.5 38.5v153h-174v47h174v45h-174v47h151l-149 233q-11 15 -39.5 40t-37.5 25h-14v37h343v-37h-35q-11 -1 -32.5 -26.5t-21.5 -38.5l128 -233l128 232q-2 14 -21.5 40t-30.5 26h-34v37h236
v-37h-13q-10 -1 -40.5 -26.5t-39.5 -39.5l-136 -232h146v-47h-169v-45h169v-47h-169z" />
    <glyph glyph-name="brokenbar" unicode="&#xa6;" horiz-adv-x="270" 
d="M100 771h70v-371h-70v371zM100 164h70v-370h-70v370z" />
    <glyph glyph-name="section" unicode="&#xa7;" horiz-adv-x="600" 
d="M154 451q-83 53 -83 145q0 84 53 134t142 50q33 0 74.5 -13t64.5 -13q27 0 44 17h35v-221h-37q0 23 -20.5 64t-63.5 79t-91 38q-100 0 -100 -87q0 -69 90 -109q81 -36 148 -59q130 -46 130 -166q0 -90 -91 -148q88 -56 88 -150q0 -86 -59 -135t-151 -49q-33 0 -81 13
t-71 13q-27 0 -44 -17h-35v224h37q0 -16 13.5 -45.5t36.5 -61t60.5 -54.5t77.5 -23q48 0 78 23t30 67q0 68 -93 110q-92 41 -145 59q-131 46 -131 164q0 91 94 151zM191 429q-41 -31 -41 -78q0 -82 89 -107q142 -41 173 -60q39 30 39 77q0 82 -89 107q-137 40 -171 61z" />
    <glyph glyph-name="dieresis" unicode="&#xa8;" horiz-adv-x="500" 
d="M221 616q0 -27 -18 -44.5t-45 -17.5t-45 17.5t-18 44.5t18 44.5t45 17.5t45 -17.5t18 -44.5zM405 616q0 -27 -18 -44.5t-45 -17.5t-45 17.5t-18 44.5t18 44.5t45 17.5t45 -17.5t18 -44.5z" />
    <glyph glyph-name="copyright" unicode="&#xa9;" horiz-adv-x="824" 
d="M412 741q158 0 262.5 -104.5t104.5 -272.5t-104 -271.5t-263 -103.5t-263 103.5t-104 271.5t104.5 272.5t262.5 104.5zM412 40q139 0 224.5 87t85.5 237t-85.5 238.5t-224.5 88.5t-224.5 -88.5t-85.5 -238.5t85.5 -237t224.5 -87zM422 553q-48 0 -81.5 -34t-37.5 -104
q-3 -52 1 -101q5 -57 40 -92t94 -35q54 0 84 22t50 65h43q-57 -138 -194 -138q-100 0 -161 63t-61 164t59.5 164.5t156.5 63.5q25 0 58 -9.5t48 -9.5q25 0 32 13h29v-161h-35q0 33 -35 81t-90 48z" />
    <glyph glyph-name="ordfeminine" unicode="&#xaa;" horiz-adv-x="430" 
d="M252 445q-15 -21 -43 -41t-56 -20q-42 0 -69.5 26t-27.5 66q0 76 120 103l71 14v39q0 65 -72 65q-80 0 -57 -86h-26l-42 60q51 63 146 63q62 0 100.5 -27t38.5 -76v-176q0 -8 14.5 -23.5t22.5 -15.5h14v-25h-128zM247 564l-63 -17q-54 -15 -54 -61q0 -22 14 -35.5
t37 -13.5q18 0 37 16t29 35v76z" />
    <glyph glyph-name="guillemotleft" unicode="&#xab;" horiz-adv-x="580" 
d="M322 156v-92l-277 248l277 249v-92l-164 -157zM520 156v-92l-277 248l277 249v-92l-164 -157z" />
    <glyph glyph-name="logicalnot" unicode="&#xac;" horiz-adv-x="640" 
d="M519 251h-471v77h544v-270h-73v193z" />
    <glyph glyph-name="uni00AD" unicode="&#xad;" horiz-adv-x="340" 
d="M315 330v-93h-290v93h290z" />
    <glyph glyph-name="registered" unicode="&#xae;" horiz-adv-x="824" 
d="M412 741q158 0 262.5 -104.5t104.5 -272.5t-104 -271.5t-263 -103.5t-263 103.5t-104 271.5t104.5 272.5t262.5 104.5zM412 40q139 0 224.5 87t85.5 237t-85.5 238.5t-224.5 88.5t-224.5 -88.5t-85.5 -238.5t85.5 -237t224.5 -87zM364 169h-149v28h21q7 0 19.5 14
t12.5 21v289q0 7 -13.5 20.5t-19.5 13.5h-19v28h203q70 0 117.5 -28.5t47.5 -85.5q0 -78 -110 -102l45 -9q45 -67 119 -164v-25h-109q-13 22 -55 87t-59 94h-51v-181zM411 384q27 0 49.5 16t23.5 46q1 22 0 42q-1 31 -23.5 47.5t-51.5 16.5h-22q-6 0 -14.5 -8.5t-8.5 -14.5
v-145h47z" />
    <glyph glyph-name="macron" unicode="&#xaf;" horiz-adv-x="500" 
d="M392 654v-81h-284v81h284z" />
    <glyph glyph-name="degree" unicode="&#xb0;" horiz-adv-x="403" 
d="M50 595q0 62 42.5 104t108.5 42t109 -42t43 -104t-43 -103.5t-109 -41.5t-108.5 41.5t-42.5 103.5zM111 595q0 -41 24 -65.5t66 -24.5t66.5 25t24.5 65t-24.5 65.5t-66.5 25.5t-66 -25t-24 -66z" />
    <glyph glyph-name="plusminus" unicode="&#xb1;" horiz-adv-x="640" 
d="M360 479h232v-75h-232v-238h-80v238h-232v75h232v232h80v-232zM592 77v-77h-544v77h544z" />
    <glyph glyph-name="two.sups" unicode="&#xb2;" 
d="M338 599l-26 -66h-261v33q9 39 43 74.5t107 91.5q45 35 45 76q0 31 -18.5 48.5t-50.5 17.5q-52 0 -94 -54l-29 23q63 89 148 89q61 0 95 -30t34 -84q0 -35 -18.5 -63.5t-36.5 -41.5t-45 -28q-3 -2 -30 -16t-38 -20.5t-28.5 -21t-27.5 -28.5h231z" />
    <glyph glyph-name="three.sups" unicode="&#xb3;" 
d="M124 764l57 19q21 13 28.5 23t7.5 28q0 20 -13.5 32t-35.5 12q-40 0 -93 -39l-19 29q84 64 156 64q38 0 61.5 -19t23.5 -54q0 -56 -75 -87q107 0 107 -82q0 -38 -28.5 -71.5t-69.5 -53.5t-80 -31.5t-67 -12.5l-9 39q30 4 62 14t65.5 37.5t33.5 64.5q0 68 -112 56v32z" />
    <glyph glyph-name="acute" unicode="&#xb4;" horiz-adv-x="500" 
d="M452 713l-194 -176h-41l79 176h156z" />
    <glyph glyph-name="uni00B5" unicode="&#xb5;" horiz-adv-x="609" 
d="M208 142q0 -29 15 -46t42 -17q36 0 82 33t46 57v219q0 12 -20 33.5t-30 21.5h-25v36h204l-1 -388q0 -12 21 -33.5t32 -21.5h20v-36h-183l-17 97q-29 -33 -44.5 -48t-50 -32t-73.5 -17h-19v-206h-127v594q0 12 -20 33.5t-30 21.5h-20v36h198v-337z" />
    <glyph glyph-name="paragraph" unicode="&#xb6;" horiz-adv-x="503" 
d="M464 692h-30q-10 0 -33 -24.5t-23 -35.5v-838h-71v887h-58v-887h-68v646h-37q-62 0 -103 38t-41 106t41 106t103 38h320v-36z" />
    <glyph glyph-name="periodcentered" unicode="&#xb7;" horiz-adv-x="282" 
d="M60 342q0 32 21.5 53.5t55.5 21.5t55.5 -21.5t21.5 -53.5t-21.5 -53.5t-55.5 -21.5t-55.5 21.5t-21.5 53.5z" />
    <glyph glyph-name="cedilla" unicode="&#xb8;" 
d="M171 15h67l-73 -88q25 16 53 16q33 0 53 -19t20 -52q0 -41 -30 -65t-76 -24q-63 0 -97 47l28 27q21 -32 59 -32q51 0 51 40q0 38 -41 38q-13 0 -26 -6l-28 20z" />
    <glyph glyph-name="one.sups" unicode="&#xb9;" horiz-adv-x="392" 
d="M247 601q0 -7 11.5 -20t17.5 -13h35v-35h-222v35h34q6 0 18 13t12 20v191q0 7 -10 17t-15 10h-42v28q36 13 75.5 32.5t60.5 32.5l22 14h3v-325z" />
    <glyph glyph-name="ordmasculine" unicode="&#xba;" horiz-adv-x="430" 
d="M216 383q-73 0 -125.5 48.5t-52.5 128.5t52.5 128t125.5 48q72 0 123.5 -48t51.5 -128t-51.5 -128.5t-123.5 -48.5zM216 422q73 0 83 84q5 55 0 111q-10 85 -83 85q-74 0 -84 -85q-5 -55 0 -110q10 -85 84 -85z" />
    <glyph glyph-name="guillemotright" unicode="&#xbb;" horiz-adv-x="580" 
d="M224 312l-164 157v92l277 -249l-277 -248v92zM422 312l-164 157v92l277 -249l-277 -248v92z" />
    <glyph glyph-name="onequarter" unicode="&#xbc;" horiz-adv-x="800" 
d="M219 405q0 -7 11.5 -20t17.5 -13h35v-35h-222v35h34q6 0 18 13t12 20v191q0 7 -10 17t-15 10h-42v28q36 13 75.5 32.5t60.5 32.5l22 14h3v-325zM682 728l-486 -728h-74l485 728h75zM597 92h-170v36q46 57 93 119.5t71 96.5l24 35l73 21v-263h54v-45h-54v-29
q0 -7 11.5 -20t18.5 -13h16v-30h-181v30h14q6 0 18 13t12 20v29zM597 293q-56 -85 -116 -158h116v158z" />
    <glyph glyph-name="onehalf" unicode="&#xbd;" horiz-adv-x="800" 
d="M219 405q0 -7 11.5 -20t17.5 -13h35v-35h-222v35h34q6 0 18 13t12 20v191q0 7 -10 17t-15 10h-42v28q36 13 75.5 32.5t60.5 32.5l22 14h3v-325zM682 728l-486 -728h-74l485 728h75zM752 66l-26 -66h-261v33q9 39 43 74.5t107 91.5q45 35 45 76q0 31 -18.5 48.5
t-50.5 17.5q-52 0 -94 -54l-29 23q63 89 148 89q61 0 95 -30t34 -84q0 -35 -18.5 -63.5t-36.5 -41.5t-45 -28q-3 -2 -30 -16t-38 -20.5t-28.5 -21t-27.5 -28.5h231z" />
    <glyph glyph-name="threequarters" unicode="&#xbe;" horiz-adv-x="800" 
d="M115 568l57 19q21 13 28.5 23t7.5 28q0 20 -13.5 32t-35.5 12q-40 0 -93 -39l-19 29q84 64 156 64q38 0 61.5 -19t23.5 -54q0 -56 -75 -87q107 0 107 -82q0 -38 -28.5 -71.5t-69.5 -53.5t-80 -31.5t-67 -12.5l-9 39q30 4 62 14t65.5 37.5t33.5 64.5q0 68 -112 56v32z
M682 728l-486 -728h-74l485 728h75zM597 92h-170v36q46 57 93 119.5t71 96.5l24 35l73 21v-263h54v-45h-54v-29q0 -7 11.5 -20t18.5 -13h16v-30h-181v30h14q6 0 18 13t12 20v29zM597 293q-56 -85 -116 -158h116v158z" />
    <glyph glyph-name="questiondown" unicode="&#xbf;" horiz-adv-x="448" 
d="M110 404q0 32 21.5 53.5t55.5 21.5t55.5 -21.5t21.5 -53.5t-21.5 -53.5t-55.5 -21.5t-55.5 21.5t-21.5 53.5zM288 -107q0 -42 -26 -66.5t-66 -24.5q-90 0 -111 94l-50 -10q42 -148 189 -148q74 0 126.5 45t52.5 128q0 47 -20.5 85t-49.5 62.5t-58.5 45.5t-50 43.5
t-20.5 47.5v56h-44v-59q0 -45 13 -79.5t32 -57t38 -43.5t32 -51t13 -68z" />
    <glyph glyph-name="Agrave" unicode="&#xc0;" horiz-adv-x="756" 
d="M373 917l51 -140h-49l-167 140h165zM446 225h-232l-48 -122q2 -14 20.5 -40t29.5 -26h34v-37h-240v37h13q10 1 40.5 26.5t39.5 39.5l245 603l60 35l249 -639q11 -15 38.5 -40t36.5 -25h14v-37h-345v37h35q11 1 32.5 26.5t21.5 38.5zM236 282h190l-89 255z" />
    <glyph glyph-name="Aacute" unicode="&#xc1;" horiz-adv-x="756" 
d="M603 917l-192 -140h-48l75 140h165zM446 225h-232l-48 -122q2 -14 20.5 -40t29.5 -26h34v-37h-240v37h13q10 1 40.5 26.5t39.5 39.5l245 603l60 35l249 -639q11 -15 38.5 -40t36.5 -25h14v-37h-345v37h35q11 1 32.5 26.5t21.5 38.5zM236 282h190l-89 255z" />
    <glyph glyph-name="Acircumflex" unicode="&#xc2;" horiz-adv-x="756" 
d="M432 934l99 -157h-50l-97 79l-97 -79h-50l99 157h96zM446 225h-232l-48 -122q2 -14 20.5 -40t29.5 -26h34v-37h-240v37h13q10 1 40.5 26.5t39.5 39.5l245 603l60 35l249 -639q11 -15 38.5 -40t36.5 -25h14v-37h-345v37h35q11 1 32.5 26.5t21.5 38.5zM236 282h190l-89 255
z" />
    <glyph glyph-name="Atilde" unicode="&#xc3;" horiz-adv-x="756" 
d="M504 795q-7 19 -18 28.5t-35 9.5q-22 0 -70.5 -24t-78.5 -24q-38 0 -61.5 25t-26.5 69l25 20q7 -19 18 -28.5t35 -9.5q22 0 70.5 24t78.5 24q38 0 61.5 -25t26.5 -69zM446 225h-232l-48 -122q2 -14 20.5 -40t29.5 -26h34v-37h-240v37h13q10 1 40.5 26.5t39.5 39.5
l245 603l60 35l249 -639q11 -15 38.5 -40t36.5 -25h14v-37h-345v37h35q11 1 32.5 26.5t21.5 38.5zM236 282h190l-89 255z" />
    <glyph glyph-name="Adieresis" unicode="&#xc4;" horiz-adv-x="756" 
d="M358 840q0 -30 -20 -49.5t-50 -19.5t-50 19.5t-20 49.5t20 49.5t50 19.5t50 -19.5t20 -49.5zM563 840q0 -30 -20 -49.5t-49 -19.5q-30 0 -50.5 19.5t-20.5 49.5t20.5 49.5t50.5 19.5q29 0 49 -19.5t20 -49.5zM446 225h-232l-48 -122q2 -14 20.5 -40t29.5 -26h34v-37h-240
v37h13q10 1 40.5 26.5t39.5 39.5l245 603l60 35l249 -639q11 -15 38.5 -40t36.5 -25h14v-37h-345v37h35q11 1 32.5 26.5t21.5 38.5zM236 282h190l-89 255z" />
    <glyph glyph-name="Aring" unicode="&#xc5;" horiz-adv-x="756" 
d="M275 878q0 48 32 77.5t79 29.5q46 0 78 -29.5t32 -77.5t-32 -77.5t-78 -29.5q-47 0 -79 29.5t-32 77.5zM329 878q0 -25 15.5 -40.5t41.5 -15.5q25 0 40.5 15.5t15.5 40.5t-15.5 40t-40.5 15q-26 0 -41.5 -15t-15.5 -40zM446 225h-232l-48 -122q2 -14 20.5 -40t29.5 -26
h34v-37h-240v37h13q10 1 40.5 26.5t39.5 39.5l245 603l60 35l249 -639q11 -15 38.5 -40t36.5 -25h14v-37h-345v37h35q11 1 32.5 26.5t21.5 38.5zM236 282h190l-89 255z" />
    <glyph glyph-name="AE" unicode="&#xc6;" horiz-adv-x="1014" 
d="M389 0v37h35q11 1 32.5 26.5t21.5 38.5l-42 123h-228l-47 -122q2 -14 20.5 -40t29.5 -26h34v-37h-240v37h13q10 1 40.5 26.5t39.5 39.5l237 588l60 37h529v-206h-37q0 15 -55 86.5t-68 71.5h-321q-4 0 -10.5 -7t-6.5 -12l99 -259h189l107 98h4v-248h-4l-107 102h-170
l109 -283q0 -4 9.5 -12.5t13.5 -8.5h87q27 0 109 82t82 101h40l-44 -233h-561zM230 282h187l-87 256z" />
    <glyph glyph-name="Ccedilla" unicode="&#xc7;" horiz-adv-x="713" 
d="M361 -11q-150 11 -240.5 118.5t-90.5 259.5q0 162 91 268t250 106q42 0 102 -16t86 -16q30 0 43 19h40v-249h-43q0 18 -15.5 51.5t-41.5 70t-69.5 63.5t-91.5 27q-88 0 -137 -53t-57 -176q-6 -98 2 -186q9 -96 69 -155.5t157 -59.5q162 0 227 136h61q-35 -87 -105.5 -144
t-176.5 -65l-60 -73q25 16 53 16q33 0 53 -19t20 -52q0 -41 -30 -65t-76 -24q-63 0 -97 47l28 27q21 -32 59 -32q51 0 51 40q0 38 -41 38q-13 0 -26 -6l-28 20z" />
    <glyph glyph-name="Egrave" unicode="&#xc8;" horiz-adv-x="679" 
d="M333 917l51 -140h-49l-167 140h165zM21 0v36h30q11 0 33 24t22 36v536q0 11 -23 35.5t-33 24.5h-30v36h569v-206h-37q0 15 -55 86.5t-68 71.5h-158q-4 0 -11 -7t-7 -12v-259h126l107 98h4v-248h-4l-107 102h-126v-283q0 -5 6.5 -13t10.5 -8h158q26 0 108.5 82t82.5 101
h40l-44 -233h-594z" />
    <glyph glyph-name="Eacute" unicode="&#xc9;" horiz-adv-x="679" 
d="M513 917l-192 -140h-48l75 140h165zM21 0v36h30q11 0 33 24t22 36v536q0 11 -23 35.5t-33 24.5h-30v36h569v-206h-37q0 15 -55 86.5t-68 71.5h-158q-4 0 -11 -7t-7 -12v-259h126l107 98h4v-248h-4l-107 102h-126v-283q0 -5 6.5 -13t10.5 -8h158q26 0 108.5 82t82.5 101
h40l-44 -233h-594z" />
    <glyph glyph-name="Ecircumflex" unicode="&#xca;" horiz-adv-x="679" 
d="M381 934l99 -157h-50l-97 79l-97 -79h-50l99 157h96zM21 0v36h30q11 0 33 24t22 36v536q0 11 -23 35.5t-33 24.5h-30v36h569v-206h-37q0 15 -55 86.5t-68 71.5h-158q-4 0 -11 -7t-7 -12v-259h126l107 98h4v-248h-4l-107 102h-126v-283q0 -5 6.5 -13t10.5 -8h158
q26 0 108.5 82t82.5 101h40l-44 -233h-594z" />
    <glyph glyph-name="Edieresis" unicode="&#xcb;" horiz-adv-x="679" 
d="M298 840q0 -30 -20 -49.5t-50 -19.5t-50 19.5t-20 49.5t20 49.5t50 19.5t50 -19.5t20 -49.5zM503 840q0 -30 -20 -49.5t-49 -19.5q-30 0 -50.5 19.5t-20.5 49.5t20.5 49.5t50.5 19.5q29 0 49 -19.5t20 -49.5zM21 0v36h30q11 0 33 24t22 36v536q0 11 -23 35.5t-33 24.5
h-30v36h569v-206h-37q0 15 -55 86.5t-68 71.5h-158q-4 0 -11 -7t-7 -12v-259h126l107 98h4v-248h-4l-107 102h-126v-283q0 -5 6.5 -13t10.5 -8h158q26 0 108.5 82t82.5 101h40l-44 -233h-594z" />
    <glyph glyph-name="Igrave" unicode="&#xcc;" horiz-adv-x="359" 
d="M185 917l51 -140h-49l-167 140h165zM21 36h30q11 0 33 24t22 36v536q0 11 -23 35.5t-33 24.5h-30v36h319v-36h-30q-11 0 -33.5 -24.5t-22.5 -35.5v-536q0 -12 22 -36t33 -24h30v-36h-317v36z" />
    <glyph glyph-name="Iacute" unicode="&#xcd;" horiz-adv-x="359" 
d="M339 917l-192 -140h-48l75 140h165zM21 36h30q11 0 33 24t22 36v536q0 11 -23 35.5t-33 24.5h-30v36h319v-36h-30q-11 0 -33.5 -24.5t-22.5 -35.5v-536q0 -12 22 -36t33 -24h30v-36h-317v36z" />
    <glyph glyph-name="Icircumflex" unicode="&#xce;" horiz-adv-x="359" 
d="M228 934l99 -157h-50l-97 79l-97 -79h-50l99 157h96zM21 36h30q11 0 33 24t22 36v536q0 11 -23 35.5t-33 24.5h-30v36h319v-36h-30q-11 0 -33.5 -24.5t-22.5 -35.5v-536q0 -12 22 -36t33 -24h30v-36h-317v36z" />
    <glyph glyph-name="Idieresis" unicode="&#xcf;" horiz-adv-x="359" 
d="M147 840q0 -30 -20 -49.5t-50 -19.5t-50 19.5t-20 49.5t20 49.5t50 19.5t50 -19.5t20 -49.5zM352 840q0 -30 -20 -49.5t-49 -19.5q-30 0 -50.5 19.5t-20.5 49.5t20.5 49.5t50.5 19.5q29 0 49 -19.5t20 -49.5zM21 36h30q11 0 33 24t22 36v536q0 11 -23 35.5t-33 24.5h-30
v36h319v-36h-30q-11 0 -33.5 -24.5t-22.5 -35.5v-536q0 -12 22 -36t33 -24h30v-36h-317v36z" />
    <glyph glyph-name="Eth" unicode="&#xd0;" horiz-adv-x="756" 
d="M21 0v36h30q11 0 33 24t22 36v254h-65v53h65v229q0 11 -23 35.5t-33 24.5h-30v36h311q142 0 251 -103t109 -259q0 -158 -106.5 -262t-251.5 -104h-312zM299 682q-11 0 -29 -20t-18 -30v-229h192v-53h-192v-254q0 -11 16.5 -29t27.5 -18h37q195 0 204 226q4 89 0 179
q-9 228 -208 228h-30z" />
    <glyph glyph-name="Ntilde" unicode="&#xd1;" horiz-adv-x="824" 
d="M545 795q-7 19 -18 28.5t-35 9.5q-22 0 -70.5 -24t-78.5 -24q-38 0 -61.5 25t-26.5 69l25 20q7 -19 18 -28.5t35 -9.5q22 0 70.5 24t78.5 24q38 0 61.5 -25t26.5 -69zM718 -11h-5l-546 608v-496q0 -12 24.5 -38.5t35.5 -26.5h40v-36h-246v36h30q11 0 33 24t22 36v536
q0 11 -23 35.5t-33 24.5h-30v36h233l406 -456v355q0 11 -25 38t-36 27h-40v36h246v-36h-30q-10 0 -33 -24.5t-23 -35.5v-643z" />
    <glyph glyph-name="Ograve" unicode="&#xd2;" horiz-adv-x="816" 
d="M387 917l51 -140h-49l-167 140h165zM411 -13q-162 0 -271.5 107.5t-109.5 267.5q0 162 105 270.5t270 108.5t273 -109t108 -269t-107 -268t-268 -108zM189 241q10 -91 72 -143t157 -52q94 0 147 51.5t64 143.5q14 117 0 249q-10 91 -72 144.5t-157 53.5q-94 0 -147.5 -53
t-63.5 -145q-5 -49 -5 -125t5 -124z" />
    <glyph glyph-name="Oacute" unicode="&#xd3;" horiz-adv-x="816" 
d="M620 917l-192 -140h-48l75 140h165zM411 -13q-162 0 -271.5 107.5t-109.5 267.5q0 162 105 270.5t270 108.5t273 -109t108 -269t-107 -268t-268 -108zM189 241q10 -91 72 -143t157 -52q94 0 147 51.5t64 143.5q14 117 0 249q-10 91 -72 144.5t-157 53.5q-94 0 -147.5 -53
t-63.5 -145q-5 -49 -5 -125t5 -124z" />
    <glyph glyph-name="Ocircumflex" unicode="&#xd4;" horiz-adv-x="816" 
d="M458 934l99 -157h-50l-97 79l-97 -79h-50l99 157h96zM411 -13q-162 0 -271.5 107.5t-109.5 267.5q0 162 105 270.5t270 108.5t273 -109t108 -269t-107 -268t-268 -108zM189 241q10 -91 72 -143t157 -52q94 0 147 51.5t64 143.5q14 117 0 249q-10 91 -72 144.5t-157 53.5
q-94 0 -147.5 -53t-63.5 -145q-5 -49 -5 -125t5 -124z" />
    <glyph glyph-name="Otilde" unicode="&#xd5;" horiz-adv-x="816" 
d="M541 795q-7 19 -18 28.5t-35 9.5q-22 0 -70.5 -24t-78.5 -24q-38 0 -61.5 25t-26.5 69l25 20q7 -19 18 -28.5t35 -9.5q22 0 70.5 24t78.5 24q38 0 61.5 -25t26.5 -69zM411 -13q-162 0 -271.5 107.5t-109.5 267.5q0 162 105 270.5t270 108.5t273 -109t108 -269t-107 -268
t-268 -108zM189 241q10 -91 72 -143t157 -52q94 0 147 51.5t64 143.5q14 117 0 249q-10 91 -72 144.5t-157 53.5q-94 0 -147.5 -53t-63.5 -145q-5 -49 -5 -125t5 -124z" />
    <glyph glyph-name="Odieresis" unicode="&#xd6;" horiz-adv-x="816" 
d="M375 840q0 -30 -20 -49.5t-50 -19.5t-50 19.5t-20 49.5t20 49.5t50 19.5t50 -19.5t20 -49.5zM580 840q0 -30 -20 -49.5t-49 -19.5q-30 0 -50.5 19.5t-20.5 49.5t20.5 49.5t50.5 19.5q29 0 49 -19.5t20 -49.5zM411 -13q-162 0 -271.5 107.5t-109.5 267.5q0 162 105 270.5
t270 108.5t273 -109t108 -269t-107 -268t-268 -108zM189 241q10 -91 72 -143t157 -52q94 0 147 51.5t64 143.5q14 117 0 249q-10 91 -72 144.5t-157 53.5q-94 0 -147.5 -53t-63.5 -145q-5 -49 -5 -125t5 -124z" />
    <glyph glyph-name="multiply" unicode="&#xd7;" horiz-adv-x="640" 
d="M268 289l-198 199l51 52l199 -199l197 197l50 -50l-197 -197l200 -200l-52 -51l-199 199l-197 -196l-50 50z" />
    <glyph glyph-name="Oslash" unicode="&#xd8;" horiz-adv-x="816" 
d="M411 -13q-116 0 -208 58l-64 -84l-52 39l64 84q-121 108 -121 278q0 162 105 270.5t270 108.5q114 0 207 -57l64 84l52 -40l-64 -83q122 -111 122 -282q0 -160 -107 -268t-268 -108zM189 241q4 -42 22 -79l356 464q-62 62 -167 62q-94 0 -147.5 -53t-63.5 -145
q-5 -49 -5 -125t5 -124zM418 46q94 0 147 51.5t64 143.5q14 117 0 249q-7 47 -23 79l-355 -462q64 -61 167 -61z" />
    <glyph glyph-name="Ugrave" unicode="&#xd9;" horiz-adv-x="775" 
d="M405 917l51 -140h-49l-167 140h165zM248 244q0 -90 47 -139t140 -49q89 0 134.5 49.5t45.5 137.5v384q0 11 -25 38t-36 27h-40v36h246v-36h-30q-10 0 -33 -24.5t-23 -35.5v-388q0 -122 -72.5 -189t-202.5 -67q-131 0 -214.5 68t-83.5 188v388q0 11 -23 35.5t-33 24.5h-30
v36h334v-36h-40q-11 0 -36 -27t-25 -38v-383z" />
    <glyph glyph-name="Uacute" unicode="&#xda;" horiz-adv-x="775" 
d="M648 917l-192 -140h-48l75 140h165zM248 244q0 -90 47 -139t140 -49q89 0 134.5 49.5t45.5 137.5v384q0 11 -25 38t-36 27h-40v36h246v-36h-30q-10 0 -33 -24.5t-23 -35.5v-388q0 -122 -72.5 -189t-202.5 -67q-131 0 -214.5 68t-83.5 188v388q0 11 -23 35.5t-33 24.5h-30
v36h334v-36h-40q-11 0 -36 -27t-25 -38v-383z" />
    <glyph glyph-name="Ucircumflex" unicode="&#xdb;" horiz-adv-x="775" 
d="M481 934l99 -157h-50l-97 79l-97 -79h-50l99 157h96zM248 244q0 -90 47 -139t140 -49q89 0 134.5 49.5t45.5 137.5v384q0 11 -25 38t-36 27h-40v36h246v-36h-30q-10 0 -33 -24.5t-23 -35.5v-388q0 -122 -72.5 -189t-202.5 -67q-131 0 -214.5 68t-83.5 188v388
q0 11 -23 35.5t-33 24.5h-30v36h334v-36h-40q-11 0 -36 -27t-25 -38v-383z" />
    <glyph glyph-name="Udieresis" unicode="&#xdc;" horiz-adv-x="775" 
d="M399 840q0 -30 -20 -49.5t-50 -19.5t-50 19.5t-20 49.5t20 49.5t50 19.5t50 -19.5t20 -49.5zM604 840q0 -30 -20 -49.5t-49 -19.5q-30 0 -50.5 19.5t-20.5 49.5t20.5 49.5t50.5 19.5q29 0 49 -19.5t20 -49.5zM248 244q0 -90 47 -139t140 -49q89 0 134.5 49.5t45.5 137.5
v384q0 11 -25 38t-36 27h-40v36h246v-36h-30q-10 0 -33 -24.5t-23 -35.5v-388q0 -122 -72.5 -189t-202.5 -67q-131 0 -214.5 68t-83.5 188v388q0 11 -23 35.5t-33 24.5h-30v36h334v-36h-40q-11 0 -36 -27t-25 -38v-383z" />
    <glyph glyph-name="Yacute" unicode="&#xdd;" horiz-adv-x="695" 
d="M617 917l-192 -140h-48l75 140h165zM277 351l-181 275q-11 15 -39.5 40t-37.5 25h-14v37h348v-37h-35q-11 -1 -32.5 -26.5t-21.5 -38.5l133 -220l133 219q-2 14 -21.5 40t-30.5 26h-34v37h246v-37h-13q-10 -1 -40.5 -26.5t-39.5 -39.5l-173 -273v-251q0 -12 24.5 -38.5
t35.5 -26.5h30v-36h-327v36h30q11 0 35.5 26.5t24.5 38.5v250z" />
    <glyph glyph-name="Thorn" unicode="&#xde;" horiz-adv-x="637" 
d="M105 632q0 12 -22 36t-33 24h-30v36h317v-36h-30q-11 0 -33 -24t-22 -36v-50h71q83 0 145 -19t102.5 -66t40.5 -119q0 -106 -80.5 -155t-210.5 -49h-68v-78q0 -12 22 -36t33 -24h30v-36h-317v36h30q11 0 33 24t22 36v536zM285 536q-9 0 -21 -12.5t-12 -21.5v-278h60
q64 0 103.5 30t43.5 85q3 36 0 72q-4 58 -42.5 91.5t-94.5 33.5h-37z" />
    <glyph glyph-name="germandbls" unicode="&#xdf;" horiz-adv-x="635" 
d="M216 0h-201v36h20q11 0 33 21.5t22 33.5v438q0 116 85 183.5t191 67.5q61 0 102 -34.5t41 -98.5q0 -32 -11.5 -58t-35 -47.5t-40.5 -33.5t-47 -30q34 -28 130 -96q105 -76 105 -168q0 -105 -83.5 -182t-199.5 -76q-48 0 -98 20l72 111h36q40 -50 94 -50q38 0 62 25t24 66
q0 87 -98 162q-120 90 -165 128v36q84 43 113 74.5t29 77.5q0 51 -31 84t-76 33t-59 -39t-14 -120v-564z" />
    <glyph glyph-name="agrave" unicode="&#xe0;" horiz-adv-x="515" 
d="M224 713l49 -176h-41l-158 176h150zM314 77q-23 -30 -63 -58.5t-79 -28.5q-60 0 -99 37.5t-39 94.5q0 110 171 146l101 20l1 57q1 46 -25.5 69t-78.5 23q-54 0 -76 -31t-5 -92h-37l-60 86q73 90 208 90q89 0 144 -39t55 -108v-252q0 -12 21 -33.5t32 -21.5h20v-36h-183z
M307 247l-90 -24q-77 -21 -77 -87q0 -31 19.5 -50.5t52.5 -19.5q26 0 53 22.5t42 49.5v109z" />
    <glyph glyph-name="aacute" unicode="&#xe1;" horiz-adv-x="515" 
d="M415 713l-194 -176h-41l79 176h156zM314 77q-23 -30 -63 -58.5t-79 -28.5q-60 0 -99 37.5t-39 94.5q0 110 171 146l101 20l1 57q1 46 -25.5 69t-78.5 23q-54 0 -76 -31t-5 -92h-37l-60 86q73 90 208 90q89 0 144 -39t55 -108v-252q0 -12 21 -33.5t32 -21.5h20v-36h-183z
M307 247l-90 -24q-77 -21 -77 -87q0 -31 19.5 -50.5t52.5 -19.5q26 0 53 22.5t42 49.5v109z" />
    <glyph glyph-name="acircumflex" unicode="&#xe2;" horiz-adv-x="515" 
d="M288 713l94 -176h-45l-92 91l-92 -91h-45l94 176h86zM314 77q-23 -30 -63 -58.5t-79 -28.5q-60 0 -99 37.5t-39 94.5q0 110 171 146l101 20l1 57q1 46 -25.5 69t-78.5 23q-54 0 -76 -31t-5 -92h-37l-60 86q73 90 208 90q89 0 144 -39t55 -108v-252q0 -12 21 -33.5
t32 -21.5h20v-36h-183zM307 247l-90 -24q-77 -21 -77 -87q0 -31 19.5 -50.5t52.5 -19.5q26 0 53 22.5t42 49.5v109z" />
    <glyph glyph-name="atilde" unicode="&#xe3;" horiz-adv-x="515" 
d="M362 562q-5 15 -8.5 22t-13.5 14t-25 7q-25 0 -68 -25t-75 -25q-84 0 -89 104l28 21q4 -14 7.5 -22t13.5 -15t26 -7q32 0 72.5 25t70.5 25q87 0 90 -103zM314 77q-23 -30 -63 -58.5t-79 -28.5q-60 0 -99 37.5t-39 94.5q0 110 171 146l101 20l1 57q1 46 -25.5 69t-78.5 23
q-54 0 -76 -31t-5 -92h-37l-60 86q73 90 208 90q89 0 144 -39t55 -108v-252q0 -12 21 -33.5t32 -21.5h20v-36h-183zM307 247l-90 -24q-77 -21 -77 -87q0 -31 19.5 -50.5t52.5 -19.5q26 0 53 22.5t42 49.5v109z" />
    <glyph glyph-name="adieresis" unicode="&#xe4;" horiz-adv-x="515" 
d="M210 616q0 -27 -18 -44.5t-45 -17.5t-45 17.5t-18 44.5t18 44.5t45 17.5t45 -17.5t18 -44.5zM394 616q0 -27 -18 -44.5t-45 -17.5t-45 17.5t-18 44.5t18 44.5t45 17.5t45 -17.5t18 -44.5zM314 77q-23 -30 -63 -58.5t-79 -28.5q-60 0 -99 37.5t-39 94.5q0 110 171 146
l101 20l1 57q1 46 -25.5 69t-78.5 23q-54 0 -76 -31t-5 -92h-37l-60 86q73 90 208 90q89 0 144 -39t55 -108v-252q0 -12 21 -33.5t32 -21.5h20v-36h-183zM307 247l-90 -24q-77 -21 -77 -87q0 -31 19.5 -50.5t52.5 -19.5q26 0 53 22.5t42 49.5v109z" />
    <glyph glyph-name="aring" unicode="&#xe5;" horiz-adv-x="515" 
d="M132 636q0 46 30.5 74t76.5 28t76 -28t30 -74t-30 -74t-76 -28t-76.5 28t-30.5 74zM184 636q0 -25 15.5 -39t39.5 -14q23 0 38.5 14t15.5 39t-15.5 39.5t-38.5 14.5t-39 -14.5t-16 -39.5zM314 77q-23 -30 -63 -58.5t-79 -28.5q-60 0 -99 37.5t-39 94.5q0 110 171 146
l101 20l1 57q1 46 -25.5 69t-78.5 23q-54 0 -76 -31t-5 -92h-37l-60 86q73 90 208 90q89 0 144 -39t55 -108v-252q0 -12 21 -33.5t32 -21.5h20v-36h-183zM307 247l-90 -24q-77 -21 -77 -87q0 -31 19.5 -50.5t52.5 -19.5q26 0 53 22.5t42 49.5v109z" />
    <glyph glyph-name="ae" unicode="&#xe6;" horiz-adv-x="770" 
d="M318 82q-26 -37 -64.5 -64.5t-81.5 -27.5q-60 0 -99 37.5t-39 94.5q0 113 171 146l102 20l1 58q1 45 -26 68.5t-79 23.5q-54 0 -76 -31.5t-5 -92.5h-37l-60 86q73 90 208 90q104 0 153 -58q63 58 154 58q87 0 134.5 -53.5t53.5 -122.5l3 -36l-302 -21q2 -69 42.5 -121.5
t106.5 -52.5q54 0 84 20.5t56 65.5h37q-59 -180 -215 -180q-55 0 -103 21l-110 -10zM613 314q17 131 -76 131q-59 0 -85.5 -42.5t-24.5 -103.5zM308 246l-91 -23q-77 -19 -77 -87q0 -32 19 -51t52 -19q27 0 54.5 22.5t42.5 49.5v108z" />
    <glyph glyph-name="ccedilla" unicode="&#xe7;" horiz-adv-x="485" 
d="M208 -6q-81 15 -132 80.5t-51 153.5q0 118 68.5 190.5t173.5 71.5q94 -1 171 -72l-73 -114l-37 -3q26 143 -73 143q-57 0 -87 -51.5t-30 -136.5q0 -76 41 -124.5t111 -48.5q61 0 93.5 23.5t56.5 70.5h37q-49 -182 -215 -188l-51 -62q25 16 53 16q33 0 53 -19t20 -52
q0 -41 -30 -65t-76 -24q-63 0 -97 47l28 27q21 -32 59 -32q51 0 51 40q0 38 -41 38q-13 0 -26 -6l-28 20z" />
    <glyph glyph-name="egrave" unicode="&#xe8;" horiz-adv-x="490" 
d="M243 713l49 -176h-41l-158 176h150zM149 254q2 -69 42 -120t106 -51q54 0 84.5 21t56.5 65h37q-59 -180 -216 -180q-111 0 -172.5 71.5t-61.5 177.5q0 108 66 180.5t168 71.5q87 -1 135 -54t54 -122l3 -36zM332 314q17 131 -76 131q-59 0 -85 -42.5t-24 -103.5z" />
    <glyph glyph-name="eacute" unicode="&#xe9;" horiz-adv-x="490" 
d="M450 713l-194 -176h-41l79 176h156zM149 254q2 -69 42 -120t106 -51q54 0 84.5 21t56.5 65h37q-59 -180 -216 -180q-111 0 -172.5 71.5t-61.5 177.5q0 108 66 180.5t168 71.5q87 -1 135 -54t54 -122l3 -36zM332 314q17 131 -76 131q-59 0 -85 -42.5t-24 -103.5z" />
    <glyph glyph-name="ecircumflex" unicode="&#xea;" horiz-adv-x="490" 
d="M300 713l94 -176h-45l-92 91l-92 -91h-45l94 176h86zM149 254q2 -69 42 -120t106 -51q54 0 84.5 21t56.5 65h37q-59 -180 -216 -180q-111 0 -172.5 71.5t-61.5 177.5q0 108 66 180.5t168 71.5q87 -1 135 -54t54 -122l3 -36zM332 314q17 131 -76 131q-59 0 -85 -42.5
t-24 -103.5z" />
    <glyph glyph-name="edieresis" unicode="&#xeb;" horiz-adv-x="490" 
d="M222 616q0 -27 -18 -44.5t-45 -17.5t-45 17.5t-18 44.5t18 44.5t45 17.5t45 -17.5t18 -44.5zM406 616q0 -27 -18 -44.5t-45 -17.5t-45 17.5t-18 44.5t18 44.5t45 17.5t45 -17.5t18 -44.5zM149 254q2 -69 42 -120t106 -51q54 0 84.5 21t56.5 65h37q-59 -180 -216 -180
q-111 0 -172.5 71.5t-61.5 177.5q0 108 66 180.5t168 71.5q87 -1 135 -54t54 -122l3 -36zM332 314q17 131 -76 131q-59 0 -85 -42.5t-24 -103.5z" />
    <glyph glyph-name="igrave" unicode="&#xec;" horiz-adv-x="313" 
d="M150 713l49 -176h-41l-158 176h150zM223 91q0 -12 22.5 -33.5t32.5 -21.5h20v-36h-278v36h20q11 0 33 21.5t22 33.5v297q0 11 -22 33t-33 22h-20v36h203v-388z" />
    <glyph glyph-name="iacute" unicode="&#xed;" horiz-adv-x="313" 
d="M313 713l-194 -176h-41l79 176h156zM223 91q0 -12 22.5 -33.5t32.5 -21.5h20v-36h-278v36h20q11 0 33 21.5t22 33.5v297q0 11 -22 33t-33 22h-20v36h203v-388z" />
    <glyph glyph-name="icircumflex" unicode="&#xee;" horiz-adv-x="313" 
d="M190 713l94 -176h-45l-92 91l-92 -91h-45l94 176h86zM223 91q0 -12 22.5 -33.5t32.5 -21.5h20v-36h-278v36h20q11 0 33 21.5t22 33.5v297q0 11 -22 33t-33 22h-20v36h203v-388z" />
    <glyph glyph-name="idieresis" unicode="&#xef;" horiz-adv-x="313" 
d="M126 616q0 -27 -18 -44.5t-45 -17.5t-45 17.5t-18 44.5t18 44.5t45 17.5t45 -17.5t18 -44.5zM310 616q0 -27 -18 -44.5t-45 -17.5t-45 17.5t-18 44.5t18 44.5t45 17.5t45 -17.5t18 -44.5zM223 91q0 -12 22.5 -33.5t32.5 -21.5h20v-36h-278v36h20q11 0 33 21.5t22 33.5
v297q0 11 -22 33t-33 22h-20v36h203v-388z" />
    <glyph glyph-name="eth" unicode="&#xf0;" horiz-adv-x="563" 
d="M322 651q-62 49 -165 77l15 43q142 -16 229 -90l123 47v-62l-78 -31q82 -106 82 -281q0 -154 -81 -259.5t-204 -105.5q-107 0 -162.5 64t-55.5 173q0 116 64.5 190t157.5 74q66 0 104.5 -28t69.5 -85q13 142 -53 227l-181 -71v66zM391 299q0 52 -26 82.5t-76 30.5
q-64 0 -107.5 -77t-43.5 -173q0 -55 26 -86t74 -31q64 0 108.5 79.5t44.5 174.5z" />
    <glyph glyph-name="ntilde" unicode="&#xf1;" horiz-adv-x="609" 
d="M433 562q-5 15 -8.5 22t-13.5 14t-25 7q-25 0 -68 -25t-75 -25q-84 0 -89 104l28 21q4 -14 7.5 -22t13.5 -15t26 -7q32 0 72.5 25t70.5 25q87 0 90 -103zM15 479h183l17 -97q30 33 47.5 50.5t55 37.5t76.5 20q57 0 96 -42.5t39 -99.5v-257q0 -12 20 -33.5t30 -21.5h20
v-36h-271v36h20q11 0 32 21.5t21 33.5v245q0 30 -15 47t-42 17q-36 0 -82 -31t-46 -54v-224q0 -12 20 -33.5t30 -21.5h20v-36h-271v36h20q11 0 32 21.5t21 33.5v297q0 12 -21 33.5t-32 21.5h-20v36z" />
    <glyph glyph-name="ograve" unicode="&#xf2;" horiz-adv-x="553" 
d="M266 713l49 -176h-41l-158 176h150zM278 -12q103 0 176.5 68.5t73.5 183.5t-73.5 183t-176.5 68q-104 0 -178.5 -68.5t-74.5 -182.5t75 -183t178 -69zM279 43q-107 0 -120 121q-9 80 0 158q13 121 120 121q105 0 118 -122q9 -80 0 -158q-13 -120 -118 -120z" />
    <glyph glyph-name="oacute" unicode="&#xf3;" horiz-adv-x="553" 
d="M481 713l-194 -176h-41l79 176h156zM278 -12q-103 0 -178 69t-75 183t74.5 182.5t178.5 68.5q103 0 176.5 -68t73.5 -183t-73.5 -183.5t-176.5 -68.5zM279 43q105 0 118 120q9 78 0 158q-13 122 -118 122q-107 0 -120 -121q-9 -78 0 -158q13 -121 120 -121z" />
    <glyph glyph-name="ocircumflex" unicode="&#xf4;" horiz-adv-x="553" 
d="M320 713l94 -176h-45l-92 91l-92 -91h-45l94 176h86zM278 -12q103 0 176.5 68.5t73.5 183.5t-73.5 183t-176.5 68q-104 0 -178.5 -68.5t-74.5 -182.5t75 -183t178 -69zM279 43q-107 0 -120 121q-9 80 0 158q13 121 120 121q105 0 118 -122q9 -80 0 -158
q-13 -120 -118 -120z" />
    <glyph glyph-name="otilde" unicode="&#xf5;" horiz-adv-x="553" 
d="M406 562q-5 15 -8.5 22t-13.5 14t-25 7q-25 0 -68 -25t-75 -25q-84 0 -89 104l28 21q4 -14 7.5 -22t13.5 -15t26 -7q32 0 72.5 25t70.5 25q87 0 90 -103zM278 -12q-103 0 -178 69t-75 183t74.5 182.5t178.5 68.5q103 0 176.5 -68t73.5 -183t-73.5 -183.5t-176.5 -68.5z
M279 43q105 0 118 120q9 78 0 158q-13 122 -118 122q-107 0 -120 -121q-9 -78 0 -158q13 -121 120 -121z" />
    <glyph glyph-name="odieresis" unicode="&#xf6;" horiz-adv-x="553" 
d="M250 616q0 -27 -18 -44.5t-45 -17.5t-45 17.5t-18 44.5t18 44.5t45 17.5t45 -17.5t18 -44.5zM434 616q0 -27 -18 -44.5t-45 -17.5t-45 17.5t-18 44.5t18 44.5t45 17.5t45 -17.5t18 -44.5zM278 -12q103 0 176.5 68.5t73.5 183.5t-73.5 183t-176.5 68q-104 0 -178.5 -68.5
t-74.5 -182.5t75 -183t178 -69zM279 43q-107 0 -120 121q-9 80 0 158q13 121 120 121q105 0 118 -122q9 -80 0 -158q-13 -120 -118 -120z" />
    <glyph glyph-name="divide" unicode="&#xf7;" horiz-adv-x="640" 
d="M393 486q0 -30 -20.5 -50t-50.5 -20t-50.5 20.5t-20.5 49.5t20.5 49.5t50.5 20.5t50.5 -20t20.5 -50zM592 328v-77h-544v77h544zM393 93q0 -29 -20.5 -49.5t-50.5 -20.5t-50.5 20.5t-20.5 49.5t20.5 49.5t50.5 20.5t50.5 -20.5t20.5 -49.5z" />
    <glyph glyph-name="oslash" unicode="&#xf8;" horiz-adv-x="563" 
d="M283 -12q-77 0 -143 44l-37 -42l-37 32l36 40q-72 72 -72 178q0 114 74.5 182.5t178.5 68.5q84 0 152 -51l43 50l38 -33l-45 -50q62 -70 62 -167q0 -115 -73.5 -183.5t-176.5 -68.5zM284 443q-107 0 -120 -121q-12 -111 3 -185l218 247q-30 59 -101 59zM284 43
q104 0 118 120q10 79 0 165l-213 -241q31 -44 95 -44z" />
    <glyph glyph-name="ugrave" unicode="&#xf9;" horiz-adv-x="609" 
d="M272 713l49 -176h-41l-158 176h150zM208 479h-198v-36h20q10 0 30 -21.5t20 -33.5v-257q0 -57 39 -99.5t96 -42.5q39 0 76.5 20t55 37.5t47.5 50.5l17 -97h183v36h-20q-11 0 -32 21.5t-21 33.5l1 388h-204v-36h25q10 0 30 -21.5t20 -33.5v-219q0 -24 -46 -57t-82 -33
q-27 0 -42 17t-15 47v336z" />
    <glyph glyph-name="uacute" unicode="&#xfa;" horiz-adv-x="609" 
d="M476 713l-194 -176h-41l79 176h156zM208 143q0 -30 15 -47t42 -17q36 0 82 33t46 57v219q0 12 -20 33.5t-30 21.5h-25v36h204l-1 -388q0 -12 21 -33.5t32 -21.5h20v-36h-183l-17 97q-30 -33 -47.5 -50.5t-55 -37.5t-76.5 -20q-57 0 -96 42.5t-39 99.5v257q0 12 -20 33.5
t-30 21.5h-20v36h198v-336z" />
    <glyph glyph-name="ucircumflex" unicode="&#xfb;" horiz-adv-x="609" 
d="M341 713l94 -176h-45l-92 91l-92 -91h-45l94 176h86zM208 479h-198v-36h20q10 0 30 -21.5t20 -33.5v-257q0 -57 39 -99.5t96 -42.5q39 0 76.5 20t55 37.5t47.5 50.5l17 -97h183v36h-20q-11 0 -32 21.5t-21 33.5l1 388h-204v-36h25q10 0 30 -21.5t20 -33.5v-219
q0 -24 -46 -57t-82 -33q-27 0 -42 17t-15 47v336z" />
    <glyph glyph-name="udieresis" unicode="&#xfc;" horiz-adv-x="609" 
d="M269 616q0 -27 -18 -44.5t-45 -17.5t-45 17.5t-18 44.5t18 44.5t45 17.5t45 -17.5t18 -44.5zM453 616q0 -27 -18 -44.5t-45 -17.5t-45 17.5t-18 44.5t18 44.5t45 17.5t45 -17.5t18 -44.5zM208 479h-198v-36h20q10 0 30 -21.5t20 -33.5v-257q0 -57 39 -99.5t96 -42.5
q39 0 76.5 20t55 37.5t47.5 50.5l17 -97h183v36h-20q-11 0 -32 21.5t-21 33.5l1 388h-204v-36h25q10 0 30 -21.5t20 -33.5v-219q0 -24 -46 -57t-82 -33q-27 0 -42 17t-15 47v336z" />
    <glyph glyph-name="yacute" unicode="&#xfd;" horiz-adv-x="552" 
d="M524 713l-194 -176h-41l79 176h156zM78 384q-7 12 -31.5 35.5t-32.5 23.5h-14v36h288v-36h-25q-10 0 -26 -22t-16 -35l101 -221l100 221q1 14 -15.5 35.5t-26.5 21.5h-25v36h197v-36h-15q-8 0 -28.5 -21.5t-29.5 -35.5l-171 -364l-128 -265l-57 27l134 252z" />
    <glyph glyph-name="thorn" unicode="&#xfe;" horiz-adv-x="618" 
d="M90 642q0 11 -21.5 30.5t-31.5 19.5h-22v36q46 8 96.5 18.5t78.5 17.5l28 7v-346q56 65 146 65q96 0 155 -64.5t59 -179.5q0 -116 -63.5 -186.5t-158.5 -70.5q-89 0 -138 74v-201q0 -12 22.5 -33.5t32.5 -21.5h20v-36h-278v36h20q11 0 33 21.5t22 33.5v780zM217 174
q0 -54 32.5 -88t83.5 -34q49 0 78 33t34 89q6 68 0 135q-5 58 -33 91t-74 33q-49 0 -79 -35.5t-42 -91.5v-132z" />
    <glyph glyph-name="ydieresis" unicode="&#xff;" horiz-adv-x="552" 
d="M293 616q0 -27 -18 -44.5t-45 -17.5t-45 17.5t-18 44.5t18 44.5t45 17.5t45 -17.5t18 -44.5zM477 616q0 -27 -18 -44.5t-45 -17.5t-45 17.5t-18 44.5t18 44.5t45 17.5t45 -17.5t18 -44.5zM257 36l-134 -252l57 -27l128 265l171 364q9 14 29.5 35.5t28.5 21.5h15v36h-197
v-36h25q10 0 26.5 -21.5t15.5 -35.5l-100 -221l-101 221q0 13 16 35t26 22h25v36h-288v-36h14q8 0 32.5 -23.5t31.5 -35.5z" />
    <glyph glyph-name="Amacron" unicode="&#x100;" horiz-adv-x="756" 
d="M520 881v-81h-273v81h273zM446 225h-232l-48 -122q2 -14 20.5 -40t29.5 -26h34v-37h-240v37h13q10 1 40.5 26.5t39.5 39.5l245 603l60 35l249 -639q11 -15 38.5 -40t36.5 -25h14v-37h-345v37h35q11 1 32.5 26.5t21.5 38.5zM236 282h190l-89 255z" />
    <glyph glyph-name="amacron" unicode="&#x101;" horiz-adv-x="515" 
d="M384 654v-81h-284v81h284zM314 77q-23 -30 -63 -58.5t-79 -28.5q-60 0 -99 37.5t-39 94.5q0 110 171 146l101 20l1 57q1 46 -25.5 69t-78.5 23q-54 0 -76 -31t-5 -92h-37l-60 86q73 90 208 90q89 0 144 -39t55 -108v-252q0 -12 21 -33.5t32 -21.5h20v-36h-183zM307 247
l-90 -24q-77 -21 -77 -87q0 -31 19.5 -50.5t52.5 -19.5q26 0 53 22.5t42 49.5v109z" />
    <glyph glyph-name="Abreve" unicode="&#x102;" horiz-adv-x="756" 
d="M391 776q-73 0 -113.5 41t-38.5 104l36 6q3 -69 114 -69q115 0 116 69l36 -6q2 -63 -37.5 -104t-112.5 -41zM446 225h-232l-48 -122q2 -14 20.5 -40t29.5 -26h34v-37h-240v37h13q10 1 40.5 26.5t39.5 39.5l245 603l60 35l249 -639q11 -15 38.5 -40t36.5 -25h14v-37h-345
v37h35q11 1 32.5 26.5t21.5 38.5zM236 282h190l-89 255z" />
    <glyph glyph-name="abreve" unicode="&#x103;" horiz-adv-x="515" 
d="M244 620q53 0 82.5 20t30.5 57l35 -6q0 -152 -148 -152t-148 152l35 6q1 -37 30.5 -57t82.5 -20zM314 77q-23 -30 -63 -58.5t-79 -28.5q-60 0 -99 37.5t-39 94.5q0 110 171 146l101 20l1 57q1 46 -25.5 69t-78.5 23q-54 0 -76 -31t-5 -92h-37l-60 86q73 90 208 90
q89 0 144 -39t55 -108v-252q0 -12 21 -33.5t32 -21.5h20v-36h-183zM307 247l-90 -24q-77 -21 -77 -87q0 -31 19.5 -50.5t52.5 -19.5q26 0 53 22.5t42 49.5v109z" />
    <glyph glyph-name="Aogonek" unicode="&#x104;" horiz-adv-x="756" 
d="M401 0v37h35q11 1 32.5 26.5t21.5 38.5l-44 123h-232l-48 -122q2 -14 20.5 -40t29.5 -26h34v-37h-240v37h13q10 1 40.5 26.5t39.5 39.5l245 603l60 35l249 -639q11 -15 38.5 -40t36.5 -25h14v-37h-43q-75 -78 -75 -117q0 -17 11 -28t29 -11q23 0 50 32l26 -23
q-26 -34 -51 -52t-60 -18q-41 0 -62 21t-21 55q0 68 110 141h-259zM236 282h190l-89 255z" />
    <glyph glyph-name="aogonek" unicode="&#x105;" horiz-adv-x="515" 
d="M314 77q-23 -30 -63 -58.5t-79 -28.5q-60 0 -99 37.5t-39 94.5q0 110 171 146l101 20l1 57q1 46 -25.5 69t-78.5 23q-54 0 -76 -31t-5 -92h-37l-60 86q73 90 208 90q89 0 144 -39t55 -108v-252q0 -12 21 -33.5t32 -21.5h20v-36h-31q-75 -78 -75 -117q0 -17 11 -28t29 -11
q23 0 50 32l26 -23q-26 -34 -51 -52t-60 -18q-41 0 -62 21t-21 55q0 68 110 141h-109zM307 247l-90 -24q-77 -21 -77 -87q0 -31 19.5 -50.5t52.5 -19.5q26 0 53 22.5t42 49.5v109z" />
    <glyph glyph-name="Cacute" unicode="&#x106;" horiz-adv-x="713" 
d="M606 917l-192 -140h-48l75 140h165zM381 691q-88 0 -137 -53t-57 -176q-6 -98 2 -186q9 -96 69 -155.5t157 -59.5q162 0 227 136h61q-37 -93 -114.5 -151.5t-195.5 -58.5q-163 0 -263 109.5t-100 270.5q0 162 91 268t250 106q42 0 102 -16t86 -16q30 0 43 19h40v-249h-43
q0 18 -15.5 51.5t-41.5 70t-69.5 63.5t-91.5 27z" />
    <glyph glyph-name="cacute" unicode="&#x107;" horiz-adv-x="485" 
d="M435 713l-194 -176h-41l79 176h156zM255 444q-57 0 -87 -51.5t-30 -136.5q0 -76 41 -124.5t111 -48.5q61 0 93.5 23.5t56.5 70.5h37q-51 -188 -224 -188q-99 0 -163.5 69.5t-64.5 169.5q0 118 68.5 190.5t173.5 71.5q94 -1 171 -72l-73 -114l-37 -3q26 143 -73 143z" />
    <glyph glyph-name="Ccircumflex" unicode="&#x108;" horiz-adv-x="713" 
d="M469 934l99 -157h-50l-97 79l-97 -79h-50l99 157h96zM381 691q-88 0 -137 -53t-57 -176q-6 -98 2 -186q9 -96 69 -155.5t157 -59.5q162 0 227 136h61q-37 -93 -114.5 -151.5t-195.5 -58.5q-163 0 -263 109.5t-100 270.5q0 162 91 268t250 106q42 0 102 -16t86 -16
q30 0 43 19h40v-249h-43q0 18 -15.5 51.5t-41.5 70t-69.5 63.5t-91.5 27z" />
    <glyph glyph-name="ccircumflex" unicode="&#x109;" horiz-adv-x="485" 
d="M298 713l94 -176h-45l-92 91l-92 -91h-45l94 176h86zM255 444q-57 0 -87 -51.5t-30 -136.5q0 -76 41 -124.5t111 -48.5q61 0 93.5 23.5t56.5 70.5h37q-51 -188 -224 -188q-99 0 -163.5 69.5t-64.5 169.5q0 118 68.5 190.5t173.5 71.5q94 -1 171 -72l-73 -114l-37 -3
q26 143 -73 143z" />
    <glyph glyph-name="Cdotaccent" unicode="&#x10a;" horiz-adv-x="713" 
d="M454 857q0 -34 -22 -55.5t-56 -21.5q-33 0 -55.5 22t-22.5 55t22.5 55t55.5 22q34 0 56 -21.5t22 -55.5zM381 691q-88 0 -137 -53t-57 -176q-6 -98 2 -186q9 -96 69 -155.5t157 -59.5q162 0 227 136h61q-37 -93 -114.5 -151.5t-195.5 -58.5q-163 0 -263 109.5t-100 270.5
q0 162 91 268t250 106q42 0 102 -16t86 -16q30 0 43 19h40v-249h-43q0 18 -15.5 51.5t-41.5 70t-69.5 63.5t-91.5 27z" />
    <glyph glyph-name="cdotaccent" unicode="&#x10b;" horiz-adv-x="485" 
d="M187 637q0 33 20.5 52.5t52.5 19.5t52 -19.5t20 -52.5t-20 -53t-52 -20t-52.5 20t-20.5 53zM255 444q-57 0 -87 -51.5t-30 -136.5q0 -76 41 -124.5t111 -48.5q61 0 93.5 23.5t56.5 70.5h37q-51 -188 -224 -188q-99 0 -163.5 69.5t-64.5 169.5q0 118 68.5 190.5
t173.5 71.5q94 -1 171 -72l-73 -114l-37 -3q26 143 -73 143z" />
    <glyph glyph-name="Ccaron" unicode="&#x10c;" horiz-adv-x="713" 
d="M363 777l-99 157h50l97 -79l97 79h50l-99 -157h-96zM381 691q-88 0 -137 -53t-57 -176q-6 -98 2 -186q9 -96 69 -155.5t157 -59.5q162 0 227 136h61q-37 -93 -114.5 -151.5t-195.5 -58.5q-163 0 -263 109.5t-100 270.5q0 162 91 268t250 106q42 0 102 -16t86 -16
q30 0 43 19h40v-249h-43q0 18 -15.5 51.5t-41.5 70t-69.5 63.5t-91.5 27z" />
    <glyph glyph-name="ccaron" unicode="&#x10d;" horiz-adv-x="485" 
d="M211 537l-94 176h45l97 -99l97 99h45l-94 -176h-96zM255 444q-57 0 -87 -51.5t-30 -136.5q0 -76 41 -124.5t111 -48.5q61 0 93.5 23.5t56.5 70.5h37q-51 -188 -224 -188q-99 0 -163.5 69.5t-64.5 169.5q0 118 68.5 190.5t173.5 71.5q94 -1 171 -72l-73 -114l-37 -3
q26 143 -73 143z" />
    <glyph glyph-name="Dcaron" unicode="&#x10e;" horiz-adv-x="721" 
d="M278 777l-99 157h50l97 -79l97 79h50l-99 -157h-96zM21 0v36h30q11 0 33 24t22 36v536q0 11 -23 35.5t-33 24.5h-30v36h311q142 0 251 -103t109 -259q0 -158 -106.5 -262t-251.5 -104h-312zM299 682q-11 0 -29 -20t-18 -30v-536q0 -11 16.5 -29t27.5 -18h37
q195 0 204 226q4 89 0 179q-9 228 -208 228h-30z" />
    <glyph glyph-name="dcaron" unicode="&#x10f;" horiz-adv-x="682" 
d="M385 642q0 11 -21.5 30.5t-31.5 19.5h-22v36q46 8 96.5 18.5t78.5 17.5l28 7v-680q0 -12 21 -33.5t32 -21.5h20v-36h-184l-10 67q-51 -78 -145 -78q-95 0 -158.5 70t-63.5 186q0 114 64 179.5t159 65.5q86 0 137 -59v211zM676 710q7 -146 -125 -153v36q34 2 56 17t22 43
h-28q-49 11 -49 59q0 26 17 42.5t45 16.5q27 0 43.5 -16.5t18.5 -44.5zM266 433q-46 0 -74.5 -33.5t-33.5 -90.5q-6 -67 0 -135q5 -56 34 -89t78 -33q51 0 83.5 34t32.5 88v130q0 55 -34 92t-86 37z" />
    <glyph glyph-name="Dcroat" unicode="&#x110;" horiz-adv-x="721" 
d="M21 0v36h30q11 0 33 24t22 36v256h-86v48h86v232q0 11 -23 35.5t-33 24.5h-30v36h311q142 0 251 -103t109 -259q0 -158 -106.5 -262t-251.5 -104h-312zM299 682q-11 0 -29 -20t-18 -30v-232h192v-48h-192v-256q0 -11 16.5 -29t27.5 -18h37q195 0 204 226q4 89 0 179
q-9 228 -208 228h-30z" />
    <glyph glyph-name="dcroat" unicode="&#x111;" horiz-adv-x="601" 
d="M385 642q0 11 -21.5 30.5t-31.5 19.5h-22v36q46 8 96.5 18.5t78.5 17.5l28 7v-165h73v-56h-73v-459q0 -12 21 -33.5t32 -21.5h20v-36h-184l-10 67q-51 -78 -145 -78q-95 0 -158.5 70t-63.5 186q0 114 64 179.5t159 65.5q86 0 137 -59v119h-158v56h158v36zM266 433
q-46 0 -74.5 -33.5t-33.5 -90.5q-6 -67 0 -135q5 -56 34 -89t78 -33q51 0 83.5 34t32.5 88v130q0 55 -34 92t-86 37z" />
    <glyph glyph-name="Emacron" unicode="&#x112;" horiz-adv-x="679" 
d="M460 881v-81h-273v81h273zM21 0v36h30q11 0 33 24t22 36v536q0 11 -23 35.5t-33 24.5h-30v36h569v-206h-37q0 15 -55 86.5t-68 71.5h-158q-4 0 -11 -7t-7 -12v-259h126l107 98h4v-248h-4l-107 102h-126v-283q0 -5 6.5 -13t10.5 -8h158q26 0 108.5 82t82.5 101h40
l-44 -233h-594z" />
    <glyph glyph-name="emacron" unicode="&#x113;" horiz-adv-x="490" 
d="M398 654v-81h-284v81h284zM149 254q2 -69 42 -120t106 -51q54 0 84.5 21t56.5 65h37q-59 -180 -216 -180q-111 0 -172.5 71.5t-61.5 177.5q0 108 66 180.5t168 71.5q87 -1 135 -54t54 -122l3 -36zM332 314q17 131 -76 131q-59 0 -85 -42.5t-24 -103.5z" />
    <glyph glyph-name="Ebreve" unicode="&#x114;" horiz-adv-x="679" 
d="M334 776q-73 0 -113.5 41t-38.5 104l36 6q3 -69 114 -69q115 0 116 69l36 -6q2 -63 -37.5 -104t-112.5 -41zM21 0v36h30q11 0 33 24t22 36v536q0 11 -23 35.5t-33 24.5h-30v36h569v-206h-37q0 15 -55 86.5t-68 71.5h-158q-4 0 -11 -7t-7 -12v-259h126l107 98h4v-248h-4
l-107 102h-126v-283q0 -5 6.5 -13t10.5 -8h158q26 0 108.5 82t82.5 101h40l-44 -233h-594z" />
    <glyph glyph-name="ebreve" unicode="&#x115;" horiz-adv-x="490" 
d="M254 620q53 0 82.5 20t30.5 57l35 -6q0 -152 -148 -152t-148 152l35 6q1 -37 30.5 -57t82.5 -20zM149 254q2 -69 42 -120t106 -51q54 0 84.5 21t56.5 65h37q-59 -180 -216 -180q-111 0 -172.5 71.5t-61.5 177.5q0 108 66 180.5t168 71.5q87 -1 135 -54t54 -122l3 -36z
M332 314q17 131 -76 131q-59 0 -85 -42.5t-24 -103.5z" />
    <glyph glyph-name="Edotaccent" unicode="&#x116;" horiz-adv-x="679" 
d="M409 848q0 -34 -22 -55.5t-56 -21.5q-33 0 -55.5 22t-22.5 55t22.5 55t55.5 22q34 0 56 -21.5t22 -55.5zM21 0v36h30q11 0 33 24t22 36v536q0 11 -23 35.5t-33 24.5h-30v36h569v-206h-37q0 15 -55 86.5t-68 71.5h-158q-4 0 -11 -7t-7 -12v-259h126l107 98h4v-248h-4
l-107 102h-126v-283q0 -5 6.5 -13t10.5 -8h158q26 0 108.5 82t82.5 101h40l-44 -233h-594z" />
    <glyph glyph-name="edotaccent" unicode="&#x117;" horiz-adv-x="490" 
d="M176 637q0 33 20.5 52.5t52.5 19.5t52 -19.5t20 -52.5t-20 -53t-52 -20t-52.5 20t-20.5 53zM149 254q2 -69 42 -120t106 -51q54 0 84.5 21t56.5 65h37q-59 -180 -216 -180q-111 0 -172.5 71.5t-61.5 177.5q0 108 66 180.5t168 71.5q87 -1 135 -54t54 -122l3 -36zM332 314
q17 131 -76 131q-59 0 -85 -42.5t-24 -103.5z" />
    <glyph glyph-name="Eogonek" unicode="&#x118;" horiz-adv-x="679" 
d="M21 0v36h30q11 0 33 24t22 36v536q0 11 -23 35.5t-33 24.5h-30v36h569v-206h-37q0 15 -55 86.5t-68 71.5h-158q-4 0 -11 -7t-7 -12v-259h126l107 98h4v-248h-4l-107 102h-126v-283q0 -5 6.5 -13t10.5 -8h158q26 0 108.5 82t82.5 101h40l-44 -233h-180q-75 -78 -75 -117
q0 -17 11 -28t29 -11q23 0 50 32l26 -23q-26 -34 -51 -52t-60 -18q-41 0 -62 21t-21 55q0 68 110 141h-371z" />
    <glyph glyph-name="eogonek" unicode="&#x119;" horiz-adv-x="490" 
d="M149 254q2 -69 42 -120t106 -51q54 0 84.5 21t56.5 65h37q-45 -135 -144 -169q-75 -78 -75 -117q0 -17 11 -28t29 -11q23 0 50 32l26 -23q-26 -34 -51 -52t-60 -18q-41 0 -62 21t-21 55q0 64 94 131q-2 0 -6.5 -0.5t-6.5 -0.5q-111 0 -172.5 71.5t-61.5 177.5
q0 108 66 180.5t168 71.5q87 -1 135 -54t54 -122l3 -36zM332 314q17 131 -76 131q-59 0 -85 -42.5t-24 -103.5z" />
    <glyph glyph-name="Ecaron" unicode="&#x11a;" horiz-adv-x="679" 
d="M283 777l-99 157h50l97 -79l97 79h50l-99 -157h-96zM21 0v36h30q11 0 33 24t22 36v536q0 11 -23 35.5t-33 24.5h-30v36h569v-206h-37q0 15 -55 86.5t-68 71.5h-158q-4 0 -11 -7t-7 -12v-259h126l107 98h4v-248h-4l-107 102h-126v-283q0 -5 6.5 -13t10.5 -8h158
q26 0 108.5 82t82.5 101h40l-44 -233h-594z" />
    <glyph glyph-name="ecaron" unicode="&#x11b;" horiz-adv-x="490" 
d="M209 537l-94 176h45l97 -99l97 99h45l-94 -176h-96zM149 254q2 -69 42 -120t106 -51q54 0 84.5 21t56.5 65h37q-59 -180 -216 -180q-111 0 -172.5 71.5t-61.5 177.5q0 108 66 180.5t168 71.5q87 -1 135 -54t54 -122l3 -36zM332 314q17 131 -76 131q-59 0 -85 -42.5
t-24 -103.5z" />
    <glyph glyph-name="Gcircumflex" unicode="&#x11c;" horiz-adv-x="790" 
d="M439 934l99 -157h-50l-97 79l-97 -79h-50l99 157h96zM188 276q9 -106 67 -167t149 -61q62 0 98 24.5t36 62.5v92q0 10 -24 34.5t-31 24.5h-78v41h365v-39h-34q-7 0 -29 -24t-22 -34v-232h-5l-90 88q-58 -98 -202 -98q-111 0 -193.5 52.5t-123.5 137.5t-41 189
q0 158 95.5 266t254.5 108q42 0 102.5 -16t86.5 -16q30 0 43 19h40v-249h-43q0 16 -15.5 49t-41.5 70t-69.5 64.5t-91.5 27.5q-92 0 -144 -53t-60 -175q-6 -96 1 -186z" />
    <glyph glyph-name="gcircumflex" unicode="&#x11d;" horiz-adv-x="580" 
d="M316 713l94 -176h-45l-92 91l-92 -91h-45l94 176h86zM490 303q0 69 -47 119h122v133h-35q-32 -16 -57 -46t-33 -53l-9 -22q-64 56 -163 56q-93 0 -157.5 -50.5t-64.5 -128.5q0 -67 45.5 -109t96.5 -52q-146 -22 -146 -94q0 -58 88 -77q-41 -9 -75.5 -36t-34.5 -65
q0 -60 68 -84t193 -24q111 0 177 34t66 106q0 120 -132 122q-129 2 -188 6q-50 4 -50 41q0 39 55 43h62q99 0 159 48t60 133zM269 445q87 0 94 -95q3 -42 0 -84q-8 -97 -93 -97q-44 0 -67.5 26.5t-26.5 69.5q-3 42 0 84q8 96 93 96zM395 -74q28 0 44 -13.5t16 -37.5
q0 -67 -175 -67q-102 0 -142 18.5t-40 56.5q0 46 64 74q0 -31 233 -31z" />
    <glyph glyph-name="Gbreve" unicode="&#x11e;" horiz-adv-x="790" 
d="M403 776q-73 0 -113.5 41t-38.5 104l36 6q3 -69 114 -69q115 0 116 69l36 -6q2 -63 -37.5 -104t-112.5 -41zM188 276q9 -106 67 -167t149 -61q62 0 98 24.5t36 62.5v92q0 10 -24 34.5t-31 24.5h-78v41h365v-39h-34q-7 0 -29 -24t-22 -34v-232h-5l-90 88q-58 -98 -202 -98
q-111 0 -193.5 52.5t-123.5 137.5t-41 189q0 158 95.5 266t254.5 108q42 0 102.5 -16t86.5 -16q30 0 43 19h40v-249h-43q0 16 -15.5 49t-41.5 70t-69.5 64.5t-91.5 27.5q-92 0 -144 -53t-60 -175q-6 -96 1 -186z" />
    <glyph glyph-name="gbreve" unicode="&#x11f;" horiz-adv-x="580" 
d="M272 620q53 0 82.5 20t30.5 57l35 -6q0 -152 -148 -152t-148 152l35 6q1 -37 30.5 -57t82.5 -20zM490 303q0 -85 -60 -133t-159 -48h-62q-55 -4 -55 -43q0 -37 50 -41q59 -4 188 -6q132 -2 132 -122q0 -72 -66 -106t-177 -34q-125 0 -193 24t-68 84q0 38 34.5 65t75.5 36
q-88 19 -88 77q0 72 146 94q-51 10 -96.5 52t-45.5 109q0 78 64.5 128.5t157.5 50.5q99 0 163 -56q1 3 3.5 9.5t11 23t18.5 31t28 31t38 26.5h35v-133h-122q47 -50 47 -119zM269 445q-85 0 -93 -96q-3 -42 0 -84q3 -43 26.5 -69.5t67.5 -26.5q85 0 93 97q3 42 0 84
q-7 95 -94 95zM395 -74q-233 0 -233 31q-64 -28 -64 -74q0 -38 40 -56.5t142 -18.5q175 0 175 67q0 24 -16 37.5t-44 13.5z" />
    <glyph glyph-name="Gdotaccent" unicode="&#x120;" horiz-adv-x="790" 
d="M474 848q0 -34 -22 -55.5t-56 -21.5q-33 0 -55.5 22t-22.5 55t22.5 55t55.5 22q34 0 56 -21.5t22 -55.5zM188 276q9 -106 67 -167t149 -61q62 0 98 24.5t36 62.5v92q0 10 -24 34.5t-31 24.5h-78v41h365v-39h-34q-7 0 -29 -24t-22 -34v-232h-5l-90 88q-58 -98 -202 -98
q-111 0 -193.5 52.5t-123.5 137.5t-41 189q0 158 95.5 266t254.5 108q42 0 102.5 -16t86.5 -16q30 0 43 19h40v-249h-43q0 16 -15.5 49t-41.5 70t-69.5 64.5t-91.5 27.5q-92 0 -144 -53t-60 -175q-6 -96 1 -186z" />
    <glyph glyph-name="gdotaccent" unicode="&#x121;" horiz-adv-x="580" 
d="M198 637q0 33 20.5 52.5t52.5 19.5t52 -19.5t20 -52.5t-20 -53t-52 -20t-52.5 20t-20.5 53zM490 303q0 -85 -60 -133t-159 -48h-62q-55 -4 -55 -43q0 -37 50 -41q59 -4 188 -6q132 -2 132 -122q0 -72 -66 -106t-177 -34q-125 0 -193 24t-68 84q0 38 34.5 65t75.5 36
q-88 19 -88 77q0 72 146 94q-51 10 -96.5 52t-45.5 109q0 78 64.5 128.5t157.5 50.5q99 0 163 -56q1 3 3.5 9.5t11 23t18.5 31t28 31t38 26.5h35v-133h-122q47 -50 47 -119zM269 445q-85 0 -93 -96q-3 -42 0 -84q3 -43 26.5 -69.5t67.5 -26.5q85 0 93 97q3 42 0 84
q-7 95 -94 95zM395 -74q-233 0 -233 31q-64 -28 -64 -74q0 -38 40 -56.5t142 -18.5q175 0 175 67q0 24 -16 37.5t-44 13.5z" />
    <glyph glyph-name="uni0122" unicode="&#x122;" horiz-adv-x="790" 
d="M188 276q9 -106 67 -167t149 -61q62 0 98 24.5t36 62.5v92q0 10 -24 34.5t-31 24.5h-78v41h365v-39h-34q-7 0 -29 -24t-22 -34v-232h-5l-90 88q-58 -98 -202 -98q-111 0 -193.5 52.5t-123.5 137.5t-41 189q0 158 95.5 266t254.5 108q42 0 102.5 -16t86.5 -16q30 0 43 19
h40v-249h-43q0 16 -15.5 49t-41.5 70t-69.5 64.5t-91.5 27.5q-92 0 -144 -53t-60 -175q-6 -96 1 -186zM457 -102q7 -146 -125 -153v36q34 2 56 17t22 43h-28q-49 11 -49 59q0 26 17 42.5t45 16.5q27 0 43.5 -16.5t18.5 -44.5z" />
    <glyph glyph-name="uni0123" unicode="&#x123;" horiz-adv-x="580" 
d="M211 602q-7 146 125 153v-36q-34 -2 -56 -17t-22 -43h28q49 -11 49 -59q0 -26 -17 -42.5t-45 -16.5q-27 0 -43.5 16.5t-18.5 44.5zM490 303q0 69 -47 119h122v133h-35q-32 -16 -57 -46t-33 -53l-9 -22q-64 56 -163 56q-93 0 -157.5 -50.5t-64.5 -128.5q0 -67 45.5 -109
t96.5 -52q-146 -22 -146 -94q0 -58 88 -77q-41 -9 -75.5 -36t-34.5 -65q0 -60 68 -84t193 -24q111 0 177 34t66 106q0 120 -132 122q-129 2 -188 6q-50 4 -50 41q0 39 55 43h62q99 0 159 48t60 133zM269 445q87 0 94 -95q3 -42 0 -84q-8 -97 -93 -97q-44 0 -67.5 26.5
t-26.5 69.5q-3 42 0 84q8 96 93 96zM395 -74q28 0 44 -13.5t16 -37.5q0 -67 -175 -67q-102 0 -142 18.5t-40 56.5q0 46 64 74q0 -31 233 -31z" />
    <glyph glyph-name="Hcircumflex" unicode="&#x124;" horiz-adv-x="820" 
d="M462 934l99 -157h-50l-97 79l-97 -79h-50l99 157h96zM484 36h30q11 0 33 24t22 36v251h-317v-251q0 -12 22 -36t33 -24h30v-36h-316v36h30q11 0 33 24t22 36v536q0 11 -23 35.5t-33 24.5h-30v36h318v-36h-30q-10 0 -33 -24.5t-23 -35.5v-223h317v223q0 11 -22.5 35.5
t-33.5 24.5h-30v36h317v-36h-30q-10 0 -33 -24.5t-23 -35.5v-536q0 -12 22 -36t33 -24h30v-36h-315v36z" />
    <glyph glyph-name="hcircumflex" unicode="&#x125;" horiz-adv-x="611" 
d="M280 983l94 -176h-45l-92 91l-92 -91h-45l94 176h86zM90 642q0 11 -21.5 30.5t-31.5 19.5h-22v36q46 8 96.5 18.5t78.5 17.5l28 7v-389q30 34 47.5 51t54.5 37t76 20q57 0 96 -42.5t39 -99.5v-257q0 -12 20 -33.5t30 -21.5h20v-36h-271v36h20q11 0 32 21.5t21 33.5v245
q0 30 -15 47t-42 17q-36 0 -82 -31t-46 -54v-224q0 -12 20 -33.5t30 -21.5h20v-36h-271v36h20q11 0 32 21.5t21 33.5v551z" />
    <glyph glyph-name="Hbar" unicode="&#x126;" horiz-adv-x="820" 
d="M484 36h30q11 0 33 24t22 36v251h-317v-251q0 -12 22 -36t33 -24h30v-36h-316v36h30q11 0 33 24t22 36v407h-66v48h66v81q0 11 -23 35.5t-33 24.5h-30v36h318v-36h-30q-10 0 -33 -24.5t-23 -35.5v-81h317v81q0 11 -22.5 35.5t-33.5 24.5h-30v36h317v-36h-30
q-10 0 -33 -24.5t-23 -35.5v-81h66v-48h-66v-407q0 -12 22 -36t33 -24h30v-36h-315v36zM569 409v94h-317v-94h317z" />
    <glyph glyph-name="hbar" unicode="&#x127;" horiz-adv-x="611" 
d="M90 550h-75v56h75v36q0 11 -21.5 30.5t-31.5 19.5h-22v36q46 8 96.5 18.5t78.5 17.5l28 7v-165h177v-56h-177v-168q30 34 47.5 51t54.5 37t76 20q57 0 96 -42.5t39 -99.5v-257q0 -12 20 -33.5t30 -21.5h20v-36h-271v36h20q11 0 32 21.5t21 33.5v245q0 30 -15 47t-42 17
q-36 0 -82 -31t-46 -54v-224q0 -12 20 -33.5t30 -21.5h20v-36h-271v36h20q11 0 32 21.5t21 33.5v459z" />
    <glyph glyph-name="Itilde" unicode="&#x128;" horiz-adv-x="359" 
d="M311 795q-7 19 -18 28.5t-35 9.5q-22 0 -70.5 -24t-78.5 -24q-38 0 -61.5 25t-26.5 69l25 20q7 -19 18 -28.5t35 -9.5q22 0 70.5 24t78.5 24q38 0 61.5 -25t26.5 -69zM21 36h30q11 0 33 24t22 36v536q0 11 -23 35.5t-33 24.5h-30v36h319v-36h-30q-11 0 -33.5 -24.5
t-22.5 -35.5v-536q0 -12 22 -36t33 -24h30v-36h-317v36z" />
    <glyph glyph-name="itilde" unicode="&#x129;" horiz-adv-x="313" 
d="M279 562q-5 15 -8.5 22t-13.5 14t-25 7q-25 0 -68 -25t-75 -25q-84 0 -89 104l28 21q4 -14 7.5 -22t13.5 -15t26 -7q32 0 72.5 25t70.5 25q87 0 90 -103zM223 91q0 -12 22.5 -33.5t32.5 -21.5h20v-36h-278v36h20q11 0 33 21.5t22 33.5v297q0 11 -22 33t-33 22h-20v36h203
v-388z" />
    <glyph glyph-name="Imacron" unicode="&#x12a;" horiz-adv-x="359" 
d="M317 881v-81h-273v81h273zM21 36h30q11 0 33 24t22 36v536q0 11 -23 35.5t-33 24.5h-30v36h319v-36h-30q-11 0 -33.5 -24.5t-22.5 -35.5v-536q0 -12 22 -36t33 -24h30v-36h-317v36z" />
    <glyph glyph-name="imacron" unicode="&#x12b;" horiz-adv-x="313" 
d="M284 654v-81h-284v81h284zM223 91q0 -12 22.5 -33.5t32.5 -21.5h20v-36h-278v36h20q11 0 33 21.5t22 33.5v297q0 11 -22 33t-33 22h-20v36h203v-388z" />
    <glyph glyph-name="Ibreve" unicode="&#x12c;" horiz-adv-x="359" 
d="M181 776q-73 0 -113.5 41t-38.5 104l36 6q3 -69 114 -69q115 0 116 69l36 -6q2 -63 -37.5 -104t-112.5 -41zM21 36h30q11 0 33 24t22 36v536q0 11 -23 35.5t-33 24.5h-30v36h319v-36h-30q-11 0 -33.5 -24.5t-22.5 -35.5v-536q0 -12 22 -36t33 -24h30v-36h-317v36z" />
    <glyph glyph-name="ibreve" unicode="&#x12d;" horiz-adv-x="313" 
d="M148 620q53 0 82.5 20t30.5 57l35 -6q0 -152 -148 -152t-148 152l35 6q1 -37 30.5 -57t82.5 -20zM223 91q0 -12 22.5 -33.5t32.5 -21.5h20v-36h-278v36h20q11 0 33 21.5t22 33.5v297q0 11 -22 33t-33 22h-20v36h203v-388z" />
    <glyph glyph-name="Iogonek" unicode="&#x12e;" horiz-adv-x="359" 
d="M21 36h30q11 0 33 24t22 36v536q0 11 -23 35.5t-33 24.5h-30v36h319v-36h-30q-11 0 -33.5 -24.5t-22.5 -35.5v-536q0 -12 22 -36t33 -24h30v-36h-100q-75 -78 -75 -117q0 -17 11 -28t29 -11q23 0 50 32l26 -23q-26 -34 -51 -52t-60 -18q-41 0 -62 21t-21 55q0 68 110 141
h-174v36z" />
    <glyph glyph-name="iogonek" unicode="&#x12f;" horiz-adv-x="313" 
d="M81 650q0 33 21 53t54 20t53.5 -20t20.5 -53t-20.5 -53.5t-53.5 -20.5t-54 20.5t-21 53.5zM20 0v36h20q11 0 33 21.5t22 33.5v297q0 11 -22 33t-33 22h-20v36h203v-388q0 -12 22.5 -33.5t32.5 -21.5h20v-36h-75q-75 -78 -75 -117q0 -17 11 -28t29 -11q23 0 50 32l26 -23
q-26 -34 -51 -52t-60 -18q-41 0 -62 21t-21 55q0 68 110 141h-160z" />
    <glyph glyph-name="Idotaccent" unicode="&#x130;" horiz-adv-x="359" 
d="M257 848q0 -34 -22 -55.5t-56 -21.5q-33 0 -55.5 22t-22.5 55t22.5 55t55.5 22q34 0 56 -21.5t22 -55.5zM21 36h30q11 0 33 24t22 36v536q0 11 -23 35.5t-33 24.5h-30v36h319v-36h-30q-11 0 -33.5 -24.5t-22.5 -35.5v-536q0 -12 22 -36t33 -24h30v-36h-317v36z" />
    <glyph glyph-name="dotlessi" unicode="&#x131;" horiz-adv-x="313" 
d="M223 91q0 -12 22.5 -33.5t32.5 -21.5h20v-36h-278v36h20q11 0 33 21.5t22 33.5v297q0 11 -22 33t-33 22h-20v36h203v-388z" />
    <glyph glyph-name="Jcircumflex" unicode="&#x134;" horiz-adv-x="431" 
d="M304 934l99 -157h-50l-97 79l-97 -79h-50l99 157h96zM183 632q0 11 -22.5 35.5t-33.5 24.5h-30v36h319v-36h-30q-10 0 -33 -24.5t-23 -35.5v-529q0 -102 -50 -167t-135 -65q-130 0 -130 121v44h53v-44q0 -56 58 -56q59 0 59 66q0 15 -1 41t-1 43v546z" />
    <glyph glyph-name="jcircumflex" unicode="&#x135;" horiz-adv-x="321" 
d="M199 713l94 -176h-45l-92 91l-92 -91h-45l94 176h86zM114 -134q0 22 -2 64t-2 70v388q0 11 -22 33t-33 22h-20v36h203v-506q0 -88 -44.5 -145t-118.5 -57q-48 0 -74 24.5t-26 70.5v56h44v-56q0 -47 46 -47q49 0 49 47z" />
    <glyph glyph-name="uni0136" unicode="&#x136;" horiz-adv-x="755" 
d="M21 0v36h30q11 0 33 24t22 36v536q0 11 -23 35.5t-33 24.5h-30v36h318v-36h-29q-11 0 -34 -24.5t-23 -35.5v-273l237 263q8 9 -13 39.5t-32 30.5h-31v36h281v-36h-18q-10 0 -57.5 -32.5t-54.5 -41.5l-174 -184l250 -332q9 -13 43.5 -39t44.5 -26h22v-37h-226l-227 335
l-45 -48v-191q0 -12 21.5 -36t32.5 -24h29v-36h-314zM481 -100q7 -146 -125 -153v36q34 2 56 17t22 43h-28q-49 11 -49 59q0 26 17 42.5t45 16.5q27 0 43.5 -16.5t18.5 -44.5z" />
    <glyph glyph-name="uni0137" unicode="&#x137;" horiz-adv-x="593" 
d="M340 292l163 -187q58 -69 69 -69h21v-36h-176q-29 32 -166 214l-33 -30v-93q0 -12 20 -33.5t30 -21.5h15v-36h-268v36h20q11 0 33 21.5t22 33.5v551q0 11 -21.5 30.5t-31.5 19.5h-22v36q46 8 96.5 18.5t78.5 17.5l28 7v-535l137 134q10 11 -3 42.5t-26 31.5h-23v35h257
v-35h-21q-8 0 -53.5 -31.5t-59.5 -44.5zM407 -100q7 -146 -125 -153v36q34 2 56 17t22 43h-28q-49 11 -49 59q0 26 17 42.5t45 16.5q27 0 43.5 -16.5t18.5 -44.5z" />
    <glyph glyph-name="Lacute" unicode="&#x139;" horiz-adv-x="679" 
d="M374 917l-192 -140h-48l75 140h165zM339 728v-36h-30q-11 0 -33.5 -24.5t-22.5 -35.5v-561q0 -5 6.5 -13t10.5 -8h158q26 0 108.5 82t82.5 101h40l-44 -233h-594v36h30q11 0 33 24t22 36v536q0 11 -23 35.5t-33 24.5h-30v36h319z" />
    <glyph glyph-name="lacute" unicode="&#x13a;" horiz-adv-x="301" 
d="M314 927l-192 -140h-48l75 140h165zM218 91q0 -12 22.5 -33.5t32.5 -21.5h20v-36h-278v36h20q11 0 33 21.5t22 33.5v551q0 11 -21.5 30.5t-31.5 19.5h-22v36q46 8 96.5 18.5t78.5 17.5l28 7v-680z" />
    <glyph glyph-name="uni013B" unicode="&#x13b;" horiz-adv-x="679" 
d="M339 728v-36h-30q-11 0 -33.5 -24.5t-22.5 -35.5v-561q0 -5 6.5 -13t10.5 -8h158q26 0 108.5 82t82.5 101h40l-44 -233h-594v36h30q11 0 33 24t22 36v536q0 11 -23 35.5t-33 24.5h-30v36h319zM393 -102q7 -146 -125 -153v36q34 2 56 17t22 43h-28q-49 11 -49 59
q0 26 17 42.5t45 16.5q27 0 43.5 -16.5t18.5 -44.5z" />
    <glyph glyph-name="uni013C" unicode="&#x13c;" horiz-adv-x="303" 
d="M218 91q0 -12 22.5 -33.5t32.5 -21.5h20v-36h-278v36h20q11 0 33 21.5t22 33.5v551q0 11 -21.5 30.5t-31.5 19.5h-22v36q46 8 96.5 18.5t78.5 17.5l28 7v-680zM214 -100q7 -146 -125 -153v36q34 2 56 17t22 43h-28q-49 11 -49 59q0 26 17 42.5t45 16.5q27 0 43.5 -16.5
t18.5 -44.5z" />
    <glyph glyph-name="Lcaron" unicode="&#x13d;" horiz-adv-x="679" 
d="M521 728q4 -86 -32 -125.5t-106 -42.5v39q38 2 62 19t24 48h-31q-23 5 -38.5 21.5t-15.5 42.5q0 29 19 47t50 18q29 0 48 -18t20 -49zM339 728v-36h-30q-11 0 -33.5 -24.5t-22.5 -35.5v-561q0 -5 6.5 -13t10.5 -8h158q26 0 108.5 82t82.5 101h40l-44 -233h-594v36h30
q11 0 33 24t22 36v536q0 11 -23 35.5t-33 24.5h-30v36h319z" />
    <glyph glyph-name="lcaron" unicode="&#x13e;" horiz-adv-x="386" 
d="M218 91q0 -12 22.5 -33.5t32.5 -21.5h20v-36h-278v36h20q11 0 33 21.5t22 33.5v551q0 11 -21.5 30.5t-31.5 19.5h-22v36q46 8 96.5 18.5t78.5 17.5l28 7v-680zM380 702q7 -146 -125 -153v36q34 2 56 17t22 43h-28q-49 11 -49 59q0 26 17 42.5t45 16.5q27 0 43.5 -16.5
t18.5 -44.5z" />
    <glyph glyph-name="Ldot" unicode="&#x13f;" horiz-adv-x="679" 
d="M339 728v-36h-30q-11 0 -33.5 -24.5t-22.5 -35.5v-561q0 -5 6.5 -13t10.5 -8h158q26 0 108.5 82t82.5 101h40l-44 -233h-594v36h30q11 0 33 24t22 36v536q0 11 -23 35.5t-33 24.5h-30v36h319zM367 372q0 -32 21.5 -53.5t55.5 -21.5t55.5 21.5t21.5 53.5t-21.5 53.5
t-55.5 21.5t-55.5 -21.5t-21.5 -53.5z" />
    <glyph glyph-name="ldot" unicode="&#x140;" horiz-adv-x="418" 
d="M218 91q0 -12 22.5 -33.5t32.5 -21.5h20v-36h-278v36h20q11 0 33 21.5t22 33.5v551q0 11 -21.5 30.5t-31.5 19.5h-22v36q46 8 96.5 18.5t78.5 17.5l28 7v-680zM259 342q0 -32 21.5 -53.5t55.5 -21.5t55.5 21.5t21.5 53.5t-21.5 53.5t-55.5 21.5t-55.5 -21.5t-21.5 -53.5z
" />
    <glyph glyph-name="Lslash" unicode="&#x141;" horiz-adv-x="679" 
d="M339 728v-36h-30q-11 0 -33.5 -24.5t-22.5 -35.5v-248l206 131v-65l-206 -130v-249q0 -5 6.5 -13t10.5 -8h158q26 0 108.5 82t82.5 101h40l-44 -233h-594v36h30q11 0 33 24t22 36v132l-75 -47v63l75 47v341q0 11 -23 35.5t-33 24.5h-30v36h319z" />
    <glyph glyph-name="lslash" unicode="&#x142;" horiz-adv-x="303" 
d="M218 486l69 63v-74l-69 -64v-320q0 -12 22.5 -33.5t32.5 -21.5h20v-36h-278v36h20q11 0 33 21.5t22 33.5v202l-68 -62v76l68 62v273q0 11 -21.5 30.5t-31.5 19.5h-22v36q46 8 96.5 18.5t78.5 17.5l28 7v-285z" />
    <glyph glyph-name="Nacute" unicode="&#x143;" horiz-adv-x="824" 
d="M622 917l-192 -140h-48l75 140h165zM718 -11h-5l-546 608v-496q0 -12 24.5 -38.5t35.5 -26.5h40v-36h-246v36h30q11 0 33 24t22 36v536q0 11 -23 35.5t-33 24.5h-30v36h233l406 -456v355q0 11 -25 38t-36 27h-40v36h246v-36h-30q-10 0 -33 -24.5t-23 -35.5v-643z" />
    <glyph glyph-name="nacute" unicode="&#x144;" horiz-adv-x="609" 
d="M498 712l-194 -176h-41l79 176h156zM15 479h183l17 -97q30 33 47.5 50.5t55 37.5t76.5 20q57 0 96 -42.5t39 -99.5v-257q0 -12 20 -33.5t30 -21.5h20v-36h-271v36h20q11 0 32 21.5t21 33.5v245q0 30 -15 47t-42 17q-36 0 -82 -31t-46 -54v-224q0 -12 20 -33.5t30 -21.5
h20v-36h-271v36h20q11 0 32 21.5t21 33.5v297q0 12 -21 33.5t-32 21.5h-20v36z" />
    <glyph glyph-name="uni0145" unicode="&#x145;" horiz-adv-x="824" 
d="M718 -11h-5l-546 608v-496q0 -12 24.5 -38.5t35.5 -26.5h40v-36h-246v36h30q11 0 33 24t22 36v536q0 11 -23 35.5t-33 24.5h-30v36h233l406 -456v355q0 11 -25 38t-36 27h-40v36h246v-36h-30q-10 0 -33 -24.5t-23 -35.5v-643zM515 -100q7 -146 -125 -153v36q34 2 56 17
t22 43h-28q-49 11 -49 59q0 26 17 42.5t45 16.5q27 0 43.5 -16.5t18.5 -44.5z" />
    <glyph glyph-name="uni0146" unicode="&#x146;" horiz-adv-x="609" 
d="M15 479h183l17 -97q30 33 47.5 50.5t55 37.5t76.5 20q57 0 96 -42.5t39 -99.5v-257q0 -12 20 -33.5t30 -21.5h20v-36h-271v36h20q11 0 32 21.5t21 33.5v245q0 30 -15 47t-42 17q-36 0 -82 -31t-46 -54v-224q0 -12 20 -33.5t30 -21.5h20v-36h-271v36h20q11 0 32 21.5
t21 33.5v297q0 12 -21 33.5t-32 21.5h-20v36zM372 -102q7 -146 -125 -153v36q34 2 56 17t22 43h-28q-49 11 -49 59q0 26 17 42.5t45 16.5q27 0 43.5 -16.5t18.5 -44.5z" />
    <glyph glyph-name="Ncaron" unicode="&#x147;" horiz-adv-x="824" 
d="M371 777l-99 157h50l97 -79l97 79h50l-99 -157h-96zM718 -11h-5l-546 608v-496q0 -12 24.5 -38.5t35.5 -26.5h40v-36h-246v36h30q11 0 33 24t22 36v536q0 11 -23 35.5t-33 24.5h-30v36h233l406 -456v355q0 11 -25 38t-36 27h-40v36h246v-36h-30q-10 0 -33 -24.5
t-23 -35.5v-643z" />
    <glyph glyph-name="ncaron" unicode="&#x148;" horiz-adv-x="609" 
d="M255 537l-94 176h45l97 -99l97 99h45l-94 -176h-96zM15 443h20q11 0 32 -21.5t21 -33.5v-297q0 -12 -21 -33.5t-32 -21.5h-20v-36h271v36h-20q-10 0 -30 21.5t-20 33.5v224q0 23 46 54t82 31q27 0 42 -17t15 -47v-245q0 -12 -21 -33.5t-32 -21.5h-20v-36h271v36h-20
q-10 0 -30 21.5t-20 33.5v257q0 57 -39 99.5t-96 42.5q-39 0 -76.5 -20t-55 -37.5t-47.5 -50.5l-17 97h-183v-36z" />
    <glyph glyph-name="Eng" unicode="&#x14a;" horiz-adv-x="817" 
d="M603 102l-438 495v-496q0 -12 24.5 -38.5t35.5 -26.5h40v-36h-246v36h30q11 0 33 24t22 36v536q0 11 -22.5 35.5t-33.5 24.5h-30v36h233l406 -464v363q0 11 -25 38t-36 27h-40v36h246v-36h-30q-10 0 -33 -24.5t-23 -35.5v-614q0 -107 -34.5 -165.5t-116.5 -58.5
q-130 0 -130 121v44h53v-44q0 -56 58 -56q59 0 59 66q0 15 -1 37t-1 39v101z" />
    <glyph glyph-name="eng" unicode="&#x14b;" horiz-adv-x="609" 
d="M529 -27q0 -89 -44 -145.5t-118 -56.5q-48 0 -74 24.5t-26 70.5v56h44v-56q0 -47 46 -47q48 0 48 47q0 22 -2 64t-2 70v336q0 30 -15 47t-42 17q-36 0 -82 -31t-46 -54v-224q0 -12 20 -33.5t30 -21.5h20v-36h-271v36h20q11 0 32 21.5t21 33.5v297q0 12 -21 33.5t-32 21.5
h-20v36h183l17 -97q30 33 47.5 50.5t55 37.5t76.5 20q57 0 96 -42.5t39 -99.5v-375z" />
    <glyph glyph-name="Omacron" unicode="&#x14c;" horiz-adv-x="816" 
d="M544 881v-81h-273v81h273zM411 -13q-162 0 -271.5 107.5t-109.5 267.5q0 162 105 270.5t270 108.5t273 -109t108 -269t-107 -268t-268 -108zM189 241q10 -91 72 -143t157 -52q94 0 147 51.5t64 143.5q14 117 0 249q-10 91 -72 144.5t-157 53.5q-94 0 -147.5 -53
t-63.5 -145q-5 -49 -5 -125t5 -124z" />
    <glyph glyph-name="omacron" unicode="&#x14d;" horiz-adv-x="553" 
d="M421 654v-81h-284v81h284zM278 -12q-103 0 -178 69t-75 183t74.5 182.5t178.5 68.5q103 0 176.5 -68t73.5 -183t-73.5 -183.5t-176.5 -68.5zM279 43q105 0 118 120q9 78 0 158q-13 122 -118 122q-107 0 -120 -121q-9 -78 0 -158q13 -121 120 -121z" />
    <glyph glyph-name="Obreve" unicode="&#x14e;" horiz-adv-x="816" 
d="M409 776q-73 0 -113.5 41t-38.5 104l36 6q3 -69 114 -69q115 0 116 69l36 -6q2 -63 -37.5 -104t-112.5 -41zM411 -13q-162 0 -271.5 107.5t-109.5 267.5q0 162 105 270.5t270 108.5t273 -109t108 -269t-107 -268t-268 -108zM189 241q10 -91 72 -143t157 -52
q94 0 147 51.5t64 143.5q14 117 0 249q-10 91 -72 144.5t-157 53.5q-94 0 -147.5 -53t-63.5 -145q-5 -49 -5 -125t5 -124z" />
    <glyph glyph-name="obreve" unicode="&#x14f;" horiz-adv-x="553" 
d="M279 620q53 0 82.5 20t30.5 57l35 -6q0 -152 -148 -152t-148 152l35 6q1 -37 30.5 -57t82.5 -20zM278 -12q-103 0 -178 69t-75 183t74.5 182.5t178.5 68.5q103 0 176.5 -68t73.5 -183t-73.5 -183.5t-176.5 -68.5zM279 43q105 0 118 120q9 78 0 158q-13 122 -118 122
q-107 0 -120 -121q-9 -78 0 -158q13 -121 120 -121z" />
    <glyph glyph-name="Ohungarumlaut" unicode="&#x150;" horiz-adv-x="816" 
d="M486 917l-157 -140h-46l55 140h148zM670 917l-159 -140h-48l55 140h152zM411 -13q-162 0 -271.5 107.5t-109.5 267.5q0 162 105 270.5t270 108.5t273 -109t108 -269t-107 -268t-268 -108zM189 241q10 -91 72 -143t157 -52q94 0 147 51.5t64 143.5q14 117 0 249
q-10 91 -72 144.5t-157 53.5q-94 0 -147.5 -53t-63.5 -145q-5 -49 -5 -125t5 -124z" />
    <glyph glyph-name="ohungarumlaut" unicode="&#x151;" horiz-adv-x="553" 
d="M370 713l-165 -176h-42l70 176h137zM548 713l-177 -176h-44l80 176h141zM278 -12q-103 0 -178 69t-75 183t74.5 182.5t178.5 68.5q103 0 176.5 -68t73.5 -183t-73.5 -183.5t-176.5 -68.5zM279 43q105 0 118 120q9 78 0 158q-13 122 -118 122q-107 0 -120 -121
q-9 -78 0 -158q13 -121 120 -121z" />
    <glyph glyph-name="OE" unicode="&#x152;" horiz-adv-x="1074" 
d="M514 0q-54 -13 -106 -13q-162 0 -270 107.5t-108 267.5q0 162 104 270.5t268 108.5q61 0 112 -13h470v-206h-37q0 15 -55 86.5t-68 71.5h-147q-4 0 -11 -7t-7 -12v-259h121l107 98h4v-248h-4l-107 102h-121v-283q0 -5 6.5 -13t10.5 -8h147q27 0 109 82t82 101h40
l-44 -233h-496zM189 242q11 -92 70.5 -144t153.5 -52q62 0 101 18v600q-51 24 -119 24q-93 0 -144.5 -53t-61.5 -145q-13 -125 0 -248z" />
    <glyph glyph-name="oe" unicode="&#x153;" horiz-adv-x="845" 
d="M499 254q2 -69 43 -120t108 -51q54 0 83 20.5t55 65.5h37q-59 -180 -213 -180q-113 0 -173 79q-66 -80 -177 -80q-102 0 -174.5 69.5t-72.5 182.5t72.5 182t174.5 69q116 0 179 -82q64 81 171 81q87 -1 134.5 -54t53.5 -122l3 -36zM684 314q17 132 -75 132q-59 0 -86 -43
t-25 -104zM263 42q103 0 116 124q9 75 0 152q-6 59 -35 92.5t-81 33.5q-53 0 -82.5 -33t-35.5 -92q-9 -75 0 -152q6 -59 35.5 -92t82.5 -33z" />
    <glyph glyph-name="Racute" unicode="&#x154;" horiz-adv-x="766" 
d="M511 917l-192 -140h-48l75 140h165zM761 0h-209q-140 227 -223 336h-76v-240q0 -12 22 -36t33 -24h30v-36h-317v36h30q11 0 33 24t22 36v536q0 11 -23 35.5t-33 24.5h-30v36h307q126 0 205.5 -43t79.5 -140q0 -143 -196 -180l80 -18q66 -103 171 -245q11 -15 39.5 -40
t37.5 -25h17v-37zM286 682q-9 0 -21 -12.5t-12 -21.5v-261h62q65 0 104 28.5t43 83.5q3 36 0 71q-5 56 -42 84t-95 28h-39z" />
    <glyph glyph-name="racute" unicode="&#x155;" horiz-adv-x="442" 
d="M421 713l-194 -176h-41l79 176h156zM90 388q0 12 -21 33.5t-32 21.5h-20v36h174l19 -106q32 60 64 88.5t80 28.5q38 0 68 -11v-125h-32q-21 37 -66 37q-33 0 -59 -16t-36.5 -31.5t-10.5 -24.5v-228q0 -12 22.5 -33.5t32.5 -21.5h20v-36h-278v36h20q11 0 33 21.5t22 33.5
v297z" />
    <glyph glyph-name="uni0156" unicode="&#x156;" horiz-adv-x="766" 
d="M761 0h-209q-140 227 -223 336h-76v-240q0 -12 22 -36t33 -24h30v-36h-317v36h30q11 0 33 24t22 36v536q0 11 -23 35.5t-33 24.5h-30v36h307q126 0 205.5 -43t79.5 -140q0 -143 -196 -180l80 -18q66 -103 171 -245q11 -15 39.5 -40t37.5 -25h17v-37zM286 682
q-9 0 -21 -12.5t-12 -21.5v-261h62q65 0 104 28.5t43 83.5q3 36 0 71q-5 56 -42 84t-95 28h-39zM485 -102q7 -146 -125 -153v36q34 2 56 17t22 43h-28q-49 11 -49 59q0 26 17 42.5t45 16.5q27 0 43.5 -16.5t18.5 -44.5z" />
    <glyph glyph-name="uni0157" unicode="&#x157;" horiz-adv-x="442" 
d="M90 388q0 12 -21 33.5t-32 21.5h-20v36h174l19 -106q32 60 64 88.5t80 28.5q38 0 68 -11v-125h-32q-21 37 -66 37q-33 0 -59 -16t-36.5 -31.5t-10.5 -24.5v-228q0 -12 22.5 -33.5t32.5 -21.5h20v-36h-278v36h20q11 0 33 21.5t22 33.5v297zM217 -102q7 -146 -125 -153v36
q34 2 56 17t22 43h-28q-49 11 -49 59q0 26 17 42.5t45 16.5q27 0 43.5 -16.5t18.5 -44.5z" />
    <glyph glyph-name="Rcaron" unicode="&#x158;" horiz-adv-x="766" 
d="M276 777l-99 157h50l97 -79l97 79h50l-99 -157h-96zM761 0h-209q-140 227 -223 336h-76v-240q0 -12 22 -36t33 -24h30v-36h-317v36h30q11 0 33 24t22 36v536q0 11 -23 35.5t-33 24.5h-30v36h307q126 0 205.5 -43t79.5 -140q0 -143 -196 -180l80 -18q66 -103 171 -245
q11 -15 39.5 -40t37.5 -25h17v-37zM286 682q-9 0 -21 -12.5t-12 -21.5v-261h62q65 0 104 28.5t43 83.5q3 36 0 71q-5 56 -42 84t-95 28h-39z" />
    <glyph glyph-name="rcaron" unicode="&#x159;" horiz-adv-x="442" 
d="M181 537l-94 176h45l97 -99l97 99h45l-94 -176h-96zM90 388q0 12 -21 33.5t-32 21.5h-20v36h174l19 -106q32 60 64 88.5t80 28.5q38 0 68 -11v-125h-32q-21 37 -66 37q-33 0 -59 -16t-36.5 -31.5t-10.5 -24.5v-228q0 -12 22.5 -33.5t32.5 -21.5h20v-36h-278v36h20
q11 0 33 21.5t22 33.5v297z" />
    <glyph glyph-name="Sacute" unicode="&#x15a;" horiz-adv-x="598" 
d="M482 917l-192 -140h-48l75 140h165zM509 503h-39q-1 21 -28.5 64t-77.5 83t-100 40q-55 0 -84 -24.5t-29 -69.5q0 -32 26 -60.5t60 -45.5q89 -45 178 -81q148 -60 148 -203q0 -97 -66.5 -157.5t-170.5 -60.5q-41 0 -99.5 18.5t-86.5 18.5q-37 0 -54 -25h-37v236h39
q0 -15 21 -46.5t53 -64t77.5 -57t87.5 -24.5q58 0 91.5 24.5t33.5 72.5q0 71 -96 111q-85 35 -179 86q-137 73 -137 198q0 90 61.5 147.5t160.5 57.5q35 0 85 -15.5t76 -15.5q38 0 50 18h36v-225z" />
    <glyph glyph-name="sacute" unicode="&#x15b;" horiz-adv-x="433" 
d="M412 713l-194 -176h-41l79 176h156zM69 166q0 -31 54 -79t120 -48q34 0 53.5 14t19.5 40q0 45 -71 71q-50 19 -105 45q-105 49 -105 139q0 66 43 104t115 38q29 0 70 -12t54 -12q19 0 27 13h30v-149h-32q0 28 -48 72t-106 44q-32 0 -49.5 -14.5t-17.5 -39.5
q0 -16 12 -29.5t24 -20t36 -17.5q55 -24 102 -43q48 -19 80.5 -57t32.5 -89q0 -68 -46 -107.5t-123 -39.5q-34 0 -81.5 14t-59.5 14q-18 0 -31 -17h-30v166h32z" />
    <glyph glyph-name="Scircumflex" unicode="&#x15c;" horiz-adv-x="598" 
d="M343 934l99 -157h-50l-97 79l-97 -79h-50l99 157h96zM509 503h-39q-1 21 -28.5 64t-77.5 83t-100 40q-55 0 -84 -24.5t-29 -69.5q0 -32 26 -60.5t60 -45.5q89 -45 178 -81q148 -60 148 -203q0 -97 -66.5 -157.5t-170.5 -60.5q-41 0 -99.5 18.5t-86.5 18.5q-37 0 -54 -25
h-37v236h39q0 -15 21 -46.5t53 -64t77.5 -57t87.5 -24.5q58 0 91.5 24.5t33.5 72.5q0 71 -96 111q-85 35 -179 86q-137 73 -137 198q0 90 61.5 147.5t160.5 57.5q35 0 85 -15.5t76 -15.5q38 0 50 18h36v-225z" />
    <glyph glyph-name="scircumflex" unicode="&#x15d;" horiz-adv-x="433" 
d="M257 713l94 -176h-45l-92 91l-92 -91h-45l94 176h86zM69 166q0 -31 54 -79t120 -48q34 0 53.5 14t19.5 40q0 45 -71 71q-50 19 -105 45q-105 49 -105 139q0 66 43 104t115 38q29 0 70 -12t54 -12q19 0 27 13h30v-149h-32q0 28 -48 72t-106 44q-32 0 -49.5 -14.5
t-17.5 -39.5q0 -16 12 -29.5t24 -20t36 -17.5q55 -24 102 -43q48 -19 80.5 -57t32.5 -89q0 -68 -46 -107.5t-123 -39.5q-34 0 -81.5 14t-59.5 14q-18 0 -31 -17h-30v166h32z" />
    <glyph glyph-name="Scedilla" unicode="&#x15e;" horiz-adv-x="598" 
d="M271 -5q-11 2 -58 16t-73 14q-37 0 -54 -25h-37v236h39q0 -15 21 -46.5t53 -64t77.5 -57t87.5 -24.5q58 0 91.5 24.5t33.5 72.5q0 71 -96 111q-85 35 -179 86q-137 73 -137 198q0 90 61.5 147.5t160.5 57.5q35 0 85 -15.5t76 -15.5q38 0 50 18h36v-225h-39
q-1 21 -28.5 64t-77.5 83t-100 40q-55 0 -84 -24.5t-29 -69.5q0 -32 26 -60.5t60 -45.5q89 -45 178 -81q148 -60 148 -203q0 -96 -66 -156t-168 -62l-60 -73q25 16 53 16q33 0 53 -19t20 -52q0 -41 -30 -65t-76 -24q-63 0 -97 47l28 27q21 -32 59 -32q51 0 51 40
q0 38 -41 38q-13 0 -26 -6l-28 20z" />
    <glyph glyph-name="scedilla" unicode="&#x15f;" horiz-adv-x="433" 
d="M181 -3q-12 3 -30.5 8.5t-31 8.5t-21.5 3q-18 0 -31 -17h-30v166h32q0 -31 54 -79t120 -48q34 0 53.5 14t19.5 40q0 45 -71 71q-50 19 -105 45q-105 49 -105 139q0 66 43 104t115 38q29 0 70 -12t54 -12q19 0 27 13h30v-149h-32q0 28 -48 72t-106 44q-32 0 -49.5 -14.5
t-17.5 -39.5q0 -16 12 -29.5t24 -20t36 -17.5q55 -24 102 -43q48 -19 80.5 -57t32.5 -89q0 -68 -46 -107.5t-123 -39.5h-5l-51 -62q25 16 53 16q33 0 53 -19t20 -52q0 -41 -30 -65t-76 -24q-63 0 -97 47l28 27q21 -32 59 -32q51 0 51 40q0 38 -41 38q-13 0 -26 -6l-28 20z
" />
    <glyph glyph-name="Scaron" unicode="&#x160;" horiz-adv-x="598" 
d="M242 777l-99 157h50l97 -79l97 79h50l-99 -157h-96zM509 503h-39q-1 21 -28.5 64t-77.5 83t-100 40q-55 0 -84 -24.5t-29 -69.5q0 -32 26 -60.5t60 -45.5q89 -45 178 -81q148 -60 148 -203q0 -97 -66.5 -157.5t-170.5 -60.5q-41 0 -99.5 18.5t-86.5 18.5q-37 0 -54 -25
h-37v236h39q0 -15 21 -46.5t53 -64t77.5 -57t87.5 -24.5q58 0 91.5 24.5t33.5 72.5q0 71 -96 111q-85 35 -179 86q-137 73 -137 198q0 90 61.5 147.5t160.5 57.5q35 0 85 -15.5t76 -15.5q38 0 50 18h36v-225z" />
    <glyph glyph-name="scaron" unicode="&#x161;" horiz-adv-x="433" 
d="M166 537l-94 176h45l97 -99l97 99h45l-94 -176h-96zM69 166q0 -31 54 -79t120 -48q34 0 53.5 14t19.5 40q0 45 -71 71q-50 19 -105 45q-105 49 -105 139q0 66 43 104t115 38q29 0 70 -12t54 -12q19 0 27 13h30v-149h-32q0 28 -48 72t-106 44q-32 0 -49.5 -14.5
t-17.5 -39.5q0 -16 12 -29.5t24 -20t36 -17.5q55 -24 102 -43q48 -19 80.5 -57t32.5 -89q0 -68 -46 -107.5t-123 -39.5q-34 0 -81.5 14t-59.5 14q-18 0 -31 -17h-30v166h32z" />
    <glyph glyph-name="uni0162" unicode="&#x162;" horiz-adv-x="729" 
d="M346 0h-167v37h49q9 0 32 25t23 35v582h-97q-7 0 -21 -17t-31 -44t-31.5 -52t-28.5 -49.5t-15 -26.5h-39l9 249q64 -11 157 -11h357q91 0 157 11l9 -249h-39q-1 2 -15 26.5t-28.5 49.5t-31.5 52t-31 44t-21 17h-99v-582q0 -10 23 -35t31 -25h49v-37h-136l-70 -85
q25 16 53 16q33 0 53 -19t20 -52q0 -41 -30 -65t-76 -24q-63 0 -97 47l28 27q21 -32 59 -32q51 0 51 40q0 38 -41 38q-13 0 -26 -6l-28 20z" />
    <glyph glyph-name="uni0163" unicode="&#x163;" horiz-adv-x="371" 
d="M167 -6q-36 9 -57.5 36.5t-21.5 69.5v326h-73v36q94 63 166 149h32v-132h132v-53h-129v-311q0 -21 12.5 -33t33.5 -12q40 0 77 28l22 -31q-21 -22 -60.5 -47t-78.5 -30l-52 -63q25 16 53 16q33 0 53 -19t20 -52q0 -41 -30 -65t-76 -24q-63 0 -97 47l28 27q21 -32 59 -32
q51 0 51 40q0 38 -41 38q-12 0 -26 -6l-28 20z" />
    <glyph glyph-name="Tcaron" unicode="&#x164;" horiz-adv-x="729" 
d="M315 777l-99 157h50l97 -79l97 79h50l-99 -157h-96zM444 679v-582q0 -10 23 -35t31 -25h49v-37h-368v37h49q9 0 32 25t23 35v582h-97q-7 0 -21 -17t-31 -44t-31.5 -52t-28.5 -49.5t-15 -26.5h-39l9 249q64 -11 157 -11h357q91 0 157 11l9 -249h-39q-1 2 -15 26.5
t-28.5 49.5t-31.5 52t-31 44t-21 17h-99z" />
    <glyph glyph-name="tcaron" unicode="&#x165;" horiz-adv-x="390" 
d="M384 702q7 -146 -125 -153v36q34 2 56 17t22 43h-28q-49 11 -49 59q0 26 17 42.5t45 16.5q27 0 43.5 -16.5t18.5 -44.5zM216 115q0 -21 12.5 -33t33.5 -12q40 0 77 28l22 -31q-24 -25 -68.5 -51.5t-86.5 -26.5q-52 0 -85 29.5t-33 81.5v326h-73v36q94 63 166 149h32v-132
h132v-53h-129v-311z" />
    <glyph glyph-name="Tbar" unicode="&#x166;" horiz-adv-x="729" 
d="M444 679v-298h132v-48h-132v-236q0 -10 23 -35t31 -25h49v-37h-368v37h49q9 0 32 25t23 35v236h-131v48h131v298h-97q-7 0 -21 -17t-31 -44t-31.5 -52t-28.5 -49.5t-15 -26.5h-39l9 249q64 -11 157 -11h357q91 0 157 11l9 -249h-39q-1 2 -15 26.5t-28.5 49.5t-31.5 52
t-31 44t-21 17h-99z" />
    <glyph glyph-name="tbar" unicode="&#x167;" horiz-adv-x="371" 
d="M216 308h129v-56h-129v-137q0 -21 12.5 -33t33.5 -12q40 0 77 28l22 -31q-24 -25 -68.5 -51.5t-86.5 -26.5q-52 0 -85 29.5t-33 81.5v152h-73v56h73v118h-73v36q94 63 166 149h32v-132h132v-53h-129v-118z" />
    <glyph glyph-name="Utilde" unicode="&#x168;" horiz-adv-x="775" 
d="M561 795q-7 19 -18 28.5t-35 9.5q-22 0 -70.5 -24t-78.5 -24q-38 0 -61.5 25t-26.5 69l25 20q7 -19 18 -28.5t35 -9.5q22 0 70.5 24t78.5 24q38 0 61.5 -25t26.5 -69zM248 244q0 -90 47 -139t140 -49q89 0 134.5 49.5t45.5 137.5v384q0 11 -25 38t-36 27h-40v36h246v-36
h-30q-10 0 -33 -24.5t-23 -35.5v-388q0 -122 -72.5 -189t-202.5 -67q-131 0 -214.5 68t-83.5 188v388q0 11 -23 35.5t-33 24.5h-30v36h334v-36h-40q-11 0 -36 -27t-25 -38v-383z" />
    <glyph glyph-name="utilde" unicode="&#x169;" horiz-adv-x="609" 
d="M417 562q-5 15 -8.5 22t-13.5 14t-25 7q-25 0 -68 -25t-75 -25q-84 0 -89 104l28 21q4 -14 7.5 -22t13.5 -15t26 -7q32 0 72.5 25t70.5 25q87 0 90 -103zM208 143q0 -30 15 -47t42 -17q36 0 82 33t46 57v219q0 12 -20 33.5t-30 21.5h-25v36h204l-1 -388q0 -12 21 -33.5
t32 -21.5h20v-36h-183l-17 97q-30 -33 -47.5 -50.5t-55 -37.5t-76.5 -20q-57 0 -96 42.5t-39 99.5v257q0 12 -20 33.5t-30 21.5h-20v36h198v-336z" />
    <glyph glyph-name="Umacron" unicode="&#x16a;" horiz-adv-x="775" 
d="M569 881v-81h-273v81h273zM248 244q0 -90 47 -139t140 -49q89 0 134.5 49.5t45.5 137.5v384q0 11 -25 38t-36 27h-40v36h246v-36h-30q-10 0 -33 -24.5t-23 -35.5v-388q0 -122 -72.5 -189t-202.5 -67q-131 0 -214.5 68t-83.5 188v388q0 11 -23 35.5t-33 24.5h-30v36h334
v-36h-40q-11 0 -36 -27t-25 -38v-383z" />
    <glyph glyph-name="umacron" unicode="&#x16b;" horiz-adv-x="609" 
d="M436 654v-81h-284v81h284zM208 143q0 -30 15 -47t42 -17q36 0 82 33t46 57v219q0 12 -20 33.5t-30 21.5h-25v36h204l-1 -388q0 -12 21 -33.5t32 -21.5h20v-36h-183l-17 97q-30 -33 -47.5 -50.5t-55 -37.5t-76.5 -20q-57 0 -96 42.5t-39 99.5v257q0 12 -20 33.5t-30 21.5
h-20v36h198v-336z" />
    <glyph glyph-name="Ubreve" unicode="&#x16c;" horiz-adv-x="775" 
d="M433 776q-73 0 -113.5 41t-38.5 104l36 6q3 -69 114 -69q115 0 116 69l36 -6q2 -63 -37.5 -104t-112.5 -41zM248 244q0 -90 47 -139t140 -49q89 0 134.5 49.5t45.5 137.5v384q0 11 -25 38t-36 27h-40v36h246v-36h-30q-10 0 -33 -24.5t-23 -35.5v-388q0 -122 -72.5 -189
t-202.5 -67q-131 0 -214.5 68t-83.5 188v388q0 11 -23 35.5t-33 24.5h-30v36h334v-36h-40q-11 0 -36 -27t-25 -38v-383z" />
    <glyph glyph-name="ubreve" unicode="&#x16d;" horiz-adv-x="609" 
d="M302 620q53 0 82.5 20t30.5 57l35 -6q0 -152 -148 -152t-148 152l35 6q1 -37 30.5 -57t82.5 -20zM208 143q0 -30 15 -47t42 -17q36 0 82 33t46 57v219q0 12 -20 33.5t-30 21.5h-25v36h204l-1 -388q0 -12 21 -33.5t32 -21.5h20v-36h-183l-17 97q-30 -33 -47.5 -50.5
t-55 -37.5t-76.5 -20q-57 0 -96 42.5t-39 99.5v257q0 12 -20 33.5t-30 21.5h-20v36h198v-336z" />
    <glyph glyph-name="Uring" unicode="&#x16e;" horiz-adv-x="775" 
d="M321 865q0 48 32 77.5t79 29.5q46 0 78 -29.5t32 -77.5t-32 -77.5t-78 -29.5q-47 0 -79 29.5t-32 77.5zM375 865q0 -25 15.5 -40.5t41.5 -15.5q25 0 40.5 15.5t15.5 40.5t-15.5 40t-40.5 15q-26 0 -41.5 -15t-15.5 -40zM248 244q0 -90 47 -139t140 -49q89 0 134.5 49.5
t45.5 137.5v384q0 11 -25 38t-36 27h-40v36h246v-36h-30q-10 0 -33 -24.5t-23 -35.5v-388q0 -122 -72.5 -189t-202.5 -67q-131 0 -214.5 68t-83.5 188v388q0 11 -23 35.5t-33 24.5h-30v36h334v-36h-40q-11 0 -36 -27t-25 -38v-383z" />
    <glyph glyph-name="uring" unicode="&#x16f;" horiz-adv-x="609" 
d="M187 636q0 46 30.5 74t76.5 28t76 -28t30 -74t-30 -74t-76 -28t-76.5 28t-30.5 74zM239 636q0 -25 15.5 -39t39.5 -14q23 0 38.5 14t15.5 39t-15.5 39.5t-38.5 14.5t-39 -14.5t-16 -39.5zM208 143q0 -30 15 -47t42 -17q36 0 82 33t46 57v219q0 12 -20 33.5t-30 21.5h-25
v36h204l-1 -388q0 -12 21 -33.5t32 -21.5h20v-36h-183l-17 97q-30 -33 -47.5 -50.5t-55 -37.5t-76.5 -20q-57 0 -96 42.5t-39 99.5v257q0 12 -20 33.5t-30 21.5h-20v36h198v-336z" />
    <glyph glyph-name="Uhungarumlaut" unicode="&#x170;" horiz-adv-x="775" 
d="M510 917l-157 -140h-46l55 140h148zM694 917l-159 -140h-48l55 140h152zM248 244q0 -90 47 -139t140 -49q89 0 134.5 49.5t45.5 137.5v384q0 11 -25 38t-36 27h-40v36h246v-36h-30q-10 0 -33 -24.5t-23 -35.5v-388q0 -122 -72.5 -189t-202.5 -67q-131 0 -214.5 68
t-83.5 188v388q0 11 -23 35.5t-33 24.5h-30v36h334v-36h-40q-11 0 -36 -27t-25 -38v-383z" />
    <glyph glyph-name="uhungarumlaut" unicode="&#x171;" horiz-adv-x="609" 
d="M373 713l-165 -176h-42l70 176h137zM551 713l-177 -176h-44l80 176h141zM208 143q0 -30 15 -47t42 -17q36 0 82 33t46 57v219q0 12 -20 33.5t-30 21.5h-25v36h204l-1 -388q0 -12 21 -33.5t32 -21.5h20v-36h-183l-17 97q-30 -33 -47.5 -50.5t-55 -37.5t-76.5 -20
q-57 0 -96 42.5t-39 99.5v257q0 12 -20 33.5t-30 21.5h-20v36h198v-336z" />
    <glyph glyph-name="Uogonek" unicode="&#x172;" horiz-adv-x="775" 
d="M248 244q0 -90 47 -139t140 -49q89 0 134.5 49.5t45.5 137.5v384q0 11 -25 38t-36 27h-40v36h246v-36h-30q-10 0 -33 -24.5t-23 -35.5v-388q0 -96 -46 -158.5t-131 -85.5h1q-75 -78 -75 -117q0 -17 11 -28t29 -11q23 0 50 32l26 -23q-26 -34 -51 -52t-60 -18
q-41 0 -62 21t-21 55q0 63 95 131q-26 -2 -41 -2q-131 0 -214.5 68t-83.5 188v388q0 11 -23 35.5t-33 24.5h-30v36h334v-36h-40q-11 0 -36 -27t-25 -38v-383z" />
    <glyph glyph-name="uogonek" unicode="&#x173;" horiz-adv-x="609" 
d="M594 0h-42q-75 -78 -75 -117q0 -17 11 -28t29 -11q23 0 50 32l26 -23q-26 -34 -51 -52t-60 -18q-41 0 -62 21t-21 55q0 68 110 141h-98l-17 97q-30 -33 -47.5 -50.5t-55 -37.5t-76.5 -20q-57 0 -96 42.5t-39 99.5v257q0 12 -20 33.5t-30 21.5h-20v36h198v-336
q0 -30 15 -47t42 -17q36 0 82 33t46 57v219q0 12 -20 33.5t-30 21.5h-25v36h204l-1 -388q0 -12 21 -33.5t32 -21.5h20v-36z" />
    <glyph glyph-name="Wcircumflex" unicode="&#x174;" horiz-adv-x="1063" 
d="M623 934l99 -157h-50l-97 79l-97 -79h-50l99 157h96zM782 29l-62 -41l-190 542l-174 -501l-61 -41l-196 638q-11 15 -38.5 40t-36.5 25h-14v37h340v-37h-35q-11 -1 -32.5 -26.5t-21.5 -38.5l103 -380l127 355l121 140l178 -496l105 380q-2 14 -21.5 40t-30.5 26h-34v37
h244v-37h-13q-10 -1 -40.5 -26.5t-39.5 -39.5z" />
    <glyph glyph-name="wcircumflex" unicode="&#x175;" horiz-adv-x="774" 
d="M470 713l94 -176h-45l-92 91l-92 -91h-45l94 176h86zM647 385q-1 13 -13 35.5t-21 22.5h-35v36h196v-36h-20q-8 0 -27.5 -22t-27.5 -36l-140 -363l-47 -33l-124 334l-122 -301l-47 -33l-145 395q-8 15 -27.5 37t-26.5 22h-20v36h276v-36h-32q-9 0 -21.5 -21.5
t-13.5 -35.5l66 -206l87 218l87 81l124 -298z" />
    <glyph glyph-name="Ycircumflex" unicode="&#x176;" horiz-adv-x="695" 
d="M441 934l99 -157h-50l-97 79l-97 -79h-50l99 157h96zM277 351l-181 275q-11 15 -39.5 40t-37.5 25h-14v37h348v-37h-35q-11 -1 -32.5 -26.5t-21.5 -38.5l133 -220l133 219q-2 14 -21.5 40t-30.5 26h-34v37h246v-37h-13q-10 -1 -40.5 -26.5t-39.5 -39.5l-173 -273v-251
q0 -12 24.5 -38.5t35.5 -26.5h30v-36h-327v36h30q11 0 35.5 26.5t24.5 38.5v250z" />
    <glyph glyph-name="ycircumflex" unicode="&#x177;" horiz-adv-x="552" 
d="M363 713l94 -176h-45l-92 91l-92 -91h-45l94 176h86zM257 36l-134 -252l57 -27l128 265l171 364q9 14 29.5 35.5t28.5 21.5h15v36h-197v-36h25q10 0 26.5 -21.5t15.5 -35.5l-100 -221l-101 221q0 13 16 35t26 22h25v36h-288v-36h14q8 0 32.5 -23.5t31.5 -35.5z" />
    <glyph glyph-name="Ydieresis" unicode="&#x178;" horiz-adv-x="695" 
d="M361 840q0 -30 -20 -49.5t-50 -19.5t-50 19.5t-20 49.5t20 49.5t50 19.5t50 -19.5t20 -49.5zM566 840q0 -30 -20 -49.5t-49 -19.5q-30 0 -50.5 19.5t-20.5 49.5t20.5 49.5t50.5 19.5q29 0 49 -19.5t20 -49.5zM277 351l-181 275q-11 15 -39.5 40t-37.5 25h-14v37h348v-37
h-35q-11 -1 -32.5 -26.5t-21.5 -38.5l133 -220l133 219q-2 14 -21.5 40t-30.5 26h-34v37h246v-37h-13q-10 -1 -40.5 -26.5t-39.5 -39.5l-173 -273v-251q0 -12 24.5 -38.5t35.5 -26.5h30v-36h-327v36h30q11 0 35.5 26.5t24.5 38.5v250z" />
    <glyph glyph-name="Zacute" unicode="&#x179;" horiz-adv-x="644" 
d="M514 917l-192 -140h-48l75 140h165zM224 679q-14 0 -76 -74.5t-62 -88.5h-39l19 212h563l-437 -677h182q25 0 113.5 92t88.5 108h43l-31 -251h-557l-11 41l414 638h-210z" />
    <glyph glyph-name="zacute" unicode="&#x17a;" horiz-adv-x="473" 
d="M436 713l-194 -176h-41l79 176h156zM297 439h-139q-13 0 -49 -48t-36 -63h-31l15 151h399l-290 -434h128q22 0 69 56t48 72h31l-15 -173h-396l-11 36z" />
    <glyph glyph-name="Zdotaccent" unicode="&#x17b;" horiz-adv-x="644" 
d="M414 848q0 -34 -22 -55.5t-56 -21.5q-33 0 -55.5 22t-22.5 55t22.5 55t55.5 22q34 0 56 -21.5t22 -55.5zM224 679q-14 0 -76 -74.5t-62 -88.5h-39l19 212h563l-437 -677h182q25 0 113.5 92t88.5 108h43l-31 -251h-557l-11 41l414 638h-210z" />
    <glyph glyph-name="zdotaccent" unicode="&#x17c;" horiz-adv-x="473" 
d="M177 637q0 33 20.5 52.5t52.5 19.5t52 -19.5t20 -52.5t-20 -53t-52 -20t-52.5 20t-20.5 53zM297 439h-139q-13 0 -49 -48t-36 -63h-31l15 151h399l-290 -434h128q22 0 69 56t48 72h31l-15 -173h-396l-11 36z" />
    <glyph glyph-name="Zcaron" unicode="&#x17d;" horiz-adv-x="644" 
d="M301 777l-99 157h50l97 -79l97 79h50l-99 -157h-96zM224 679q-14 0 -76 -74.5t-62 -88.5h-39l19 212h563l-437 -677h182q25 0 113.5 92t88.5 108h43l-31 -251h-557l-11 41l414 638h-210z" />
    <glyph glyph-name="zcaron" unicode="&#x17e;" horiz-adv-x="473" 
d="M203 537l-94 176h45l97 -99l97 99h45l-94 -176h-96zM297 439h-139q-13 0 -49 -48t-36 -63h-31l15 151h399l-290 -434h128q22 0 69 56t48 72h31l-15 -173h-396l-11 36z" />
    <glyph glyph-name="florin" unicode="&#x192;" horiz-adv-x="500" 
d="M299 -229h-106l-10 655h-123v53h123v114q0 91 44.5 134.5t119.5 43.5q38 0 61.5 -20t23.5 -51q0 -28 -17.5 -45.5t-48.5 -17.5q-35 0 -54 24t-17 60q-23 -4 -38 -25t-15 -46q0 -36 34 -85t34 -75v-11h140v-53h-138z" />
    <glyph glyph-name="Aringacute" unicode="&#x1fa;" horiz-adv-x="756" 
d="M586 1134l-192 -140h-48l75 140h165zM272 864q0 48 32 77.5t79 29.5q46 0 78 -29.5t32 -77.5t-32 -77.5t-78 -29.5q-47 0 -79 29.5t-32 77.5zM326 864q0 -25 15.5 -40.5t41.5 -15.5q25 0 40.5 15.5t15.5 40.5t-15.5 40t-40.5 15q-26 0 -41.5 -15t-15.5 -40zM446 225h-232
l-48 -122q2 -14 20.5 -40t29.5 -26h34v-37h-240v37h13q10 1 40.5 26.5t39.5 39.5l245 603l60 35l249 -639q11 -15 38.5 -40t36.5 -25h14v-37h-345v37h35q11 1 32.5 26.5t21.5 38.5zM236 282h190l-89 255z" />
    <glyph glyph-name="aringacute" unicode="&#x1fb;" horiz-adv-x="515" 
d="M428 935l-194 -176h-41l79 176h156zM132 624q0 46 30.5 74t76.5 28t76 -28t30 -74t-30 -74t-76 -28t-76.5 28t-30.5 74zM184 624q0 -25 15.5 -39t39.5 -14q23 0 38.5 14t15.5 39t-15.5 39.5t-38.5 14.5t-39 -14.5t-16 -39.5zM314 77q-23 -30 -63 -58.5t-79 -28.5
q-60 0 -99 37.5t-39 94.5q0 110 171 146l101 20l1 57q1 46 -25.5 69t-78.5 23q-54 0 -76 -31t-5 -92h-37l-60 86q73 90 208 90q89 0 144 -39t55 -108v-252q0 -12 21 -33.5t32 -21.5h20v-36h-183zM307 247l-90 -24q-77 -21 -77 -87q0 -31 19.5 -50.5t52.5 -19.5q26 0 53 22.5
t42 49.5v109z" />
    <glyph glyph-name="AEacute" unicode="&#x1fc;" horiz-adv-x="1019" 
d="M831 917l-192 -140h-48l75 140h165zM394 0v37h35q11 1 32.5 26.5t21.5 38.5l-42 123h-228l-47 -122q2 -14 20.5 -40t29.5 -26h34v-37h-240v37h13q10 1 40.5 26.5t39.5 39.5l237 588l60 37h529v-206h-37q0 15 -55 86.5t-68 71.5h-321q-4 0 -10.5 -7t-6.5 -12l99 -259h189
l107 98h4v-248h-4l-107 102h-170l109 -283q0 -4 9.5 -12.5t13.5 -8.5h87q26 0 108.5 82t82.5 101h40l-44 -233h-561zM235 282h187l-87 256z" />
    <glyph glyph-name="aeacute" unicode="&#x1fd;" horiz-adv-x="770" 
d="M601 713l-194 -176h-41l79 176h156zM318 82q-26 -37 -64.5 -64.5t-81.5 -27.5q-60 0 -99 37.5t-39 94.5q0 113 171 146l102 20l1 58q1 45 -26 68.5t-79 23.5q-54 0 -76 -31.5t-5 -92.5h-37l-60 86q73 90 208 90q104 0 153 -58q63 58 154 58q87 0 134.5 -53.5t53.5 -122.5
l3 -36l-302 -21q2 -69 42.5 -121.5t106.5 -52.5q54 0 84 20.5t56 65.5h37q-59 -180 -215 -180q-55 0 -103 21l-110 -10zM613 314q17 131 -76 131q-59 0 -85.5 -42.5t-24.5 -103.5zM308 246l-91 -23q-77 -19 -77 -87q0 -32 19 -51t52 -19q27 0 54.5 22.5t42.5 49.5v108z" />
    <glyph glyph-name="Oslashacute" unicode="&#x1fe;" horiz-adv-x="816" 
d="M622 917l-192 -140h-48l75 140h165zM411 -13q-116 0 -208 58l-64 -84l-52 39l64 84q-121 108 -121 278q0 162 105 270.5t270 108.5q114 0 207 -57l64 84l52 -40l-64 -83q122 -111 122 -282q0 -160 -107 -268t-268 -108zM189 241q4 -42 22 -79l356 464q-62 62 -167 62
q-94 0 -147.5 -53t-63.5 -145q-5 -49 -5 -125t5 -124zM418 46q94 0 147 51.5t64 143.5q14 117 0 249q-7 47 -23 79l-355 -462q64 -61 167 -61z" />
    <glyph glyph-name="oslashacute" unicode="&#x1ff;" horiz-adv-x="563" 
d="M499 713l-194 -176h-41l79 176h156zM283 -12q-77 0 -143 44l-37 -42l-37 32l36 40q-72 72 -72 178q0 114 74.5 182.5t178.5 68.5q84 0 152 -51l43 50l38 -33l-45 -50q62 -70 62 -167q0 -115 -73.5 -183.5t-176.5 -68.5zM284 443q-107 0 -120 -121q-12 -111 3 -185
l218 247q-30 59 -101 59zM284 43q104 0 118 120q10 79 0 165l-213 -241q31 -44 95 -44z" />
    <glyph glyph-name="uni0218" unicode="&#x218;" horiz-adv-x="598" 
d="M509 503h-39q-1 21 -28.5 64t-77.5 83t-100 40q-55 0 -84 -24.5t-29 -69.5q0 -32 26 -60.5t60 -45.5q89 -45 178 -81q148 -60 148 -203q0 -97 -66.5 -157.5t-170.5 -60.5q-41 0 -99.5 18.5t-86.5 18.5q-37 0 -54 -25h-37v236h39q0 -15 21 -46.5t53 -64t77.5 -57
t87.5 -24.5q58 0 91.5 24.5t33.5 72.5q0 71 -96 111q-85 35 -179 86q-137 73 -137 198q0 90 61.5 147.5t160.5 57.5q35 0 85 -15.5t76 -15.5q38 0 50 18h36v-225zM370 -100q7 -146 -125 -153v36q34 2 56 17t22 43h-28q-49 11 -49 59q0 26 17 42.5t45 16.5q27 0 43.5 -16.5
t18.5 -44.5z" />
    <glyph glyph-name="uni0219" unicode="&#x219;" horiz-adv-x="433" 
d="M69 166q0 -31 54 -79t120 -48q34 0 53.5 14t19.5 40q0 45 -71 71q-50 19 -105 45q-105 49 -105 139q0 66 43 104t115 38q29 0 70 -12t54 -12q19 0 27 13h30v-149h-32q0 28 -48 72t-106 44q-32 0 -49.5 -14.5t-17.5 -39.5q0 -16 12 -29.5t24 -20t36 -17.5q55 -24 102 -43
q48 -19 80.5 -57t32.5 -89q0 -68 -46 -107.5t-123 -39.5q-34 0 -81.5 14t-59.5 14q-18 0 -31 -17h-30v166h32zM276 -100q7 -146 -125 -153v36q34 2 56 17t22 43h-28q-49 11 -49 59q0 26 17 42.5t45 16.5q27 0 43.5 -16.5t18.5 -44.5z" />
    <glyph glyph-name="uni021A" unicode="&#x21a;" horiz-adv-x="729" 
d="M444 679v-582q0 -10 23 -35t31 -25h49v-37h-368v37h49q9 0 32 25t23 35v582h-97q-7 0 -21 -17t-31 -44t-31.5 -52t-28.5 -49.5t-15 -26.5h-39l9 249q64 -11 157 -11h357q91 0 157 11l9 -249h-39q-1 2 -15 26.5t-28.5 49.5t-31.5 52t-31 44t-21 17h-99zM424 -102
q7 -146 -125 -153v36q34 2 56 17t22 43h-28q-49 11 -49 59q0 26 17 42.5t45 16.5q27 0 43.5 -16.5t18.5 -44.5z" />
    <glyph glyph-name="uni021B" unicode="&#x21b;" horiz-adv-x="371" 
d="M216 115q0 -21 12.5 -33t33.5 -12q40 0 77 28l22 -31q-24 -25 -68.5 -51.5t-86.5 -26.5q-52 0 -85 29.5t-33 81.5v326h-73v36q94 63 166 149h32v-132h132v-53h-129v-311zM275 -102q7 -146 -125 -153v36q34 2 56 17t22 43h-28q-49 11 -49 59q0 26 17 42.5t45 16.5
q27 0 43.5 -16.5t18.5 -44.5z" />
    <glyph glyph-name="circumflex" unicode="&#x2c6;" horiz-adv-x="500" 
d="M293 713l94 -176h-45l-92 91l-92 -91h-45l94 176h86z" />
    <glyph glyph-name="caron" unicode="&#x2c7;" horiz-adv-x="500" 
d="M202 537l-94 176h45l97 -99l97 99h45l-94 -176h-96z" />
    <glyph glyph-name="breve" unicode="&#x2d8;" horiz-adv-x="500" 
d="M251 620q53 0 82.5 20t30.5 57l35 -6q0 -152 -148 -152t-148 152l35 6q1 -37 30.5 -57t82.5 -20z" />
    <glyph glyph-name="dotaccent" unicode="&#x2d9;" horiz-adv-x="500" 
d="M177 637q0 33 20.5 52.5t52.5 19.5t52 -19.5t20 -52.5t-20 -53t-52 -20t-52.5 20t-20.5 53z" />
    <glyph glyph-name="ring" unicode="&#x2da;" horiz-adv-x="500" 
d="M144 636q0 46 30.5 74t76.5 28t76 -28t30 -74t-30 -74t-76 -28t-76.5 28t-30.5 74zM196 636q0 -25 15.5 -39t39.5 -14q23 0 38.5 14t15.5 39t-15.5 39.5t-38.5 14.5t-39 -14.5t-16 -39.5z" />
    <glyph glyph-name="ogonek" unicode="&#x2db;" 
d="M249 0q-75 -78 -75 -117q0 -17 11 -28t29 -11q23 0 50 32l26 -23q-26 -34 -51 -52t-60 -18q-41 0 -62 21t-21 55q0 68 110 141h43z" />
    <glyph glyph-name="tilde" unicode="&#x2dc;" horiz-adv-x="500" 
d="M404 583l-29 -21q-5 15 -8.5 22t-13.5 14t-25 7q-25 0 -68 -25t-75 -25q-84 0 -89 104l28 21q4 -14 7.5 -22t13.5 -15t26 -7q32 0 72.5 25t70.5 25q87 0 90 -103z" />
    <glyph glyph-name="hungarumlaut" unicode="&#x2dd;" horiz-adv-x="500" 
d="M329 713l-165 -176h-42l70 176h137zM507 713l-177 -176h-44l80 176h141z" />
    <glyph glyph-name="pi" unicode="&#x3c0;" horiz-adv-x="700" 
d="M150 409h-93l36 70h524v-70h-68v-409h-123v409h-153v-409h-123v409z" />
    <glyph glyph-name="Wgrave" unicode="&#x1e80;" horiz-adv-x="1063" 
d="M555 917l51 -140h-49l-167 140h165zM782 29l-62 -41l-190 542l-174 -501l-61 -41l-196 638q-11 15 -38.5 40t-36.5 25h-14v37h340v-37h-35q-11 -1 -32.5 -26.5t-21.5 -38.5l103 -380l127 355l121 140l178 -496l105 380q-2 14 -21.5 40t-30.5 26h-34v37h244v-37h-13
q-10 -1 -40.5 -26.5t-39.5 -39.5z" />
    <glyph glyph-name="wgrave" unicode="&#x1e81;" horiz-adv-x="774" 
d="M387 713l49 -176h-41l-158 176h150zM647 385q-1 13 -13 35.5t-21 22.5h-35v36h196v-36h-20q-8 0 -27.5 -22t-27.5 -36l-140 -363l-47 -33l-124 334l-122 -301l-47 -33l-145 395q-8 15 -27.5 37t-26.5 22h-20v36h276v-36h-32q-9 0 -21.5 -21.5t-13.5 -35.5l66 -206l87 218
l87 81l124 -298z" />
    <glyph glyph-name="Wacute" unicode="&#x1e82;" horiz-adv-x="1063" 
d="M778 917l-192 -140h-48l75 140h165zM782 29l-62 -41l-190 542l-174 -501l-61 -41l-196 638q-11 15 -38.5 40t-36.5 25h-14v37h340v-37h-35q-11 -1 -32.5 -26.5t-21.5 -38.5l103 -380l127 355l121 140l178 -496l105 380q-2 14 -21.5 40t-30.5 26h-34v37h244v-37h-13
q-10 -1 -40.5 -26.5t-39.5 -39.5z" />
    <glyph glyph-name="wacute" unicode="&#x1e83;" horiz-adv-x="774" 
d="M632 713l-194 -176h-41l79 176h156zM647 385q-1 13 -13 35.5t-21 22.5h-35v36h196v-36h-20q-8 0 -27.5 -22t-27.5 -36l-140 -363l-47 -33l-124 334l-122 -301l-47 -33l-145 395q-8 15 -27.5 37t-26.5 22h-20v36h276v-36h-32q-9 0 -21.5 -21.5t-13.5 -35.5l66 -206l87 218
l87 81l124 -298z" />
    <glyph glyph-name="Wdieresis" unicode="&#x1e84;" horiz-adv-x="1063" 
d="M547 840q0 -30 -20 -49.5t-50 -19.5t-50 19.5t-20 49.5t20 49.5t50 19.5t50 -19.5t20 -49.5zM752 840q0 -30 -20 -49.5t-49 -19.5q-30 0 -50.5 19.5t-20.5 49.5t20.5 49.5t50.5 19.5q29 0 49 -19.5t20 -49.5zM782 29l-62 -41l-190 542l-174 -501l-61 -41l-196 638
q-11 15 -38.5 40t-36.5 25h-14v37h340v-37h-35q-11 -1 -32.5 -26.5t-21.5 -38.5l103 -380l127 355l121 140l178 -496l105 380q-2 14 -21.5 40t-30.5 26h-34v37h244v-37h-13q-10 -1 -40.5 -26.5t-39.5 -39.5z" />
    <glyph glyph-name="wdieresis" unicode="&#x1e85;" horiz-adv-x="774" 
d="M398 616q0 -27 -18 -44.5t-45 -17.5t-45 17.5t-18 44.5t18 44.5t45 17.5t45 -17.5t18 -44.5zM582 616q0 -27 -18 -44.5t-45 -17.5t-45 17.5t-18 44.5t18 44.5t45 17.5t45 -17.5t18 -44.5zM647 385q-1 13 -13 35.5t-21 22.5h-35v36h196v-36h-20q-8 0 -27.5 -22t-27.5 -36
l-140 -363l-47 -33l-124 334l-122 -301l-47 -33l-145 395q-8 15 -27.5 37t-26.5 22h-20v36h276v-36h-32q-9 0 -21.5 -21.5t-13.5 -35.5l66 -206l87 218l87 81l124 -298z" />
    <glyph glyph-name="Ygrave" unicode="&#x1ef2;" horiz-adv-x="695" 
d="M367 917l51 -140h-49l-167 140h165zM277 351l-181 275q-11 15 -39.5 40t-37.5 25h-14v37h348v-37h-35q-11 -1 -32.5 -26.5t-21.5 -38.5l133 -220l133 219q-2 14 -21.5 40t-30.5 26h-34v37h246v-37h-13q-10 -1 -40.5 -26.5t-39.5 -39.5l-173 -273v-251q0 -12 24.5 -38.5
t35.5 -26.5h30v-36h-327v36h30q11 0 35.5 26.5t24.5 38.5v250z" />
    <glyph glyph-name="ygrave" unicode="&#x1ef3;" horiz-adv-x="552" 
d="M302 713l49 -176h-41l-158 176h150zM257 36l-134 -252l57 -27l128 265l171 364q9 14 29.5 35.5t28.5 21.5h15v36h-197v-36h25q10 0 26.5 -21.5t15.5 -35.5l-100 -221l-101 221q0 13 16 35t26 22h25v36h-288v-36h14q8 0 32.5 -23.5t31.5 -35.5z" />
    <glyph glyph-name="endash" unicode="&#x2013;" horiz-adv-x="610" 
d="M585 330v-93h-560v93h560z" />
    <glyph glyph-name="emdash" unicode="&#x2014;" horiz-adv-x="890" 
d="M885 330v-93h-880v93h880z" />
    <glyph glyph-name="quoteleft" unicode="&#x2018;" horiz-adv-x="250" 
d="M55 548q-8 178 160 180l10 -42q-48 2 -79.5 -16t-32.5 -55h31q57 -12 57 -69q0 -31 -20.5 -50.5t-53.5 -19.5q-31 0 -51 19.5t-21 52.5z" />
    <glyph glyph-name="quoteright" unicode="&#x2019;" horiz-adv-x="250" 
d="M195 659q8 -178 -160 -180l-10 42q48 -2 79.5 16t32.5 55h-31q-57 12 -57 69q0 31 20.5 50.5t53.5 19.5q31 0 51 -19.5t21 -52.5z" />
    <glyph glyph-name="quotesinglbase" unicode="&#x201a;" horiz-adv-x="258" 
d="M195 67q8 -178 -160 -180l-10 42q48 -2 79.5 16t32.5 55h-31q-57 12 -57 69q0 31 20.5 50.5t53.5 19.5q31 0 51 -19.5t21 -52.5z" />
    <glyph glyph-name="quotedblleft" unicode="&#x201c;" horiz-adv-x="420" 
d="M55 548q-8 178 163 180l10 -41q-48 2 -82 -17t-35 -56h32q56 -12 56 -68q0 -32 -19.5 -51t-52.5 -19q-31 0 -51 19.5t-21 52.5zM228 548q-4 95 36.5 137t120.5 43l10 -41q-48 2 -79.5 -16.5t-32.5 -56.5h32q56 -12 56 -68q0 -32 -19.5 -51t-52.5 -19q-31 0 -50 19.5
t-21 52.5z" />
    <glyph glyph-name="quotedblright" unicode="&#x201d;" horiz-adv-x="420" 
d="M192 659q4 -95 -36.5 -137t-120.5 -43l-10 41q48 -2 79.5 16.5t32.5 56.5h-32q-56 12 -56 68q0 32 19.5 51t52.5 19q31 0 50 -19.5t21 -52.5zM365 659q8 -178 -163 -180l-10 41q48 -2 82 17t35 56h-32q-56 12 -56 68q0 32 19.5 51t52.5 19q31 0 51 -19.5t21 -52.5z" />
    <glyph glyph-name="quotedblbase" unicode="&#x201e;" horiz-adv-x="434" 
d="M195 66q4 -95 -36.5 -137t-120.5 -43l-10 41q48 -2 79.5 16.5t32.5 56.5h-32q-56 12 -56 68q0 32 19.5 51t52.5 19q31 0 50 -19.5t21 -52.5zM368 66q8 -178 -163 -180l-10 41q48 -2 82 17t35 56h-32q-56 12 -56 68q0 32 19.5 51t52.5 19q32 0 51 -19.5t21 -52.5z" />
    <glyph glyph-name="dagger" unicode="&#x2020;" horiz-adv-x="515" 
d="M240 510l-33 218h100l-33 -218l183 33v-96l-182 32l25 -479v-99h-86v99l25 479l-181 -32v96z" />
    <glyph glyph-name="daggerdbl" unicode="&#x2021;" horiz-adv-x="515" 
d="M275 20l182 32v-96l-183 33l33 -218h-100l33 218l-182 -33v96l181 -32l-25 230l25 229l-181 -32v96l182 -33l-33 218h100l-33 -218l183 33v-96l-182 32l25 -229z" />
    <glyph glyph-name="bullet" unicode="&#x2022;" horiz-adv-x="376" 
d="M188 527q59 0 98.5 -38t39.5 -98t-39.5 -98t-98.5 -38t-98.5 38t-39.5 98t39.5 98t98.5 38z" />
    <glyph glyph-name="ellipsis" unicode="&#x2026;" horiz-adv-x="890" 
d="M60 75q0 32 21.5 53.5t55.5 21.5t55.5 -21.5t21.5 -53.5t-21.5 -53.5t-55.5 -21.5t-55.5 21.5t-21.5 53.5zM368 75q0 32 21.5 53.5t55.5 21.5t55.5 -21.5t21.5 -53.5t-21.5 -53.5t-55.5 -21.5t-55.5 21.5t-21.5 53.5zM676 75q0 32 21.5 53.5t55.5 21.5t55.5 -21.5
t21.5 -53.5t-21.5 -53.5t-55.5 -21.5t-55.5 21.5t-21.5 53.5z" />
    <glyph glyph-name="perthousand" unicode="&#x2030;" horiz-adv-x="1003" 
d="M60 567q0 70 44.5 118t105.5 48t105.5 -48t44.5 -118t-44.5 -118t-105.5 -48t-105.5 48t-44.5 118zM629 728l-484 -728h-72l485 728h71zM270 523q3 44 0 88q-3 41 -17 60.5t-43 19.5q-55 0 -61 -80q-3 -44 0 -88q6 -80 61 -80q29 0 43 19.5t17 60.5zM344 161
q0 70 44.5 118t105.5 48t105.5 -48t44.5 -118t-44.5 -118t-105.5 -48t-105.5 48t-44.5 118zM673 161q0 70 44.5 118t105.5 48t105.5 -48t44.5 -118t-44.5 -118t-105.5 -48t-105.5 48t-44.5 118zM554 117q3 44 0 88q-3 41 -17 60.5t-43 19.5q-55 0 -61 -80q-3 -44 0 -88
q6 -80 61 -80q29 0 43 19.5t17 60.5zM883 117q3 44 0 88q-3 41 -17 60.5t-43 19.5q-55 0 -61 -80q-3 -44 0 -88q6 -80 61 -80q29 0 43 19.5t17 60.5z" />
    <glyph glyph-name="guilsinglleft" unicode="&#x2039;" 
d="M340 157v-94l-295 249l295 250v-94l-176 -156z" />
    <glyph glyph-name="guilsinglright" unicode="&#x203a;" horiz-adv-x="401" 
d="M237 312l-177 156v94l296 -250l-296 -249v94z" />
    <glyph glyph-name="uni203D" unicode="&#x203d;" horiz-adv-x="496" 
d="M92 292q0 69 83 114l-105 259q0 35 22 55.5t57 20.5q65 0 79 -58q16 26 48 42t67 16q61 0 97.5 -38t36.5 -101q0 -34 -15.5 -65t-35 -51.5t-55 -42t-57.5 -32.5t-61 -28l8 -89q0 -37 -22 -57.5t-62 -20.5q-37 0 -61 20.5t-24 55.5zM370 587q0 32 -17.5 50t-48.5 18
q-33 0 -52 -19t-17 -49l11 -145q54 28 89 65.5t35 79.5zM196 355q-49 -27 -49 -59q0 -15 9.5 -24.5t26.5 -9.5q35 0 35 34zM124 75q0 -32 21.5 -53.5t55.5 -21.5t55.5 21.5t21.5 53.5t-21.5 53.5t-55.5 21.5t-55.5 -21.5t-21.5 -53.5z" />
    <glyph glyph-name="fraction" unicode="&#x2044;" horiz-adv-x="610" 
d="M585 728l-486 -728h-74l485 728h75z" />
    <glyph glyph-name="zero.sups" unicode="&#x2070;" 
d="M31 728q0 86 48 144.5t121 58.5t121 -58.5t48 -144.5t-48 -144.5t-121 -58.5t-121 58.5t-48 144.5zM124 790q-4 -61 0 -124q4 -97 76 -97t76 97q4 63 0 124q-4 97 -76 97t-76 -97z" />
    <glyph glyph-name="four.sups" unicode="&#x2074;" 
d="M196 625h-170v36q46 57 93 119.5t71 97.5l24 34l73 21v-263h54v-45h-54v-29q0 -7 11.5 -20t18.5 -13h16v-30h-181v30h14q6 0 18 13t12 20v29zM196 826q-56 -85 -116 -158h116v158z" />
    <glyph glyph-name="five.sups" unicode="&#x2075;" 
d="M316 858h-195l-19 -94q66 48 118 48q55 0 86 -28.5t31 -78.5q0 -55 -44.5 -98.5t-104 -64t-118.5 -21.5l-4 39q73 4 130.5 39t57.5 91q0 68 -70 68q-36 0 -96 -38l-27 15l32 189h206z" />
    <glyph glyph-name="six.sups" unicode="&#x2076;" 
d="M301 894q-7 1 -21 1q-74 0 -117.5 -47t-42.5 -109q39 58 103 58q57 0 92 -38t35 -95q0 -62 -40.5 -101.5t-99.5 -39.5q-76 0 -120.5 55t-44.5 129q0 105 62.5 165t160.5 60q16 0 24 -1zM130 672q0 -45 20 -74t57 -29q34 0 49 22t15 54q0 49 -20.5 75.5t-55.5 26.5
q-32 0 -48.5 -22t-16.5 -53z" />
    <glyph glyph-name="seven.sups" unicode="&#x2077;" 
d="M72 533q33 77 84 156t81 116t46 53h-236l18 66h282l15 -24l-32 -42q-56 -73 -96.5 -173.5t-49.5 -151.5h-112z" />
    <glyph glyph-name="eight.sups" unicode="&#x2078;" 
d="M137 726q-82 37 -82 103q0 46 42.5 74.5t101.5 28.5q57 0 98.5 -26t41.5 -70q0 -52 -80 -82q48 -20 75.5 -46t27.5 -69q0 -51 -48.5 -83t-122.5 -32q-61 0 -107.5 25.5t-46.5 72.5q0 37 31 63.5t69 40.5zM225 774q50 25 50 58q0 29 -22.5 46t-60.5 17q-28 0 -46 -13
t-18 -33q0 -23 23.5 -38.5t73.5 -36.5zM287 614q0 21 -17 35t-53.5 29.5t-48.5 22.5q-64 -28 -64 -77q0 -26 28 -41.5t64 -15.5q42 0 66.5 12.5t24.5 34.5z" />
    <glyph glyph-name="nine.sups" unicode="&#x2079;" 
d="M88 561q7 -1 21 -1q74 0 117.5 47t42.5 109q-36 -53 -103 -53q-57 0 -92 35.5t-35 92.5q0 62 40.5 101.5t99.5 39.5q76 0 120.5 -55t44.5 -129q0 -105 -62.5 -165t-160.5 -60q-16 0 -24 1zM259 788q0 45 -20 74t-57 29q-34 0 -49 -21.5t-15 -53.5q0 -49 20 -74.5
t55 -25.5q31 0 48.5 21t17.5 51z" />
    <glyph glyph-name="zero.sinf" unicode="&#x2080;" 
d="M31 0q0 86 48 144.5t121 58.5t121 -58.5t48 -144.5t-48 -144.5t-121 -58.5t-121 58.5t-48 144.5zM124 62q-4 -61 0 -124q4 -97 76 -97t76 97q4 63 0 124q-4 97 -76 97t-76 -97z" />
    <glyph glyph-name="one.sinf" unicode="&#x2081;" horiz-adv-x="392" 
d="M247 -127q0 -7 11.5 -20t17.5 -13h35v-35h-222v35h34q6 0 18 13t12 20v191q0 7 -10 17t-15 10h-42v28q36 13 75.5 32.5t60.5 32.5l22 14h3v-325z" />
    <glyph glyph-name="two.sinf" unicode="&#x2082;" 
d="M339 -129l-26 -66h-261v33q9 39 43 74.5t107 91.5q45 35 45 76q0 31 -18.5 48.5t-50.5 17.5q-52 0 -94 -54l-29 23q63 89 148 89q61 0 95 -30t34 -84q0 -35 -18.5 -63.5t-36.5 -41.5t-45 -28q-3 -2 -30 -16t-38 -20.5t-28.5 -21t-27.5 -28.5h231z" />
    <glyph glyph-name="three.sinf" unicode="&#x2083;" 
d="M124 37l57 19q21 13 28.5 23t7.5 28q0 20 -13.5 32t-35.5 12q-40 0 -93 -39l-19 29q84 64 156 64q38 0 61.5 -19t23.5 -54q0 -56 -75 -87q107 0 107 -82q0 -38 -28.5 -71.5t-69.5 -53.5t-80 -31.5t-67 -12.5l-9 39q30 4 62 14t65.5 37.5t33.5 64.5q0 68 -112 56v32z" />
    <glyph glyph-name="four.sinf" unicode="&#x2084;" 
d="M197 -103h-170v36q46 57 93 119.5t71 97.5l24 34l73 21v-263h54v-45h-54v-29q0 -7 11.5 -20t18.5 -13h16v-30h-181v30h14q6 0 18 13t12 20v29zM197 98q-56 -85 -116 -158h116v158z" />
    <glyph glyph-name="five.sinf" unicode="&#x2085;" 
d="M316 130h-195l-19 -94q66 48 118 48q55 0 86 -28.5t31 -78.5q0 -55 -44.5 -98.5t-104 -64t-118.5 -21.5l-4 39q73 4 130.5 39t57.5 91q0 68 -70 68q-36 0 -96 -38l-27 15l32 189h206z" />
    <glyph glyph-name="six.sinf" unicode="&#x2086;" 
d="M301 166q-7 1 -21 1q-74 0 -117.5 -47t-42.5 -109q39 58 103 58q57 0 92 -38t35 -95q0 -62 -40.5 -101.5t-99.5 -39.5q-76 0 -120.5 55t-44.5 129q0 105 62.5 165t160.5 60q16 0 24 -1zM130 -56q0 -45 20 -74t57 -29q34 0 49 22t15 54q0 49 -20.5 75.5t-55.5 26.5
q-32 0 -48.5 -22t-16.5 -53z" />
    <glyph glyph-name="seven.sinf" unicode="&#x2087;" 
d="M70 -195q33 77 84 156t81 116t46 53h-236l18 66h282l15 -24l-32 -42q-56 -73 -96.5 -173.5t-49.5 -151.5h-112z" />
    <glyph glyph-name="eight.sinf" unicode="&#x2088;" 
d="M137 -1q-82 37 -82 103q0 46 42.5 74.5t101.5 28.5q57 0 98.5 -26t41.5 -70q0 -52 -80 -82q48 -20 75.5 -46t27.5 -69q0 -51 -48.5 -83t-122.5 -32q-61 0 -107.5 25.5t-46.5 72.5q0 37 31 63.5t69 40.5zM225 47q50 25 50 58q0 29 -22.5 46t-60.5 17q-28 0 -46 -13
t-18 -33q0 -23 23.5 -38.5t73.5 -36.5zM287 -113q0 21 -17 35t-53.5 29.5t-48.5 22.5q-64 -28 -64 -77q0 -26 28 -41.5t64 -15.5q42 0 66.5 12.5t24.5 34.5z" />
    <glyph glyph-name="nine.sinf" unicode="&#x2089;" 
d="M88 -166q7 -1 21 -1q74 0 117.5 47t42.5 109q-36 -53 -103 -53q-57 0 -92 35.5t-35 92.5q0 62 40.5 101.5t99.5 39.5q76 0 120.5 -55t44.5 -129q0 -105 -62.5 -165t-160.5 -60q-16 0 -24 1zM259 61q0 45 -20 74t-57 29q-34 0 -49 -21.5t-15 -53.5q0 -49 20 -74.5
t55 -25.5q31 0 48.5 21t17.5 51z" />
    <glyph glyph-name="Euro" unicode="&#x20ac;" horiz-adv-x="655" 
d="M373 691q-161 0 -161 -229v-23h231v-47h-232v-45h232v-47h-231v-25q0 -108 46 -166t132 -58q134 0 176 138h59q-15 -43 -34.5 -76t-49 -62.5t-72.5 -45.5t-98 -16q-121 0 -199.5 88t-97.5 223h-54v47h53v45h-53v47h54q20 139 93 220.5t195 81.5q43 0 94 -15.5t72 -15.5
q26 0 40 18h41v-238h-43q0 18 -12.5 49.5t-34.5 66.5t-61 60t-85 25z" />
    <glyph glyph-name="trademark" unicode="&#x2122;" horiz-adv-x="990" 
d="M263 376q0 -6 11 -20t16 -14h18v-29h-190v29h20q5 0 18 14t13 20v322h-40q-8 0 -44.5 -53.5t-36.5 -62.5h-23l8 149q36 -3 96 -3h175l97 3l7 -149h-23q0 9 -37 62.5t-44 53.5h-41v-322zM518 640v-264q0 -6 12.5 -20t17.5 -14h20v-29h-139v29h19q5 0 17 14t12 20v290
q0 6 -12.5 20t-17.5 14h-14l-1 28h152l109 -261l107 261h145v-28h-18q-5 0 -18 -14t-13 -20v-290q0 -6 12.5 -20t17.5 -14h19v-29h-188v29h19q5 0 17.5 14t12.5 20v265l-143 -340z" />
    <glyph glyph-name="uni2126" unicode="&#x2126;" horiz-adv-x="700" 
d="M350 689q-77 0 -125.5 -43t-57.5 -134q-10 -105 3 -209q16 -128 150 -212v-91h-210l-34 100h182q-211 113 -211 318q0 142 85.5 230t217.5 88t217.5 -88t85.5 -230q0 -204 -211 -318h183l-35 -100h-210v91q133 76 150 212q13 103 3 209q-9 91 -57.5 134t-125.5 43z" />
    <glyph glyph-name="partialdiff" unicode="&#x2202;" horiz-adv-x="700" 
d="M320 685q-70 0 -102.5 -43t-32.5 -85h-37v149q68 35 184 35q127 0 193 -96t66 -251q0 -102 -35 -194t-102.5 -151.5t-151.5 -59.5q-97 0 -154.5 61.5t-57.5 163.5q0 108 64.5 192t169.5 84q114 0 157 -113q18 129 -25.5 218.5t-135.5 89.5zM452 298q0 55 -26 87.5
t-81 32.5q-70 0 -112.5 -75t-42.5 -175q0 -55 26 -87t79 -32q64 0 110.5 75.5t46.5 173.5z" />
    <glyph glyph-name="uni2206" unicode="&#x2206;" horiz-adv-x="700" 
d="M297 728h106l264 -728h-634zM350 675l-214 -605h428z" />
    <glyph glyph-name="product" unicode="&#x220f;" horiz-adv-x="700" 
d="M469 -88v747h-237v-747h-125v720q0 11 -22.5 35.5t-33.5 24.5h-21v36h640v-36h-20q-10 0 -33 -24.5t-23 -35.5v-720h-125z" />
    <glyph glyph-name="summation" unicode="&#x2211;" horiz-adv-x="700" 
d="M309 261l-278 467h614v-70h-434l239 -397l-246 -420h441v-70h-620z" />
    <glyph glyph-name="minus" unicode="&#x2212;" horiz-adv-x="640" 
d="M592 328v-77h-544v77h544z" />
    <glyph glyph-name="radical" unicode="&#x221a;" horiz-adv-x="700" 
d="M35 315v76h204l135 -457l225 794h74l-261 -897l-111 -37l-167 521h-99z" />
    <glyph glyph-name="infinity" unicode="&#x221e;" horiz-adv-x="640" 
d="M320 351q22 28 35.5 43t44 31t65.5 16q60 0 96 -41t36 -111q0 -69 -36 -110t-96 -41q-35 0 -65.5 16t-44.5 31.5t-35 42.5q-21 -27 -35 -42.5t-44.5 -31.5t-65.5 -16q-60 0 -96 41t-36 110q0 70 36 111t96 41q35 0 65.5 -16t44 -31t35.5 -43zM281 290q-52 83 -105 83
q-35 0 -53 -22t-18 -62q0 -81 71 -81q56 0 105 82zM359 290q49 -82 105 -82q71 0 71 81q0 40 -18 62t-53 22q-53 0 -105 -83z" />
    <glyph glyph-name="integral" unicode="&#x222b;" horiz-adv-x="500" 
d="M189 593q0 91 43 134.5t118 43.5q38 0 61.5 -20t23.5 -51q0 -28 -17.5 -45.5t-48.5 -17.5q-35 0 -54 24t-17 60q-23 -4 -38 -25t-15 -46q0 -34 33 -130t33 -129v-442q0 -91 -43.5 -134.5t-118.5 -43.5q-38 0 -61.5 20t-23.5 51q0 28 17.5 45.5t48.5 17.5q35 0 54 -24
t17 -60q23 4 38 25t15 46q0 33 -32.5 134t-32.5 138v429z" />
    <glyph glyph-name="therefore" unicode="&#x2234;" horiz-adv-x="890" 
d="M368 592q0 32 21.5 53.5t55.5 21.5t55.5 -21.5t21.5 -53.5t-21.5 -53.5t-55.5 -21.5t-55.5 21.5t-21.5 53.5zM60 75q0 32 21.5 53.5t55.5 21.5t55.5 -21.5t21.5 -53.5t-21.5 -53.5t-55.5 -21.5t-55.5 21.5t-21.5 53.5zM676 75q0 32 21.5 53.5t55.5 21.5t55.5 -21.5
t21.5 -53.5t-21.5 -53.5t-55.5 -21.5t-55.5 21.5t-21.5 53.5z" />
    <glyph glyph-name="uni2235" unicode="&#x2235;" horiz-adv-x="890" 
d="M60 592q0 32 21.5 53.5t55.5 21.5t55.5 -21.5t21.5 -53.5t-21.5 -53.5t-55.5 -21.5t-55.5 21.5t-21.5 53.5zM676 592q0 32 21.5 53.5t55.5 21.5t55.5 -21.5t21.5 -53.5t-21.5 -53.5t-55.5 -21.5t-55.5 21.5t-21.5 53.5zM368 75q0 32 21.5 53.5t55.5 21.5t55.5 -21.5
t21.5 -53.5t-21.5 -53.5t-55.5 -21.5t-55.5 21.5t-21.5 53.5z" />
    <glyph glyph-name="approxequal" unicode="&#x2248;" horiz-adv-x="640" 
d="M185 455q54 0 153.5 -32.5t130.5 -32.5q36 0 54 15t17 49l45 -8q1 -62 -27.5 -98.5t-102.5 -36.5q-41 0 -142 32.5t-142 32.5q-36 0 -54 -15t-17 -49l-45 8q-2 135 130 135zM185 281q54 0 153.5 -32.5t130.5 -32.5q36 0 54 15t17 49l45 -8q1 -62 -27.5 -98.5
t-102.5 -36.5q-41 0 -142 32.5t-142 32.5q-36 0 -54 -15t-17 -49l-45 8q-2 135 130 135z" />
    <glyph glyph-name="notequal" unicode="&#x2260;" horiz-adv-x="640" 
d="M243 242l64 95h-259v77h311l126 187h76l-126 -187h157v-77h-208l-64 -95h272v-77h-323l-111 -165h-77l111 165h-144v77h195z" />
    <glyph glyph-name="lessequal" unicode="&#x2264;" horiz-adv-x="640" 
d="M592 86v-86h-539v70h371l47 -3l-423 205v55l544 271v-87l-435 -212z" />
    <glyph glyph-name="greaterequal" unicode="&#x2265;" horiz-adv-x="640" 
d="M483 299l-435 212v87l544 -271v-55l-423 -205l47 3h371v-70h-539v86z" />
    <glyph glyph-name="lozenge" unicode="&#x25ca;" horiz-adv-x="700" 
d="M403 0h-106l-222 364l222 364h106l222 -364zM350 680l-190 -316l190 -316l190 316z" />
    <glyph glyph-name="uniF6C3" unicode="&#xf6c3;" horiz-adv-x="0" 
d="M-64 -102q7 -146 -125 -153v36q34 2 56 17t22 43h-28q-49 11 -49 59q0 26 17 42.5t45 16.5q27 0 43.5 -16.5t18.5 -44.5z" />
    <glyph glyph-name="CR" horiz-adv-x="0" 
 />
    <glyph glyph-name="interfinity" horiz-adv-x="448" 
d="M401 594q0 -19 -4 -37t-13.5 -34.5t-17.5 -28t-23.5 -26.5t-23 -21.5t-25.5 -20.5t-22 -17q62 -55 62 -104q0 -44 -30.5 -67t-79.5 -23q-48 0 -80 25t-32 67q0 59 66 123q-27 19 -43.5 33.5t-35.5 35t-28 44t-9 50.5q0 67 46.5 107.5t125.5 40.5q74 0 120.5 -40
t46.5 -107zM121 588q0 -37 22 -66.5t63 -62.5q27 25 41.5 40t29 39.5t14.5 46.5q0 35 -23 56t-62 21t-62 -21t-23 -53zM286 304q0 33 -44 75q-40 -48 -40 -75q0 -17 12 -27t30 -10t30 10t12 27zM146 75q0 -32 21.5 -53.5t55.5 -21.5t55.5 21.5t21.5 53.5t-21.5 53.5
t-55.5 21.5t-55.5 -21.5t-21.5 -53.5z" />
    <glyph glyph-name="at.case" horiz-adv-x="890" 
d="M528 200q-22 -35 -60 -62.5t-82 -27.5q-56 0 -92 35.5t-36 90.5q0 107 158 139l97 19v54q0 87 -98 87q-104 0 -72 -117h-35l-58 82q68 84 193 84q84 0 135 -36t51 -102v-241q0 -17 10 -27.5t27 -10.5q46 0 77.5 54.5t31.5 140.5q0 160 -84.5 248.5t-230.5 88.5
q-150 0 -244 -91.5t-94 -256.5t95 -259.5t260 -94.5q85 0 217 6l-6 -58q-101 -3 -212 -1q-196 5 -315 115.5t-119 291.5q0 177 121.5 286.5t298.5 109.5q173 0 280.5 -105.5t107.5 -278.5q0 -110 -63.5 -181.5t-150.5 -71.5q-81 0 -108 90zM513 355l-86 -23q-68 -19 -68 -83
q0 -30 16.5 -48t47.5 -18q25 0 50.5 19.5t39.5 44.5v108z" />
    <glyph glyph-name="zero.tnum" horiz-adv-x="620" 
d="M309 741q123 0 202 -111.5t79 -257.5q0 -95 -33.5 -182t-99.5 -145t-147 -58t-147 57.5t-99.5 142.5t-33.5 175q0 91 33 176.5t98.5 144t147.5 58.5zM310 45q55 0 91 45t41 143q2 46 2 137.5t-2 138.5q-5 92 -35.5 134.5t-96.5 42.5q-125 0 -134 -181q-2 -46 -2 -137.5
t2 -138.5q5 -93 37 -138.5t97 -45.5z" />
    <glyph glyph-name="one.tnum" horiz-adv-x="620" 
d="M237 537q0 12 -18 30t-27 18h-45v35q106 35 226 112h5v-636q0 -12 22 -36t33 -24h45v-36h-341v36h45q11 0 33 24t22 36v441z" />
    <glyph glyph-name="two.tnum" horiz-adv-x="620" 
d="M535 109l-26 -109h-449v34q16 42 63.5 104t87 105.5t111.5 117.5q36 38 55.5 74t19.5 83q0 61 -35.5 95.5t-98.5 34.5q-55 0 -91 -26.5t-74 -76.5l-38 34q107 162 249 162q100 0 163 -55t63 -156q0 -42 -13 -77.5t-40.5 -66.5t-47.5 -49t-57 -46q-9 -7 -34.5 -27
t-38 -29.5t-35 -27.5t-35 -29.5t-28 -25t-25 -24.5t-14.5 -19h368z" />
    <glyph glyph-name="three.tnum" horiz-adv-x="620" 
d="M169 423l105 35q70 44 70 101q0 46 -28 70t-75 24q-76 0 -165 -73l-33 42q47 49 118.5 84t144.5 35t122.5 -35t49.5 -101q0 -105 -140 -161q47 1 90.5 -12.5t77 -52t33.5 -96.5q0 -61 -32.5 -114t-83 -87.5t-112.5 -59.5t-120 -36t-106 -11l-10 61q44 1 96 14t105 38
t88 71.5t35 104.5q0 78 -65 106.5t-165 5.5v47z" />
    <glyph glyph-name="four.tnum" horiz-adv-x="620" 
d="M457 96q0 -12 22 -36t33 -24h35v-36h-319v36h35q11 0 33 24t22 36v90h-292v52q72 96 148 206t116 172l39 63l128 55v-477h109v-71h-109v-90zM321 574q-1 -1 -12 -20t-30.5 -50t-43.5 -68.5t-56 -86t-64 -92.5h206v317z" />
    <glyph glyph-name="five.tnum" horiz-adv-x="620" 
d="M496 620h-327l-28 -186q96 80 193 80q92 0 148 -50.5t56 -142.5q0 -77 -45.5 -144t-114.5 -109.5t-145.5 -67t-143.5 -25.5l-10 62q68 4 142.5 34t132 88t57.5 126q0 135 -137 135q-68 0 -153 -61l-42 23l46 346h345z" />
    <glyph glyph-name="six.tnum" horiz-adv-x="620" 
d="M496 676q-24 2 -34 2q-118 0 -191.5 -83t-79.5 -195q61 86 167 86q98 0 158.5 -73t60.5 -168q0 -111 -62 -185t-169 -74q-71 0 -127.5 31.5t-90 83t-50.5 111t-17 121.5q0 170 106 287t271 117q30 0 45 -2zM200 261q0 -90 33 -149.5t104 -59.5q58 0 83.5 46.5t25.5 108.5
q0 81 -34 142t-101 61q-57 0 -84 -42.5t-27 -106.5z" />
    <glyph glyph-name="seven.tnum" horiz-adv-x="620" 
d="M124 0q19 56 41 110.5t45.5 102.5t46 90.5t48.5 82.5t44.5 69t42.5 60.5t35 46t29 36.5l18 22h-425l26 108h470l20 -34l-45 -79q-76 -133 -150.5 -322t-90.5 -293h-155z" />
    <glyph glyph-name="eight.tnum" horiz-adv-x="620" 
d="M215 364q-140 85 -140 194q0 82 62.5 132t162.5 50q93 0 163 -43.5t70 -123.5q0 -102 -131 -158q40 -22 64 -37.5t53 -42t43 -60t14 -75.5q-1 -94 -80 -153.5t-199 -59.5q-98 0 -175.5 49.5t-77.5 139.5q0 116 171 188zM354 442q83 48 83 124q0 58 -43 90t-108 32
q-45 0 -72 -24t-27 -64q0 -45 45.5 -83.5t121.5 -74.5zM459 154q0 29 -19 56.5t-54 51t-61.5 37.5t-64.5 31q-36 -19 -56.5 -33t-40 -45t-19.5 -71q0 -61 47.5 -97.5t115.5 -36.5t110 26t42 81z" />
    <glyph glyph-name="nine.tnum" horiz-adv-x="620" 
d="M120 50q24 -2 34 -2q117 0 191 88t79 201q-54 -85 -166 -85q-98 0 -158.5 69.5t-60.5 163.5q0 111 62 183t169 72q73 0 130 -30.5t89.5 -81t49 -109t16.5 -120.5q0 -178 -105 -294t-272 -116q-30 0 -45 2zM416 480q0 89 -32.5 144.5t-104.5 55.5q-58 0 -83.5 -44.5
t-25.5 -106.5q0 -80 33.5 -136.5t100.5 -56.5q58 0 85 40.5t27 103.5z" />
    <glyph glyph-name="zero.onum" horiz-adv-x="571" 
d="M35 239q0 109 70.5 180.5t179.5 71.5t180 -71.5t71 -180.5t-71 -180t-180 -71t-179.5 71t-70.5 180zM106 239q0 -84 47.5 -128.5t131.5 -44.5t132 45t48 128q0 84 -48 129t-132 45t-131.5 -45t-47.5 -129z" />
    <glyph glyph-name="one.onum" horiz-adv-x="456" 
d="M51 36h56q11 0 33 24t22 36v287q0 11 -23 35.5t-33 24.5h-55v36h354v-36h-52q-11 0 -33.5 -24.5t-22.5 -35.5v-287q0 -12 22 -36t33 -24h53v-36h-354v36z" />
    <glyph glyph-name="two.onum" horiz-adv-x="536" 
d="M484 103l-25 -103h-411v34q17 59 72 105.5t153 97.5q42 22 65.5 45.5t23.5 59.5t-23.5 57t-63.5 21q-54 0 -92 -24t-76 -69l-38 32q98 135 238 135q79 0 124 -34.5t45 -105.5q0 -34 -14.5 -61.5t-44 -48.5t-55.5 -34t-67 -29q-130 -50 -151 -78h340z" />
    <glyph glyph-name="three.onum" horiz-adv-x="571" 
d="M156 201l105 35q71 38 71 91q0 83 -101 83q-35 0 -68.5 -13.5t-51.5 -26.5t-48 -38l-33 42q47 49 118.5 84t144.5 35t119 -31.5t46 -95.5q0 -96 -134 -146q81 8 139 -28.5t58 -119.5q0 -60 -32 -112.5t-82 -87t-111 -59.5t-118.5 -36.5t-105.5 -11.5l-10 61q44 1 96 13.5
t105 37.5t88 71t35 104q0 77 -64 101.5t-166 1.5v46z" />
    <glyph glyph-name="four.onum" horiz-adv-x="610" 
d="M462 -229h-136v229h-296v52q75 89 151 185.5t114 148.5l38 53l129 52v-420h108v-71h-108v-229zM330 339q-87 -131 -209 -268h209v268z" />
    <glyph glyph-name="five.onum" horiz-adv-x="553" 
d="M467 371h-326l-28 -162q98 80 192 80q93 0 148 -47t55 -138q0 -77 -45.5 -143t-115 -107t-146 -64.5t-144.5 -24.5l-7 62q68 4 142 32t131.5 84.5t57.5 124.5q0 128 -134 128q-68 0 -153 -61l-42 23l46 321h343z" />
    <glyph glyph-name="six.onum" horiz-adv-x="605" 
d="M486 669q-24 2 -34 2q-118 0 -191.5 -81t-79.5 -192q61 87 167 87q98 0 158.5 -72.5t60.5 -167.5q0 -111 -62 -184.5t-169 -73.5q-71 0 -127.5 31.5t-90 82.5t-50.5 110.5t-17 121.5q0 170 105.5 283.5t271.5 113.5q30 0 45 -2zM190 261q0 -90 33 -149.5t104 -59.5
q58 0 83.5 46.5t25.5 108.5q0 81 -34 142t-101 61q-57 0 -84 -42.5t-27 -106.5z" />
    <glyph glyph-name="seven.onum" horiz-adv-x="560" 
d="M117 -229q109 330 320 591l7 9h-409l26 108h454l20 -34l-45 -79q-74 -130 -142.5 -309.5t-85.5 -285.5h-145z" />
    <glyph glyph-name="eight.onum" horiz-adv-x="603" 
d="M206 364q-140 85 -140 194q0 82 62.5 132t162.5 50q93 0 163 -43.5t70 -123.5q0 -102 -131 -158q40 -22 64 -37.5t53 -42t43 -60t14 -75.5q-1 -94 -80 -153.5t-199 -59.5q-98 0 -175.5 49.5t-77.5 139.5q0 116 171 188zM345 442q83 48 83 124q0 58 -43 90t-108 32
q-45 0 -72 -24t-27 -64q0 -45 45.5 -83.5t121.5 -74.5zM450 154q0 29 -19 56.5t-54 51t-61.5 37.5t-64.5 31q-36 -19 -56.5 -33t-40 -45t-19.5 -71q0 -61 47.5 -97.5t115.5 -36.5t110 26t42 81z" />
    <glyph glyph-name="nine.onum" horiz-adv-x="604" 
d="M120 -182q24 -2 34 -2q118 0 192 83t79 194q-55 -86 -167 -86q-98 0 -158.5 69.5t-60.5 163.5q0 111 62 182.5t169 71.5q73 0 130 -30.5t89.5 -80.5t49 -108.5t16.5 -120.5q0 -177 -104.5 -287t-272.5 -110q-30 0 -45 2zM416 235q0 89 -32.5 144.5t-104.5 55.5
q-58 0 -83.5 -44.5t-25.5 -106.5q0 -80 33.5 -136.5t100.5 -56.5q58 0 85 40.5t27 103.5z" />
    <glyph glyph-name="zero.numr" 
d="M31 531q0 86 48 144.5t121 58.5t121 -58.5t48 -144.5t-48 -144.5t-121 -58.5t-121 58.5t-48 144.5zM124 593q-4 -61 0 -124q4 -97 76 -97t76 97q4 63 0 124q-4 97 -76 97t-76 -97z" />
    <glyph glyph-name="one.numr" horiz-adv-x="375" 
d="M237 405q0 -7 11.5 -20t17.5 -13h35v-35h-222v35h34q6 0 18 13t12 20v191q0 7 -10 17t-15 10h-42v28q36 13 75.5 32.5t60.5 32.5l22 14h3v-325z" />
    <glyph glyph-name="two.numr" 
d="M341 403l-26 -66h-261v33q9 39 43 74.5t107 91.5q45 35 45 76q0 31 -18.5 48.5t-50.5 17.5q-52 0 -94 -54l-29 23q63 89 148 89q61 0 95 -30t34 -84q0 -35 -18.5 -63.5t-36.5 -41.5t-45 -28q-3 -2 -30 -16t-38 -20.5t-28.5 -21t-27.5 -28.5h231z" />
    <glyph glyph-name="three.numr" 
d="M123 568l57 19q21 13 28.5 23t7.5 28q0 20 -13.5 32t-35.5 12q-40 0 -93 -39l-19 29q84 64 156 64q38 0 61.5 -19t23.5 -54q0 -56 -75 -87q107 0 107 -82q0 -38 -28.5 -71.5t-69.5 -53.5t-80 -31.5t-67 -12.5l-9 39q30 4 62 14t65.5 37.5t33.5 64.5q0 68 -112 56v32z" />
    <glyph glyph-name="four.numr" 
d="M195 429h-170v36q46 57 93 119.5t71 97.5l24 34l73 21v-263h54v-45h-54v-29q0 -7 11.5 -20t18.5 -13h16v-30h-181v30h14q6 0 18 13t12 20v29zM195 630q-56 -85 -116 -158h116v158z" />
    <glyph glyph-name="five.numr" 
d="M318 662h-195l-19 -94q66 48 118 48q55 0 86 -28.5t31 -78.5q0 -55 -44.5 -98.5t-104 -64t-118.5 -21.5l-4 39q73 4 130.5 39t57.5 91q0 68 -70 68q-36 0 -96 -38l-27 15l32 189h206z" />
    <glyph glyph-name="six.numr" 
d="M308 698q-7 1 -21 1q-74 0 -117.5 -47t-42.5 -109q39 58 103 58q57 0 92 -38t35 -95q0 -62 -40.5 -101.5t-99.5 -39.5q-76 0 -120.5 55t-44.5 129q0 105 62.5 165t160.5 60q16 0 24 -1zM137 476q0 -45 20 -74t57 -29q34 0 49 22t15 54q0 49 -20.5 75.5t-55.5 26.5
q-32 0 -48.5 -22t-16.5 -53z" />
    <glyph glyph-name="seven.numr" 
d="M80 337q33 77 84 156t81 116t46 53h-236l18 66h282l15 -24l-32 -42q-56 -73 -96.5 -173.5t-49.5 -151.5h-112z" />
    <glyph glyph-name="eight.numr" 
d="M138 530q-82 37 -82 103q0 46 42.5 74.5t101.5 28.5q57 0 98.5 -26t41.5 -70q0 -52 -80 -82q48 -20 75.5 -46t27.5 -69q0 -51 -48.5 -83t-122.5 -32q-61 0 -107.5 25.5t-46.5 72.5q0 37 31 63.5t69 40.5zM226 578q50 25 50 58q0 29 -22.5 46t-60.5 17q-28 0 -46 -13
t-18 -33q0 -23 23.5 -38.5t73.5 -36.5zM288 418q0 21 -17 35t-53.5 29.5t-48.5 22.5q-64 -28 -64 -77q0 -26 28 -41.5t64 -15.5q42 0 66.5 12.5t24.5 34.5z" />
    <glyph glyph-name="nine.numr" 
d="M92 365q7 -1 21 -1q74 0 117.5 47t42.5 109q-36 -53 -103 -53q-57 0 -92 35.5t-35 92.5q0 62 40.5 101.5t99.5 39.5q76 0 120.5 -55t44.5 -129q0 -105 -62.5 -165t-160.5 -60q-16 0 -24 1zM263 592q0 45 -20 74t-57 29q-34 0 -49 -21.5t-15 -53.5q0 -49 20 -74.5
t55 -25.5q31 0 48.5 21t17.5 51z" />
    <glyph glyph-name="zero.dnom" 
d="M31 195q0 86 48 144.5t121 58.5t121 -58.5t48 -144.5t-48 -144.5t-121 -58.5t-121 58.5t-48 144.5zM124 257q-4 -61 0 -124q4 -97 76 -97t76 97q4 63 0 124q-4 97 -76 97t-76 -97z" />
    <glyph glyph-name="one.dnom" horiz-adv-x="392" 
d="M247 68q0 -7 11.5 -20t17.5 -13h35v-35h-222v35h34q6 0 18 13t12 20v191q0 7 -10 17t-15 10h-42v28q36 13 75.5 32.5t60.5 33.5l22 13h3v-325z" />
    <glyph glyph-name="two.dnom" 
d="M339 66l-26 -66h-261v33q9 39 43 74.5t107 91.5q45 35 45 76q0 31 -18.5 48.5t-50.5 17.5q-52 0 -94 -54l-29 23q63 89 148 89q61 0 95 -30t34 -84q0 -35 -18.5 -63.5t-36.5 -41.5t-45 -28q-3 -2 -30 -16t-38 -20.5t-28.5 -21t-27.5 -28.5h231z" />
    <glyph glyph-name="three.dnom" 
d="M124 231l57 19q21 13 28.5 23t7.5 28q0 21 -13.5 32.5t-35.5 11.5q-40 0 -93 -39l-19 29q84 64 156 64q38 0 61.5 -19t23.5 -54q0 -56 -75 -87q107 0 107 -82q0 -38 -28.5 -71.5t-69.5 -53.5t-80 -31.5t-67 -12.5l-9 39q30 4 62 14t65.5 37.5t33.5 64.5q0 68 -112 56v32z
" />
    <glyph glyph-name="four.dnom" 
d="M196 92h-170v36q46 57 93 119.5t71 96.5l24 35l73 21v-263h54v-45h-54v-29q0 -7 11.5 -20t18.5 -13h16v-30h-181v30h14q6 0 18 13t12 20v29zM196 293q-56 -85 -116 -158h116v158z" />
    <glyph glyph-name="five.dnom" 
d="M316 325h-195l-19 -94q66 48 118 48q55 0 86 -28.5t31 -78.5q0 -55 -44.5 -98.5t-104 -64t-118.5 -21.5l-4 39q73 4 130.5 39t57.5 91q0 68 -70 68q-36 0 -96 -38l-27 15l32 189h206z" />
    <glyph glyph-name="six.dnom" 
d="M301 361q-7 1 -21 1q-74 0 -117.5 -47t-42.5 -109q39 58 103 58q57 0 92 -38t35 -95q0 -62 -40.5 -101.5t-99.5 -39.5q-76 0 -120.5 55t-44.5 129q0 105 62.5 165t160.5 60q16 0 24 -1zM130 139q0 -45 20 -74t57 -29q34 0 49 22t15 54q0 49 -20.5 75.5t-55.5 26.5
q-32 0 -48.5 -22t-16.5 -53z" />
    <glyph glyph-name="seven.dnom" 
d="M70 0q33 77 84 156t81 116t46 53h-236l18 66h282l15 -24l-32 -42q-56 -73 -96.5 -173.5t-49.5 -151.5h-112z" />
    <glyph glyph-name="eight.dnom" 
d="M137 193q-82 37 -82 103q0 46 42.5 74.5t101.5 28.5q57 0 98.5 -26t41.5 -70q0 -52 -80 -82q48 -20 75.5 -46t27.5 -69q0 -51 -48.5 -83t-122.5 -32q-61 0 -107.5 25.5t-46.5 72.5q0 37 31 63.5t69 40.5zM225 241q50 25 50 58q0 29 -22.5 46t-60.5 17q-28 0 -46 -13
t-18 -33q0 -23 23.5 -38.5t73.5 -36.5zM287 81q0 21 -17 35t-53.5 29.5t-48.5 22.5q-64 -28 -64 -77q0 -26 28 -41.5t64 -15.5q42 0 66.5 12.5t24.5 34.5z" />
    <glyph glyph-name="nine.dnom" 
d="M88 28q7 -1 21 -1q74 0 117.5 47t42.5 109q-36 -53 -103 -53q-57 0 -92 35.5t-35 92.5q0 62 40.5 101.5t99.5 39.5q76 0 120.5 -55t44.5 -129q0 -105 -62.5 -165t-160.5 -60q-16 0 -24 1zM259 255q0 45 -20 74t-57 29q-34 0 -49 -21.5t-15 -53.5q0 -49 20 -74.5t55 -25.5
q31 0 48.5 21t17.5 51z" />
    <glyph glyph-name="uni0326.salt" horiz-adv-x="0" 
d="M-191 611q-7 146 125 153v-36q-34 -2 -56 -17t-22 -43h28q49 -11 49 -59q0 -26 -17 -42.5t-45 -16.5q-27 0 -43.5 16.5t-18.5 44.5z" />
    <glyph glyph-name="caron.salt" horiz-adv-x="259" 
d="M189 702q7 -146 -125 -153v36q34 2 56 17t22 43h-28q-49 11 -49 59q0 26 17 42.5t45 16.5q27 0 43.5 -16.5t18.5 -44.5z" />
    <glyph glyph-name="caron.case" horiz-adv-x="500" 
d="M202 777l-99 157h50l97 -79l97 79h50l-99 -157h-96z" />
    <glyph glyph-name="circumflex.case" horiz-adv-x="500" 
d="M298 934l99 -157h-50l-97 79l-97 -79h-50l99 157h96z" />
    <glyph glyph-name="acute.case" horiz-adv-x="500" 
d="M455 917l-192 -140h-48l75 140h165z" />
    <glyph glyph-name="grave.case" horiz-adv-x="500" 
d="M245 917l51 -140h-49l-167 140h165z" />
    <glyph glyph-name="macron.case" horiz-adv-x="500" 
d="M387 881v-81h-273v81h273z" />
    <glyph glyph-name="breve.case" horiz-adv-x="500" 
d="M251 776q-73 0 -113.5 41t-38.5 104l36 6q3 -69 114 -69q115 0 116 69l36 -6q2 -63 -37.5 -104t-112.5 -41z" />
    <glyph glyph-name="ring.case" horiz-adv-x="500" 
d="M140 865q0 48 32 77.5t79 29.5q46 0 78 -29.5t32 -77.5t-32 -77.5t-78 -29.5q-47 0 -79 29.5t-32 77.5zM194 865q0 -25 15.5 -40.5t41.5 -15.5q25 0 40.5 15.5t15.5 40.5t-15.5 40t-40.5 15q-26 0 -41.5 -15t-15.5 -40z" />
    <glyph glyph-name="tilde.case" horiz-adv-x="500" 
d="M408 815l-25 -20q-7 19 -18 28.5t-35 9.5q-22 0 -70.5 -24t-78.5 -24q-38 0 -61.5 25t-26.5 69l25 20q7 -19 18 -28.5t35 -9.5q22 0 70.5 24t78.5 24q38 0 61.5 -25t26.5 -69z" />
    <glyph glyph-name="dotaccent.case" horiz-adv-x="500" 
d="M328 848q0 -34 -22 -55.5t-56 -21.5q-33 0 -55.5 22t-22.5 55t22.5 55t55.5 22q34 0 56 -21.5t22 -55.5z" />
    <glyph glyph-name="hungarumlaut.case" horiz-adv-x="500" 
d="M305 917l-157 -140h-46l55 140h148zM489 917l-159 -140h-48l55 140h152z" />
    <glyph glyph-name="dieresis.case" horiz-adv-x="500" 
d="M217 840q0 -30 -20 -49.5t-50 -19.5t-50 19.5t-20 49.5t20 49.5t50 19.5t50 -19.5t20 -49.5zM422 840q0 -30 -20 -49.5t-49 -19.5q-30 0 -50.5 19.5t-20.5 49.5t20.5 49.5t50.5 19.5q29 0 49 -19.5t20 -49.5z" />
    <glyph glyph-name="germandbls.ss02" horiz-adv-x="635" 
d="M96 529q0 116 84.5 183.5t190.5 67.5q61 0 102 -34.5t41 -98.5q0 -32 -11.5 -58t-35 -47.5t-40.5 -33.5t-47 -30q58 -47 127 -96q103 -75 103 -168q0 -105 -81 -182t-197 -76q-48 0 -98 20l72 111h36q21 -26 40.5 -38t50.5 -12q38 0 61.5 25t23.5 66q0 48 -23.5 85.5
t-73.5 76.5q-87 66 -162 128v36q84 43 113 74.5t29 77.5q0 51 -31 84t-76 33t-59 -39t-14 -120v-564h-200v36h20q11 0 33 21.5t22 33.5v335h-75v53h75v50z" />
    <glyph glyph-name="colon.ss01" horiz-adv-x="274" 
d="M60 531q0 32 21.5 53.5t55.5 21.5t55.5 -21.5t21.5 -53.5t-21.5 -53.5t-55.5 -21.5t-55.5 21.5t-21.5 53.5zM60 202q0 32 21.5 53.5t55.5 21.5t55.5 -21.5t21.5 -53.5t-21.5 -53.5t-55.5 -21.5t-55.5 21.5t-21.5 53.5z" />
    <glyph glyph-name="ellipsis.ss01" horiz-adv-x="890" 
d="M60 75q0 32 21.5 53.5t55.5 21.5t55.5 -21.5t21.5 -53.5t-21.5 -53.5t-55.5 -21.5t-55.5 21.5t-21.5 53.5zM368 75q0 32 21.5 53.5t55.5 21.5t55.5 -21.5t21.5 -53.5t-21.5 -53.5t-55.5 -21.5t-55.5 21.5t-21.5 53.5zM676 75q0 32 21.5 53.5t55.5 21.5t55.5 -21.5
t21.5 -53.5t-21.5 -53.5t-55.5 -21.5t-55.5 21.5t-21.5 53.5z" />
    <glyph glyph-name="arrow_right" horiz-adv-x="890" 
d="M50 368h663l-222 209h128l241 -254l-241 -254h-128l222 209h-663v90z" />
    <glyph glyph-name="arrow_left" horiz-adv-x="890" 
d="M840 278h-663l222 -209h-128l-241 254l241 254h128l-222 -209h663v-90z" />
    <glyph glyph-name="arrow_down" horiz-adv-x="640" 
d="M365 771v-668l209 220v-127l-254 -240l-254 240v127l209 -220v668h90z" />
    <glyph glyph-name="arrow_up" horiz-adv-x="640" 
d="M275 0v668l-209 -220v127l254 240l254 -240v-127l-209 220v-668h-90z" />
    <glyph glyph-name="arrow_left_up" horiz-adv-x="745" 
d="M617 77l-469 469l9 -305l-91 90l10 350l350 10l90 -91l-305 9l469 -469z" />
    <glyph glyph-name="arrow_left_down" horiz-adv-x="745" 
d="M680 627l-469 -469l305 9l-90 -91l-350 10l-10 350l91 90l-9 -305l469 469z" />
    <glyph glyph-name="arrow_right_up" horiz-adv-x="745" 
d="M65 140l469 469l-305 -9l90 91l350 -10l10 -350l-91 -90l9 305l-469 -469z" />
    <glyph glyph-name="arrow_right_down" horiz-adv-x="745" 
d="M128 690l469 -469l-9 305l91 -90l-10 -350l-350 -10l-90 91l305 -9l-469 469z" />
    <glyph glyph-name="RP" horiz-adv-x="810" 
d="M402 730h7v-225h-7v225zM363 726l7 1l30 -281l-6 -1zM448 726l-7 1l-30 -281l6 -1zM327 720l7 2l46 -220l-7 -1zM484 720l-7 2l-46 -220l7 -1zM290 710l7 2l86 -269l-6 -2zM521 710l-7 2l-86 -269l6 -2zM255 697l6 3l92 -206l-6 -3zM556 697l-6 3l-92 -206l6 -3zM221 679
l6 4l140 -247l-6 -3zM590 679l-6 4l-140 -247l6 -3zM188 657l6 5l133 -182l-6 -4zM623 657l-6 5l-133 -182l6 -4zM159 633l5 5l190 -211l-5 -4zM652 633l-5 5l-190 -211l5 -4zM137 611l167 -151l-4 -5l-168 151zM674 611l-167 -151l4 -5l168 151zM108 575l4 6l230 -165
l-4 -5zM703 575l-4 6l-230 -165l4 -5zM87 543l3 6l197 -112l-4 -6zM724 543l-3 6l-197 -112l4 -6zM70 509l3 6l260 -114l-3 -6zM741 509l-3 6l-260 -114l3 -6zM57 473l2 7l214 -69l-2 -6zM754 473l-2 7l-214 -69l2 -6zM48 436l2 7l276 -58l-1 -6zM763 436l-2 7l-276 -58
l1 -6zM43 406l224 -24l-1 -6l-224 23zM768 406l-224 -24l1 -6l224 23zM324 368v-6h-284v6h284zM487 368v-6h283v6h-283zM43 324l224 24l-1 6l-224 -23zM768 324l-224 24l1 6l224 -23zM48 294l2 -7l276 58l-1 6zM763 294l-2 -7l-276 58l1 6zM70 221l3 -6l260 114l-3 6z
M741 221l-3 -6l-260 114l3 6zM57 257l2 -7l214 69l-2 6zM754 257l-2 -7l-214 69l2 6zM108 155l4 -6l230 165l-4 5zM703 155l-4 -6l-230 165l4 5zM159 97l5 -5l190 211l-5 4zM652 97l-5 -5l-190 211l5 4zM87 187l3 -6l197 112l-4 6zM724 187l-3 -6l-197 112l4 6zM221 51l6 -4
l140 247l-6 3zM590 51l-6 -4l-140 247l6 3zM290 20l7 -2l86 269l-6 2zM521 20l-7 -2l-86 269l6 2zM363 4l7 -1l30 281l-6 1zM448 4l-7 -1l-30 281l6 1zM137 119l167 151l-4 5l-168 -151zM674 119l-167 151l4 5l168 -151zM188 73l6 -5l133 182l-6 4zM623 73l-6 -5l-133 182
l6 4zM255 33l6 -3l92 206l-6 3zM556 33l-6 -3l-92 206l6 3zM327 10l7 -2l46 220l-7 1zM484 10l-7 -2l-46 220l7 1zM402 0h7v225h-7v-225z" />
    <glyph glyph-name="threestars" horiz-adv-x="948" 
d="M648 595l-30 -31l-132 26l113 -76v-42h-48l-73 112l29 -131l-33 -34l-35 34l29 131l-71 -112h-48v42l112 76l-131 -26l-30 31l30 31l131 -26l-112 76v42h48l71 -112l-29 131l35 34l33 -34l-29 -131l73 112h48v-42l-113 -76l132 26zM398 176l-30 -31l-132 26l113 -76v-42
h-48l-73 112l29 -131l-33 -34l-35 34l29 131l-71 -112h-48v42l112 76l-131 -26l-30 31l30 31l131 -26l-112 76v42h48l71 -112l-29 131l35 34l33 -34l-29 -131l73 112h48v-42l-113 -76l132 26zM898 176l-30 -31l-132 26l113 -76v-42h-48l-73 112l29 -131l-33 -34l-35 34
l29 131l-71 -112h-48v42l112 76l-131 -26l-30 31l30 31l131 -26l-112 76v42h48l71 -112l-29 131l35 34l33 -34l-29 -131l73 112h48v-42l-113 -76l132 26z" />
    <glyph glyph-name="ampersand.alt" horiz-adv-x="833" 
d="M737 0h-79q-54 0 -89 17t-78 59l-22 21q-108 -108 -209 -108q-86 0 -143 56t-57 138q0 134 156 216q-80 100 -80 186q0 75 52 120.5t131 45.5q76 0 119.5 -37t43.5 -102q0 -57 -34.5 -97.5t-100.5 -82.5q67 -85 179 -209q50 63 78 137q-1 18 -22.5 50.5t-30.5 32.5h-30
v36h292v-36h-28q-9 0 -47.5 -33t-53.5 -50q-108 -146 -128 -170q91 -100 151 -154h30v-36zM325 465q73 66 73 148q0 43 -26.5 68.5t-71.5 25.5q-47 0 -75.5 -25t-28.5 -65q0 -34 18.5 -54.5t50 -40t46.5 -39.5zM238 362q-49 -27 -68.5 -80t4.5 -109q18 -40 51 -65
q48 -34 102.5 -27t109.5 49q-92 97 -199 232z" />
    </font>
</defs>
</svg>
