<?xml version="1.0" encoding="UTF-8"?>
<svg width="241px" height="240px" viewBox="0 0 241 240" version="1.1" xmlns="http://www.w3.org/2000/svg" xmlns:xlink="http://www.w3.org/1999/xlink">
    <!-- Generator: Sketch 52.2 (67145) - http://www.bohemiancoding.com/sketch -->
    <title>icon/growth</title>
    <desc>Created with Sketch.</desc>
    <g id="Page-1" stroke="none" stroke-width="1" fill="none" fill-rule="evenodd">
        <g id="M_S_LOP_Case_Studies" transform="translate(-835.000000, -622.000000)">
            <rect fill="#FFFFFF" x="0" y="0" width="1800" height="1455"></rect>
            <g id="icon/growth" transform="translate(935.000000, 723.000000)">
                <polygon id="Stroke-1" fill="#18186D" fill-rule="evenodd" points="6.64864865 34.5428571 11.8198198 34.5428571 11.8198198 25.2571429 6.64864865 25.2571429"></polygon>
                <polygon id="Stroke-3" fill="#18186D" fill-rule="evenodd" points="14.7747748 34.5428571 19.9459459 34.5428571 19.9459459 21.1714286 14.7747748 21.1714286"></polygon>
                <polygon id="Stroke-4" fill="#18186D" fill-rule="evenodd" points="22.1621622 34.5428571 27.3333333 34.5428571 27.3333333 17.4571429 22.1621622 17.4571429"></polygon>
                <polygon id="Stroke-5" fill="#18186D" fill-rule="evenodd" points="29.9189189 34.5428571 35.0900901 34.5428571 35.0900901 12.6285714 29.9189189 12.6285714"></polygon>
                <path d="M29.9189189,1.11428571 C29.9189189,11.5045886 18.2636206,18.5714286 4.8018018,18.5714286" id="Stroke-6" stroke="#18186D" stroke-width="2.109"></path>
                <polygon id="Stroke-7" fill="#18186D" fill-rule="evenodd" points="32.8738739 4.45714286 29.8453801 -0.371428571 26.5945946 4.45714286"></polygon>
                <path d="M4.06306306,34.5428571 L37.5597008,34.5428571" id="Line-2" stroke="#18186D" stroke-width="3" stroke-linecap="square"></path>
            </g>
        </g>
    </g>
</svg>